<?xml version="1.0" encoding="UTF-8"?>
<svg id="Layer_1" data-name="Layer 1" xmlns="http://www.w3.org/2000/svg" viewBox="0 0 624 324.75">
  <defs>
    <style>
      .cls-1 {
        fill: #013166;
      }

      .cls-2 {
        fill: #182230;
      }

      .cls-3 {
        fill: #fdfefe;
      }
    </style>
  </defs>
  <path class="cls-3" d="M622.5,324.75H0V0h624v324.75h-.75l-108.379-71.082,1.863,4.1,21.761,25.072-43.116-23.946-1.124.377,12.167,18.54.207,2.787c-11.322-8.289-21.287-19.184-32.285-27.651-2.707-2.084-12.316-8.881-14.983-9.749-.486-.158-1.27-.147-1.106.359l10.487,17.227c.31.903-.18,1.508-1.107,1.104-1.489-.65-9.827-8.15-11.196-9.785-1.253-1.497-2.88-4.139-3.846-5.891-.989-1.796-7.608-15.41-7.738-16.302-.367-2.524,5.522-5.5,6.539-8.198l-2.887-12.944c12.98,10.906,26.318,21.587,40.255,31.29,1.148.799,6.167,5.083,5.482,1.648l-47.773-41.84-36.204,23.47c12.102,11.851,24.284,23.706,36.713,35.212,6.714,6.216,13.183,10.512,19.522,17.936.714.836,1.814,1.222,1.491,2.617l-80.632-54.61-1.102,1.099,29.234,39.296-49.128-39.652c-1.026-.229-1.419.055-1.104,1.101,1.216,4.038,4.289,8.4,4.121,13.095l-32.261-35.898,4.219,10.756,23.156,38.623-38.002-32.065-16.373,15.603-1.493-11.217c-1.292,1.509-3.054,2.42-4.523,3.718-8.187,7.234-16.316,17.363-25.155,23.54-.893.624-1.769,1.277-2.946,1.166-.301-1.159,1.128-.442,1.476-1.276.516-1.236.376-2.955.97-4.131,1.612-3.195,4.879-6.718,6.421-9.272,4.997-8.271,7.017-15.896,16.376-20.43,1.225-.593,6.26-1.442,6.875-2.416l-1.974-19.535c.505-2.51,6.606-7.329,7.69-9.565,1.264-2.609,2.665-16.409,3.42-17.173l51.734,40.406c.311-1.463-.333-2.013-1.081-3.03-2.901-3.941-9.539-9.456-13.172-13.048-6.901-6.823-13.877-13.84-20.959-20.244-4.979-4.503-10.28-8.806-15.446-13.107l-101.965,77.859c-.477.195-.272-.982-.923-1.476-9.278-7.052-18.725-14.424-27.555-20.951-2.009-1.485-9.34-7.376-10.928-7.87-3.37-1.05-3.695,1.884-5.233,2.949-33.589,23.246-67.61,45.251-102.152,67.756-17.311,11.279-35.811,22.241-52.87,34.258-1.712,1.206-7.597,4.844-8.434,5.802-.823.941-.97,1.286-.771,2.59,19.614-3.576,38.729-9.396,58.34-13.246,13.08-2.568,31.021-6.701,44.038-6.205.905.034,2.791-.562,2.612.739l-29.99,12.738c-.161,1.288,2.639.839,3.373.744,10.37-1.341,24.019-6.306,34.847-8.635,87.64-18.851,172.847-22.403,262.145-15.308,16.6,1.319,32.574,2.981,49.131,5.232,2.696.367,5.518,1.104,8.25,1.497,32.141,4.618,64.397,9.866,95.634,18.698.813-2.633-4.232-3.417-6.03-4.46-3.904-2.264-13.209-7.417-16.058-10.168-.595-.574-1.562-1.207-.41-1.837,36.669,6.201,73.525,12.441,109.114,23.208ZM373.989,6.259c-5.022-3.044-19.343-3.781-25.583-4.045-12.827-.544-41.41-1.232-52.909,1.898-7.537,2.052-6.829,4.177-10.794,9.074-3.517,4.343-10.892,8.672-12.498,15.405l-6.039,9.699-4.794,5.854c-2.179-5.166.236-12.157-7.069-13.891-5.207-1.237-20.633-.616-26.708-.353-6.66.289-13.294,1.111-18.923,2.965-5.023,1.654-5.445.059-7.22,5.257-.456,1.334-1.15,2.619-1.189,2.792-.299,1.307.596,4.068-.448,4.813-14.716,2.635-33.609,1.618-46.751,9.332-3.093,1.816-5.906,4.887-8.581,6.774-2.205,1.556-6.82,3.281-8.768,5.085-8.888,8.234-10.644,21.487-11.206,32.982-1.605,32.857.189,66.674.773,99.482.198,11.098-.214,22.232-.027,33.325l50.684-33.684,41.74,24.583,100.716-72.445,85.616,65.716,41.112-25.394,34.869,24.018-2.212-118.632c-1.012-12.363-2.247-26.5-12.847-34.324-2.987-2.205-12.248-4.976-13.497-6.738s-.763-7.198-2.012-9.965c-2.155-4.772-11.042-6.365-15.772-7.461-5.32-1.232-21.432-4.584-26.058-4.008-4.974.619-4.619,5.956-5.216,9.769-5.846-7.339-8.724-19.76-15.496-26.443-1.775-1.752-3.546-1.814-4.567-2.728-2.556-2.29-5.595-7.059-8.327-8.714Z"/>
  <path class="cls-1" d="M432,297.812c-16.557-2.251-32.531-3.913-49.131-5.232-89.298-7.094-174.505-3.543-262.145,15.308-10.829,2.329-24.477,7.294-34.847,8.635-.734.095-3.533.544-3.373-.744l29.99-12.738c.179-1.302-1.707-.705-2.612-.739-13.017-.496-30.959,3.637-44.038,6.205-19.611,3.851-38.726,9.67-58.34,13.246-.199-1.305-.052-1.649.771-2.59.837-.958,6.722-4.596,8.434-5.802,17.06-12.017,35.559-22.979,52.87-34.258,34.542-22.505,68.562-44.51,102.152-67.756,1.538-1.064,1.862-3.998,5.233-2.949,1.588.495,8.919,6.385,10.928,7.87,8.83,6.528,18.277,13.9,27.555,20.951.65.494.446,1.671.923,1.476l101.965-77.859c5.166,4.301,10.467,8.604,15.446,13.107,7.082,6.405,14.058,13.421,20.959,20.244,3.633,3.592,10.271,9.106,13.172,13.048.748,1.017,1.392,1.566,1.081,3.03l-51.734-40.406c-.755.764-2.155,14.564-3.42,17.173-1.084,2.236-7.185,7.056-7.69,9.565l1.974,19.535c-.615.975-5.65,1.823-6.875,2.416-9.359,4.534-11.379,12.159-16.376,20.43-1.543,2.554-4.809,6.077-6.421,9.272-.594,1.176-.453,2.896-.97,4.131-.349.834-1.777.117-1.476,1.276,1.177.111,2.052-.542,2.946-1.166,8.839-6.177,16.968-16.306,25.155-23.54,1.469-1.298,3.231-2.208,4.523-3.718l1.493,11.217,16.373-15.603,38.002,32.065-23.156-38.623-4.219-10.756,32.261,35.898c.168-4.695-2.905-9.057-4.121-13.095-.315-1.046.078-1.33,1.104-1.101l49.128,39.652-29.234-39.296,1.102-1.099,80.632,54.61c.324-1.396-.777-1.782-1.491-2.617-6.34-7.424-12.808-11.72-19.522-17.936-12.429-11.506-24.611-23.361-36.713-35.212l36.204-23.47,47.773,41.84c.685,3.434-4.334-.849-5.482-1.648-13.937-9.703-27.275-20.384-40.255-31.29l2.887,12.944c-1.017,2.698-6.907,5.675-6.539,8.198.13.893,6.748,14.507,7.738,16.302.965,1.752,2.592,4.394,3.846,5.891,1.369,1.635,9.707,9.136,11.196,9.785.927.404,1.417-.201,1.107-1.104l-10.487-17.227c-.164-.506.62-.517,1.106-.359,2.667.867,12.275,7.664,14.983,9.749,10.998,8.467,20.963,19.362,32.285,27.651l-.207-2.787-12.167-18.54,1.124-.377,43.116,23.946-21.761-25.072-1.863-4.1,108.379,71.082h-.75c-35.59-10.766-72.446-17.007-109.114-23.208-1.152.63-.185,1.262.41,1.837,2.849,2.751,12.154,7.904,16.058,10.168,1.798,1.043,6.843,1.827,6.03,4.46-31.237-8.832-63.493-14.08-95.634-18.698l-9.363-3.754,1.113,2.258ZM158.25,265.637c.967-.751,9.096-7.428,9.746-6.731l-4.879,14.198c3.444-1.369,12.012-11.106,14.422-11.82,3.449-1.021,8.403,2.396,11.441.986l18.277-14.763-.201-3.223-29.302-28.032c-.45.448-2.631,10.336-3.781,12.12-.687,1.066-2.145,1.17-2.573,2.046-.202.413.199,2.749-.267,4.254-.576,1.862-2.633,8.033-3.557,9.217-2.465,3.161-14.262,4.325-17.888,7.595-1.587,1.431-8.003,10.462-9.623,12.826-4.706,6.868-7.972,15.222-14.063,21.159.117.661,1.68.435,2.246.37.911-.105,1.621-.35,2.437-.757,7.613-3.799,20.633-14.068,27.563-19.446ZM425.242,291.074v-1.489h-.735v1.489h.735ZM426.375,291.826v.748c.487-.249.487-.499,0-.748ZM427.868,292.589l-.353.352,1.867,1.863.353-.352-1.867-1.863Z"/>
  <path class="cls-2" d="M373.989,6.259c2.732,1.656,5.771,6.424,8.327,8.714,1.021.914,2.792.976,4.567,2.728,6.772,6.683,9.65,19.104,15.496,26.443.597-3.813.242-9.15,5.216-9.769,4.626-.576,20.738,2.776,26.058,4.008,4.73,1.096,13.617,2.689,15.772,7.461,1.249,2.766.763,8.2,2.012,9.965s10.51,4.533,13.497,6.738c10.6,7.824,11.835,21.961,12.847,34.324l2.212,118.632-34.869-24.018-41.112,25.394-85.616-65.716-100.716,72.445-41.74-24.583-50.684,33.684c-.187-11.093.225-22.227.027-33.325-.584-32.808-2.379-66.625-.773-99.482.562-11.495,2.318-24.749,11.206-32.982,1.948-1.804,6.563-3.529,8.768-5.085,2.674-1.887,5.487-4.958,8.581-6.774,13.142-7.714,32.034-6.697,46.751-9.332,1.044-.745.15-3.506.448-4.813.04-.173.734-1.458,1.189-2.792,1.775-5.198,2.197-3.603,7.22-5.257,5.629-1.854,12.263-2.676,18.923-2.965,6.075-.263,21.501-.884,26.708.353,7.304,1.735,4.89,8.725,7.069,13.891l4.794-5.854,6.039-9.699c1.606-6.733,8.981-11.062,12.498-15.405,3.965-4.897,3.258-7.023,10.794-9.074,11.5-3.13,40.082-2.442,52.909-1.898,6.24.265,20.561,1.002,25.583,4.045ZM378,41.155c1.455,2.617,4.736,8.109,6.379,10.472.252.363.635.823,1.113.752,1.089-1.488-8.31-29.351-9.921-33.12-2.352-5.504-3.23-7.063-9.28-8.7-13.764-3.726-52.382-3.619-66.461-.625-8.919,1.897-8.671,5.38-11.642,13.078-2.867,7.429-8.871,23.926-9.948,31.234-.245,1.66.324,1.33,1.103.348,2.595-3.272,6.773-9.734,8.656-13.439l7.164-1.525c6.448,1.129,13.728-.573,20.18-.751,20.934-.578,41.843.529,62.656,2.276ZM248.249,35.177c-8.705-1.221-18.597-1.074-27.369-.003-.784.096-12.781,1.514-10.127,3.732,9.809-.368,20.653-.215,30.364-1.5,2.054-.272,6.092-.392,7.131-2.23ZM426,42.651c-3.558-.75-7.092-2.129-10.809-2.295-1.576.222-.246,7.05-.441,8.281.384.385,9.26.397,10.5.748,3.343.946,4.546,3.578,9.75,2.245.665-.17,2.045.484,2.291-.411-.146-1.375.253-3.087-.147-4.366-.434-1.386-1.907-.996-2.143-1.209-4.245-3.827-4.152-1.971-9-2.993ZM266.25,55.372c.881-2.088,3.072-4.648,2.637-6.723l-52.884,5.234,7.685,3.735c.497.368,1.013.963,1.311,1.495.295.528,2.25,5.31,2.25,5.612v11.224l1.748,1.02c10.264-6.455,19.648-1.872,20.699,10.139.049.759,1.423.568,1.867.382,2.506-1.049,12.836-27.735,14.686-32.118ZM401.25,58.365c.433,1.057.476,2.901,1.137,4.478,4.065,9.697,8.526,19.29,12.558,28.999,9.72,1.776,19.598,2.841,29.434,3.779,5.839.557,13.18,1.8,19.12,1.654.751-.019,1.504.033,2.251.004,1.042-22.639-.115-30.568-22.339-37.205-10.842-3.238-33.295-8.865-44.11-9.876-1.11-.104-2.055-.602-1.725.97s1.695,4.208,2.363,5.913c.31.79,1.263,1.167,1.311,1.284ZM156,65.1c-.007-.076-.417-1.089-.364-1.478-4.216,2.361-14.291,7.119-8.984,13.423,2.2,2.614,12.91,4.394,16.438,4.545,2.776.119,5.321-.761,7.16-.776,12.466-.097,23.406.79,35.006-5.107,13.618-6.922,17.679-20.468-1.724-22.487-15.504-1.613-36.461-.123-47.533,11.88ZM408.493,90.8c-36.852-46.954-108.581-50.393-147.877-4.01-19.857,23.439-24.903,64.466-7.627,90.688.842,1.279,5.436,4.77,5.023,1.73-.21-1.545-3.012-7.333-3.84-9.495-20.795-54.258,28.549-112.123,85.107-107.512,57.894,4.72,95.319,66.765,70.374,120.154-2.475,5.298-7.558,10.119-9.842,15.632-.263,1.158-.066,1.202,1.068,1.062,2.34-.29,8.077-6.88,9.632-9.093,19.611-27.907,18.362-70.981-1.283-97.261l-.735-1.896ZM370.998,81.08c-35.08-20.86-83.648-8.32-102.157,28.134-10.33,20.345-9.382,44.645,1.918,64.38,1.853-.998-.991-4.775-1.528-6.337-12.336-35.912-.192-66.911,32.495-85.095,43.689-24.304,101.632,10.86,101.773,60.383.009,3.088-1.998,11.209-.958,13.639.351.821.735,1.817,1.699.95.892-.802.011-3.621.197-4.657,5.053-28.152-8.552-56.599-33.439-71.397ZM242.04,90.331c6.79-6.774-5.276-16.32-10.633-7.992-4.987,7.753,5.725,12.888,10.633,7.992ZM336.75,92.037c7.713-3.599,15.535-2.717,23.602-2.215.812.05,2.845.479,2.643-.769-3.641-1.368-7.113-3.352-10.843-4.525-40.025-12.591-84.159,18.69-79.06,61.668l2.901,10.189c1.382-10.408,6.183-19.915,12.008-28.43,1.769.441,2.311,2.771,3.253,3.492,2.167,1.658,13.274,6.662,15.963,6.909,7.495.69,10.723-4.131,17.448-6.38l15.836-13c.113.312,4.377,3.975,5.001,4.364,9.895,6.156,21.925-3.252,17.425-14.391-2.096-5.189-5.608-5.826-10.426-6.434-.053-.007-.112-.726-.75-.748-.243-.008-.51-.025-.75,0l1.504-11.227c-.557-.56-14.04,1.107-15.754,1.499ZM238.498,98.781c-4.339-.626-11.635-3.898-13.002-8.361l-1.237-5.86c-2.659,5.864-3.451,12.326-4.472,18.661,1.559,1.775,17.359-.516,18.711-4.441ZM152.25,88.296c-3.178-1.162-8.781-1.011-12.386-.748-3.476.253-1.877,1.494.135,2.87,4.639,3.174,8.098,3.323,13.001,4.613,15.914,4.185,29.785,4.48,45.268-2.352,1.201-.53,11.072-5.477,9.475-7.375-18.249,3.437-36.954,3.057-55.493,2.993ZM368.256,178.85c4.475,3.163,10.341,6.983,13.991.857,3.897-6.542,8.319-14.549,10.215-21.984,6.239-24.464-2.374-53.294-25.345-65.669l12.302,14.079c14.008,22.744,11.232,56.488-11.163,72.718ZM466.5,136.934l-.104-31.322-32.142-4.592c-1.552,1.543,8.302,18.457,9.035,21.667l2.235-.322.7-1.453-2.971-11.66,17.247-.755,3.751,45.647c-.75,1.16.462,14.417.748,16.85.131,1.115.595,2.29,1.498,1.104-.023-11.71.045-23.455.004-35.165ZM164.25,107.003c-.068.001-.403-.507-.964-.496l-17.789,1.241,2.261,96.531,19.529-14.555c3.487-1.68,9.533-1.144,12.952-1.921.569-.129.456-1.328,1.026-1.468,2.645-.652,8.95,2.315,9.88-.495l.849-75.837c-5.264.18-10.293-2.599-15.385-2.996-2.207-.172-4.881.806-5.609.744-2.329-.198-2.916-.806-6.75-.748ZM432,124.213c-.041-.004-.549-1.474-.745-.363-.36,2.696-2.304,7.83.66,8.917l-.57,5.195.638.861c5.037.643,3.843,1.243,5.338,4.265.35.707,1.341.605,1.325.913-.269,5.468-.391,13.386-2.507,18.386-.657,1.553-1.94,2.396-2.64,3.73-3.884,1.081-4.928,8.054-4.129,11.22,1.29-1.428,2.614-2.967,3.714-4.555.527-.761.27-1.97.415-2.175,2.67-3.799,7.174-7.596,8.801-12.545,1.783-5.422,1.128-15.4.199-21.128-1.13-6.967-2.636-11.964-10.5-12.721ZM342.569,134.505c3.961-3.978-2.756-9.456-5.889-5.501-3.398,4.289,2.84,8.563,5.889,5.501ZM234.247,156.927c-.927-2.053.188-6.009-.255-8.387l-1.485-7.113c.188,12.627-.301,28.832,4.658,40.611.674,1.6,7.438,13.943,9.58,11.76-.57-4.46-3.94-8.734-5.472-12.865-2.852-7.691-3.94-17.165-7.027-24.006ZM355.504,172.089c2.952.577,4.388,3.89,7.716,2.889,5.257-6.476,12.772-18.246,13.896-26.644.186-1.39.271-2.251-.995-3.166-3.636,7.493-7.637,14.869-13.862,20.583-1.205,1.106-7.765,4.879-6.755,6.338ZM404.247,158.638c-.085-.076-2.406-.393-2.234.52-.035.803-.02,1.745-.359,2.474-2.473,5.332-4.928,11.092-7.776,16.21-2.521,4.53-6.037,8.565-8.761,12.951,7.038-5.473,12.631-13.948,15.962-22.228.912-2.267.491-3.916.964-5.639.067-.243,3.36-3.252,2.204-4.289Z"/>
  <path class="cls-2" d="M432,297.812l-1.113-2.258,9.363,3.754c-2.732-.393-5.554-1.13-8.25-1.497Z"/>
  <path class="cls-1" d="M164.25,107.003l2.254,70.334,1.498-1.105,2.998-68.48c.728.062,3.401-.916,5.609-.744,5.092.396,10.121,3.176,15.385,2.996l-.849,75.837c-.93,2.81-7.235-.157-9.88.495-.57.14-.457,1.339-1.026,1.468-3.419.777-9.465.241-12.952,1.921l-19.529,14.555-2.261-96.531,17.789-1.241c.561-.011.897.497.964.496Z"/>
  <path class="cls-3" d="M408.493,90.8l.735,1.896c19.645,26.279,20.893,69.354,1.283,97.261-1.555,2.213-7.292,8.804-9.632,9.093-1.134.14-1.331.096-1.068-1.062,2.284-5.513,7.366-10.334,9.842-15.632,24.945-53.389-12.479-115.433-70.374-120.154-56.557-4.611-105.902,53.253-85.107,107.512.828,2.162,3.63,7.95,3.84,9.495.413,3.039-4.181-.452-5.023-1.73-17.275-26.222-12.23-67.25,7.627-90.688,39.296-46.383,111.025-42.945,147.877,4.01Z"/>
  <path class="cls-1" d="M336.75,92.037c1.713-.392,15.196-2.059,15.754-1.499l-1.504,11.227c-.947.099-7.333,3.15-7.848,3.768-2.032,2.441-3.679,10.604-2.652,13.442l-15.836,13c-6.725,2.249-9.953,7.07-17.448,6.38-2.689-.248-13.796-5.251-15.963-6.909-.942-.721-1.484-3.05-3.253-3.492,1.628-2.381,4.1-5.17,6-7.483,1.866.364,2.49-2.213,3-3.741,2.303-2.598,4.044-4.489,6.75-6.734l1.498-.008-.748-.741c8.341-6.594,21.939-14.85,32.25-17.21Z"/>
  <path class="cls-1" d="M401.25,58.365c1.401.121,2.963-.388,4.298.239,6.543,3.073,21.581,3.658,30.381,5.943,4.513,1.172,17.238,5.637,20.281,8.749.783.801,3.624,6.722,4.084,8.096,1.611,4.812,1.943,10.858,3.206,15.883-5.94.147-13.281-1.097-19.12-1.654-9.836-.938-19.714-2.003-29.434-3.779-4.033-9.709-8.493-19.302-12.558-28.999-.661-1.577-.704-3.421-1.137-4.478Z"/>
  <path class="cls-3" d="M288,127.954c-5.824,8.516-10.625,18.022-12.008,28.43l-2.901-10.189c-5.099-42.978,39.035-74.258,79.06-61.668,3.73,1.173,7.202,3.157,10.843,4.525.203,1.247-1.831.819-2.643.769-8.067-.502-15.889-1.385-23.602,2.215-10.311,2.361-23.909,10.617-32.25,17.21-.275.217-.482.526-.75.748-2.706,2.246-4.447,4.137-6.75,6.734-1.151,1.298-2.13,2.683-3,3.741-1.9,2.313-4.372,5.102-6,7.483Z"/>
  <path class="cls-3" d="M288,41.155c-1.883,3.705-6.061,10.167-8.656,13.439-.779.982-1.347,1.311-1.103-.348,1.077-7.307,7.081-23.805,9.948-31.234,2.971-7.699,2.723-11.181,11.642-13.078,14.079-2.994,52.697-3.101,66.461.625,6.05,1.638,6.927,3.196,9.28,8.7,1.611,3.769,11.01,31.632,9.921,33.12-.479.071-.861-.389-1.113-.752-1.643-2.363-4.925-7.855-6.379-10.472-.277-.499-.321-1.475-.75-2.245-3.562-6.385-5.219-16.484-14.25-14.965-6.48-1.741-6.912-1.091-13.174-.837-.243.01.086-1.76-4.076-1.408-13.749.2-27.807-.884-41.25,2.245-7.334,1.486-8.997.301-12.658,7.2-1.528,2.879-2.544,7.456-3.842,10.01Z"/>
  <path class="cls-1" d="M345.75,21.7c4.162-.352,3.833,1.417,4.076,1.408,6.261-.254,6.694-.904,13.174.837,1.265.34,6.732,1.877,7.133,2.237,1.388,1.245,3.692,8.208,4.64,10.334.58,1.301.491,2.501,2.477,2.395.429.769.473,1.746.75,2.245-20.813-1.746-41.722-2.853-62.656-2.276-6.452.178-13.731,1.88-20.18.751l-7.164,1.525c1.298-2.554,2.314-7.131,3.842-10.01,3.661-6.899,5.324-5.715,12.658-7.2l10.875-.748h11.25c5.958,0,13.196-.995,19.125-1.497Z"/>
  <path class="cls-3" d="M370.998,81.08c24.887,14.799,38.492,43.245,33.439,71.397-.186,1.036.695,3.854-.197,4.657-.964.868-1.348-.128-1.699-.95-1.039-2.43.967-10.551.958-13.639-.14-49.523-58.084-84.687-101.773-60.383-32.687,18.184-44.832,49.182-32.495,85.095.537,1.562,3.38,5.338,1.528,6.337-11.301-19.735-12.248-44.034-1.918-64.38,18.509-36.453,67.077-48.993,102.157-28.134Z"/>
  <path class="cls-3" d="M170.25,80.813c-3.654-2.807-8.421-3.01-11.647-6.712-2.99-3.431-2.254-5.047-2.603-9.001,11.072-12.003,32.029-13.494,47.533-11.88,19.403,2.019,15.341,15.565,1.724,22.487-11.6,5.897-22.541,5.01-35.006,5.107ZM183.595,56.342c-5.333.516-19.61,4.451-17.546,11.766,3,10.63,33.181,9.213,37.379-.954,4.035-9.773-13.569-11.419-19.833-10.813Z"/>
  <path class="cls-1" d="M266.25,55.372c-1.849,4.382-12.179,31.068-14.686,32.118-.444.186-1.818.377-1.867-.382-1.051-12.011-10.435-16.593-20.699-10.139l-1.748-1.02v-11.224c0-.302-1.955-5.084-2.25-5.612,2,.907,2.322-1.457,2.753-1.522,1.88-.284,5.289,1.217,8.174.831,1.469-.197.768-1.595,2.169-1.638,2.139-.066,4.305,1.182,6.798.891,1.706-.199,2.61-1.394,3.79-1.559,2.073-.291,5.306,1.212,8.242.809,1.39-.191.986-1.398,1.589-1.537,2.149-.497,5.393.301,7.735-.017Z"/>
  <path class="cls-1" d="M368.256,178.85c22.395-16.23,25.171-49.974,11.163-72.718l-12.302-14.079c22.971,12.375,31.584,41.205,25.345,65.669-1.896,7.435-6.318,15.442-10.215,21.984-3.65,6.126-9.516,2.306-13.991-.857Z"/>
  <path class="cls-3" d="M401.25,58.365c-.048-.117-1.001-.494-1.311-1.284-.668-1.704-2.034-4.347-2.363-5.913s.615-1.074,1.725-.97c10.815,1.011,33.268,6.638,44.11,9.876,22.225,6.637,23.381,14.566,22.339,37.205-.747.029-1.501-.023-2.251-.004-1.262-5.024-1.595-11.07-3.206-15.883-.46-1.375-3.301-7.295-4.084-8.096-3.043-3.113-15.768-7.578-20.281-8.749-8.799-2.285-23.838-2.87-30.381-5.943-1.335-.627-2.897-.118-4.298-.239Z"/>
  <path class="cls-1" d="M464.25,154.144l-3.751-45.647-17.247.755,2.971,11.66-.7,1.453-2.235.322c-.733-3.209-10.586-20.124-9.035-21.667l32.142,4.592.104,31.322c-2.229,4.465.416,12.417-.741,16.715-.215.797-1.466.429-1.509.495Z"/>
  <path class="cls-3" d="M351.75,101.765l.75.748c4.819.609,8.33,1.245,10.426,6.434,4.499,11.139-7.53,20.547-17.425,14.391-.624-.388-4.888-4.052-5.001-4.364-1.027-2.838.62-11.001,2.652-13.442.515-.618,6.901-3.67,7.848-3.768.24-.025.507-.008.75,0Z"/>
  <path class="cls-3" d="M153,95.031l1.522-5.599c-.026-.201-1.809-.966-2.272-1.135,18.538.064,37.244.444,55.493-2.993,1.596,1.898-8.275,6.845-9.475,7.375-15.483,6.832-29.354,6.537-45.268,2.352Z"/>
  <path class="cls-3" d="M171,107.751l-2.998,68.48-1.498,1.105-2.254-70.334c3.834-.057,4.421.551,6.75.748Z"/>
  <path class="cls-1" d="M432,124.213c6.885,2.303,7.509,3.557,8.894,10.246.285,1.375-.662,2.915,1.606,2.475.929,5.727,1.585,15.706-.199,21.128-1.628,4.949-6.132,8.746-8.801,12.545l-1.512-.386c.593-1.141,1.005-3.135,1.512-4.104.7-1.334,1.983-2.177,2.64-3.73,2.115-5,2.238-12.918,2.507-18.386.015-.308-.976-.206-1.325-.913-1.495-3.022-.3-3.622-5.338-4.265l-.638-.861.57-5.195c-2.964-1.087-1.02-6.22-.66-8.917.196-1.111.703.359.745.363Z"/>
  <path class="cls-3" d="M266.25,55.372c-2.342.317-5.586-.481-7.735.017-.602.139-.199,1.346-1.589,1.537-2.936.403-6.169-1.101-8.242-.809-1.18.166-2.084,1.361-3.79,1.559-2.493.29-4.66-.957-6.798-.891-1.402.043-.7,1.441-2.169,1.638-2.885.386-6.293-1.114-8.174-.831-.431.065-.753,2.428-2.753,1.522-.298-.533-.814-1.127-1.311-1.495l-7.685-3.735,52.884-5.234c.435,2.075-1.756,4.635-2.637,6.723Z"/>
  <path class="cls-1" d="M156,65.1c.348,3.954-.387,5.57,2.603,9.001,3.227,3.703,7.993,3.905,11.647,6.712-1.839.014-4.384.895-7.16.776-3.528-.151-14.238-1.931-16.438-4.545-5.307-6.304,4.768-11.062,8.984-13.423-.053.389.357,1.402.364,1.478Z"/>
  <path class="cls-1" d="M355.504,172.089c-1.01-1.459,5.549-5.232,6.755-6.338,6.225-5.714,10.226-13.09,13.862-20.583,1.266.914,1.181,1.775.995,3.166-1.124,8.397-8.639,20.168-13.896,26.644-3.329,1.002-4.764-2.312-7.716-2.889Z"/>
  <path class="cls-3" d="M234.247,156.927c3.088,6.841,4.176,16.315,7.027,24.006,1.532,4.131,4.903,8.405,5.472,12.865-2.142,2.183-8.906-10.16-9.58-11.76-4.959-11.779-4.471-27.984-4.658-40.611l1.485,7.113c.442,2.378-.672,6.333.255,8.387Z"/>
  <path class="cls-1" d="M238.498,98.781c-1.352,3.925-17.152,6.216-18.711,4.441,1.021-6.335,1.814-12.797,4.472-18.661l1.237,5.86c1.367,4.463,8.662,7.735,13.002,8.361Z"/>
  <path class="cls-3" d="M242.04,90.331c-4.908,4.896-15.62-.239-10.633-7.992,5.357-8.329,17.424,1.218,10.633,7.992Z"/>
  <path class="cls-3" d="M248.249,35.177c-1.039,1.838-5.077,1.958-7.131,2.23-9.711,1.285-20.555,1.132-30.364,1.5-2.654-2.218,9.343-3.636,10.127-3.732,8.772-1.071,18.664-1.219,27.369.003Z"/>
  <path class="cls-1" d="M426,42.651c-.286,2.111.807,5.203-.75,6.734-1.24-.351-10.116-.363-10.5-.748.195-1.231-1.135-8.059.441-8.281,3.717.167,7.251,1.545,10.809,2.295Z"/>
  <path class="cls-1" d="M152.25,88.296c.463.169,2.247.934,2.272,1.135l-1.522,5.599c-4.903-1.289-8.362-1.439-13.001-4.613-2.012-1.376-3.611-2.617-.135-2.87,3.605-.262,9.209-.413,12.386.748Z"/>
  <path class="cls-3" d="M426,42.651c4.848,1.022,4.755-.834,9,2.993v5.986c-5.204,1.333-6.407-1.299-9.75-2.245,1.557-1.531.464-4.623.75-6.734Z"/>
  <path class="cls-3" d="M404.247,158.638c1.156,1.036-2.137,4.046-2.204,4.289-.473,1.723-.052,3.372-.964,5.639-3.33,8.28-8.924,16.755-15.962,22.228,2.724-4.386,6.241-8.421,8.761-12.951,2.848-5.118,5.303-10.879,7.776-16.21.338-.729.323-1.672.359-2.474-.172-.913,2.148-.596,2.234-.52Z"/>
  <path class="cls-3" d="M466.5,136.934c.041,11.71-.027,23.455-.004,35.165-.903,1.186-1.367.011-1.498-1.104-.286-2.433-1.498-15.69-.748-16.85.043-.067,1.294.302,1.509-.495,1.157-4.298-1.488-12.25.741-16.715Z"/>
  <path class="cls-3" d="M342.569,134.505c-3.049,3.062-9.287-1.212-5.889-5.501,3.133-3.955,9.85,1.523,5.889,5.501Z"/>
  <path class="cls-3" d="M433.5,166.116c-.508.968-.919,2.963-1.512,4.104l1.512.386c-.145.206.112,1.414-.415,2.175-1.1,1.588-2.424,3.127-3.714,4.555-.8-3.166.245-10.14,4.129-11.22Z"/>
  <path class="cls-1" d="M435,45.645c.236.213,1.71-.177,2.143,1.209.4,1.279.001,2.991.147,4.366-.245.895-1.625.241-2.291.411v-5.986Z"/>
  <path class="cls-3" d="M442.5,136.934c-2.268.44-1.322-1.099-1.606-2.475-1.384-6.689-2.008-7.943-8.894-10.246,7.864.757,9.37,5.753,10.5,12.721Z"/>
  <path class="cls-1" d="M352.5,102.513l-.75-.748c.638.022.697.742.75.748Z"/>
  <path class="cls-2" d="M158.25,265.637c-6.929,5.378-19.95,15.647-27.563,19.446-.817.408-1.526.653-2.437.757l30-20.203Z"/>
  <rect class="cls-2" x="424.508" y="289.585" width=".735" height="1.489"/>
  <path class="cls-3" d="M128.25,285.84c-.566.065-2.129.291-2.246-.37,6.092-5.937,9.358-14.291,14.063-21.159,1.62-2.364,8.036-11.395,9.623-12.826,3.626-3.27,15.423-4.434,17.888-7.595.923-1.184,2.98-7.355,3.557-9.217.466-1.506.065-3.841.267-4.254.428-.876,1.886-.98,2.573-2.046,1.15-1.784,3.331-11.672,3.781-12.12l29.302,28.032.201,3.223-18.277,14.763c-3.039,1.41-7.992-2.006-11.441-.986-2.41.713-10.978,10.451-14.422,11.82l4.879-14.198c-.651-.697-8.779,5.98-9.746,6.731l-30,20.203Z"/>
  <path class="cls-2" d="M426.375,291.826c.487.249.487.499,0,.748v-.748Z"/>
  <polygon class="cls-2" points="427.868 292.589 429.735 294.452 429.382 294.804 427.515 292.941 427.868 292.589"/>
  <path class="cls-2" d="M297,116.73c-.51,1.528-1.134,4.106-3,3.741.87-1.059,1.849-2.443,3-3.741Z"/>
  <path class="cls-2" d="M304.5,109.248l.748.741-1.498.008c.268-.222.475-.531.75-.748Z"/>
  <path class="cls-2" d="M345.75,21.7c-5.929.502-13.167,1.497-19.125,1.497h-11.25l-10.875.748c13.443-3.129,27.501-2.045,41.25-2.245Z"/>
  <path class="cls-2" d="M377.25,38.91c-1.986.106-1.897-1.094-2.477-2.395-.948-2.126-3.253-9.089-4.64-10.334-.401-.36-5.868-1.897-7.133-2.237,9.031-1.519,10.688,8.58,14.25,14.965Z"/>
  <path class="cls-2" d="M183.595,56.342c6.264-.606,23.868,1.04,19.833,10.813-4.198,10.167-34.379,11.584-37.379.954-2.065-7.315,12.213-11.25,17.546-11.766ZM181.306,59.294c-2.029.322-8.865,2.574-6.606,5.467,2.664,3.412,18.076,3.809,19.443-.929,1.554-5.386-9.66-5.041-12.837-4.537Z"/>
  <path class="cls-3" d="M181.306,59.294c3.177-.504,14.391-.849,12.837,4.537-1.367,4.738-16.779,4.342-19.443.929-2.259-2.893,4.578-5.145,6.606-5.467Z"/>
</svg>