<?xml version="1.0" encoding="UTF-8"?>
<svg id="Layer_1" data-name="Layer 1" xmlns="http://www.w3.org/2000/svg" viewBox="0 0 624 324.75">
  <defs>
    <style>
      .cls-1 {
        fill: #3790c9;
      }

      .cls-2 {
        fill: #013166;
      }

      .cls-3 {
        fill: #182230;
      }

      .cls-4 {
        fill: #6c6f77;
      }

      .cls-5 {
        fill: #fdfefe;
      }

      .cls-6 {
        fill: #025d96;
      }
    </style>
  </defs>
  <path class="cls-5" d="M622.5,324.75H0V0h624v324.75h-.75l-108.379-71.082,1.863,4.1,21.761,25.072c-14.946-6.763-28.233-16.906-43.116-23.946l-1.124.377c2.732,6.518,9.166,12.578,12.167,18.54.337.67,1.139,2.357.207,2.787-11.322-8.289-21.287-19.184-32.285-27.651-2.708-2.085-12.315-8.881-14.983-9.749-.486-.158-1.27-.147-1.106.359l10.487,17.227c.31.903-.18,1.508-1.107,1.104-1.489-.65-9.827-8.15-11.196-9.785-1.253-1.497-2.88-4.139-3.846-5.891-.989-1.796-7.608-15.41-7.738-16.302-.393-2.703,5.824-5.478,6.539-8.198.588-2.234-3.796-9.768-2.895-12.944,12.176,9.684,23.227,18.639,36,27.686,2.949,2.089,5.724,5.405,9.367,6.742,1.624-1.234-.125-1.301-.577-1.719-1.846-1.705-3.967-3.303-5.791-5.023-10.713-10.107-21.75-21.387-33.75-29.931-1.32-.703-6.729-6.564-7.203-6.698-1.13-.32-5.57,1.998-5.547,3.705-1.894.823-3.309,1.123-5.481,2.39-7.635,4.453-17.056,10.937-24.324,16.122-.522.372-1.279-.16-.928,1.294,12.052,11.916,24.352,23.62,36.713,35.212,5.544,5.2,11.98,9.971,17.307,15.68,1.157,1.239,3.189,3.313,3.706,4.874l-80.632-54.61-1.102,1.099,28.871,39.292-45.38-36.66c-.571-.606-3.869-3.658-4.496-2.989,1.469,4.695,3.795,9.209,4.129,14.198l-32.625-35.902c6.595,17.518,17.916,32.507,27.732,48.278l-1.104,1.102-37.135-32.169c-.936.144-1.066.95-1.5,1.497-.208.262-.521.479-.75.748-1.524,1.195-2.836,2.68-4.226,4.03-.367.357-.191,1.128-.274,1.208-.151.146-1.444.281-2.267,1.07-2.424,2.323-4.656,4.863-7.112,7.157l-1.129-11.22c-2.779,1.464-4.587,3.88-6.742,5.986-1.47,1.436-3.086,3.012-4.5,4.49-.465.486-1.013,1.007-1.5,1.497-2.138.349-3.536,2.908-5.25,4.49-.259.239-.489.514-.75.748-1.488,1.332-2.993,2.425-4.5,3.741-2.226,1.943-5.943,6.143-8.189,7.177-.675.311-1.758.806-1.554-.431,1.065.185,1.181-.32,1.615-1.052,5.875-9.9,12.861-28.062,23.128-33.074,1.406-.687,7.209-1.775,7.531-3.051l-2.133-19.153c.518-2.572,6.899-7.572,7.908-10.096,1.431-3.58,1.928-11.077,2.443-15.147.062-.486-.036-1.008,0-1.497.399-.336,7.409,4.284,8.201,4.912.797.631,1.11,1.912,1.927,2.567,13.879,11.126,28.035,21.906,42,32.924,1.029-.548.117-1.961-.345-2.649-1.272-1.896-8.037-8.729-10.129-10.846-7.897-7.992-16.881-15.669-25.155-23.166-3.664-3.32-7.419-6.597-11.25-9.728-5.093-5.525-4.349-2.541-9,.748-32.489,22.977-63.291,49.068-95.27,72.994-1.745.882-3.635-1.668-4.98-2.564-.874-.582-2.176-.617-2.499-.84-7.341-5.088-15.75-13.408-23.518-19.181-.928-.69-2.568-.786-3.482-1.771-.265-.233-.49-.511-.75-.748l-1.5-1.497c-.256-.245-.478-.509-.75-.748-1.059-.931-2.822-3.502-4.472-2.661-8.952,6.53-18.084,12.819-27.185,19.129-45.688,31.681-93.421,61.776-140.093,92.78-2.138,1.42-5.19,2.374-6.75,4.482,3.181.056,6.029-1.465,9-2.237,26.494-6.89,73.196-20.453,99.382-19.455.906.035,2.791-.562,2.612.739l-29.99,12.738c-.161,1.288,2.638.839,3.373.744,10.369-1.34,24.02-6.306,34.847-8.635,66.809-14.37,134.24-20.413,202.525-18.307,4.87.15,10.99.748,15.375.748h15c5.873,0,13.022,1.049,19.125,1.497,19.834,1.454,39.676,3.413,59.25,5.986,2.69.354,5.52,1.114,8.25,1.497,5.938.831,12.103,1.312,18,2.245,9.677,1.53,19.604,3.419,29.25,5.238,16.337,3.081,32.762,6.719,48.743,11.224.314-1.507-.702-1.759-1.709-2.403-7.282-4.656-14.385-8.046-21.534-13.31l17.25,2.245,7.5.748c-.032.334.006.641.378.741,6.005.24,11.788,1.85,17.622,3,22.412,4.418,44.937,8.9,66.75,15.714ZM373.989,6.259c-5.023-3.044-19.342-3.781-25.583-4.045-12.827-.544-41.41-1.232-52.909,1.898-7.537,2.052-6.829,4.178-10.794,9.074-1.795,2.217-4.197,2.786-6.094,4.759-6.723,6.996-10.306,19.21-17.237,26.199-2.345-5.582.446-12.797-7.678-14.034-8.992-1.369-39.524-.332-47.857,2.774-7.074,2.636-4.683,11.878-6.02,12.845-14.27,2.642-33.559,1.601-46.29,9.044-21.603,12.63-27.751,19.257-29.018,45.128-1.609,32.855.189,66.675.773,99.482.198,11.098-.214,22.232-.027,33.325l50.684-33.684,41.74,24.583,100.716-72.445,85.616,65.716,41.112-25.394,34.869,24.018-2.212-118.632c-1.253-12.894-1.475-25.932-12.847-34.324-2.987-2.204-12.249-4.976-13.497-6.738s-.763-7.198-2.012-9.965c-2.155-4.772-11.042-6.365-15.772-7.461-4.677-1.083-24.676-4.999-27.889-3.572-.665.295-1.465,1.255-1.828,1.914l-1.926,7.416c-2.095-5.042-4.61-10.013-7.381-14.714-5.681-9.637-6.965-10.054-14.865-16.971-1.525-1.335-3.81-5.007-5.775-6.198Z"/>
  <path class="cls-2" d="M441,203.53c-.023-1.707,4.417-4.025,5.547-3.705.474.134,5.883,5.995,7.203,6.698-2.038-1.451-6.582-5.042-8.694-5.263-1.35-.141-.908,1.238-1.991,1.761-.668.322-1.51.267-2.065.509.033,2.494,2.714,1.567,5.047,2.83,1.238.67,1.601,1.73,2.453,2.408-.901,3.176,3.482,10.71,2.895,12.944-.715,2.721-6.933,5.495-6.539,8.198.13.893,6.749,14.507,7.738,16.302.965,1.752,2.592,4.394,3.846,5.891,1.369,1.635,9.707,9.135,11.196,9.785.927.404,1.417-.201,1.107-1.104l-10.487-17.227c-.164-.506.62-.517,1.106-.359,2.668.868,12.275,7.664,14.983,9.749,10.998,8.467,20.963,19.362,32.285,27.651.932-.43.131-2.117-.207-2.787-3.001-5.962-9.435-12.022-12.167-18.54l1.124-.377c14.883,7.04,28.17,17.183,43.116,23.946l-21.761-25.072-1.863-4.1,108.379,71.082h-.75c-21.813-6.814-44.338-11.295-66.75-15.714.379-1.374,4.152.281,2.639-2.258-.967-1.624-14.376-11.851-16.967-13.752-7.283-5.342-13.937-9.854-22.806-12.408-.071,1.004,1.267,2.555,1.9,3.335,2.724,3.355,15.415,15.952,15.647,18.708.055.66-.885,1.701-.662,1.878l3.01.022c-.094.345-.75.62-.761.733l-7.5-.748,2.994-1.487c-8.154-5.91-16.439-10.444-25.737-14.358-4.281-1.802-10.876-4.798-15.181-5.814-3.159-.745,1.422,3.622,1.914,4.085,5.84,5.486,12.376,10.628,18.76,15.329,7.149,5.264,14.252,8.654,21.534,13.31,1.007.644,2.022.896,1.709,2.403-15.981-4.505-32.405-8.143-48.743-11.224l-8.24-8.616c-10.114-8.41-19.64-17.561-30.824-24.619-2.441-1.541-10.88-6.73-13.111-7.125-.553-.098-1.774-.369-1.822.324,7.884,11.429,17.016,22.065,25.114,33.309.796,1.105,2.292,1.602-.368,1.489-5.897-.932-12.062-1.414-18-2.245l-9.75-3.741c-.227-.253-.5-.515-.75-.748-.705-.657-1.409-1.46-2.25-2.245-.133-.124-.599.122-.75,0-.249-.202-.538-.503-.75-.748-.222-.256-.582-.431-.75-.748-.145-.274.115-1.052-.014-1.509-.426.011-.684.771-.736.761-1.985-.385-15.072-15.586-17.25-17.959-9.524-10.377-23.018-24.057-30.792-35.512-.796-1.173-.475-2.758-.87-3.238-.266-.324-4.43-3.903-5.838-5.398l45.38,36.66-28.871-39.292,1.102-1.099,80.632,54.61c-.517-1.56-2.55-3.634-3.706-4.874-5.327-5.709-11.762-10.48-17.307-15.68-12.361-11.593-24.661-23.296-36.713-35.212-.351-1.454.407-.922.928-1.294,7.268-5.185,16.689-11.669,24.324-16.122,2.172-1.267,3.586-1.566,5.481-2.39Z"/>
  <path class="cls-3" d="M373.989,6.259c1.966,1.191,4.25,4.863,5.775,6.198,7.9,6.917,9.184,7.334,14.865,16.971,2.771,4.701,5.286,9.672,7.381,14.714l1.926-7.416c.363-.659,1.163-1.619,1.828-1.914,3.213-1.427,23.212,2.489,27.889,3.572,4.73,1.096,13.617,2.689,15.772,7.461,1.249,2.766.763,8.2,2.012,9.965s10.51,4.534,13.497,6.738c11.372,8.392,11.595,21.43,12.847,34.324l2.212,118.632-34.869-24.018-41.112,25.394-85.616-65.716-100.716,72.445-41.74-24.583-50.684,33.684c-.187-11.093.225-22.227.027-33.325-.584-32.807-2.382-66.626-.773-99.482,1.267-25.871,7.414-32.498,29.018-45.128,12.731-7.443,32.02-6.402,46.29-9.044,1.337-.967-1.054-10.209,6.02-12.845,8.333-3.105,38.866-4.142,47.857-2.774,8.124,1.237,5.334,8.452,7.678,14.034,6.932-6.989,10.514-19.203,17.237-26.199,1.897-1.974,4.299-2.543,6.094-4.759,3.965-4.897,3.257-7.022,10.794-9.074,11.499-3.13,40.082-2.442,52.909-1.898,6.241.265,20.56,1.002,25.583,4.045ZM378,41.155c1.438,2.596,4.746,8.124,6.379,10.472.253.363.635.823,1.113.752,1.089-1.488-8.31-29.351-9.921-33.12-2.352-5.504-3.23-7.063-9.28-8.7-13.764-3.726-52.382-3.619-66.461-.625-8.919,1.897-8.671,5.38-11.642,13.078-2.867,7.428-8.871,23.927-9.948,31.234-.245,1.66.324,1.33,1.103.348,2.567-3.236,6.816-9.777,8.656-13.439l28.089-2.28c20.706-.327,41.327.387,61.911,2.28ZM248.249,35.177c-8.705-1.221-18.597-1.074-27.369-.003-.784.096-12.781,1.514-10.127,3.732,9.809-.368,20.653-.215,30.364-1.5,2.054-.272,6.092-.392,7.131-2.23ZM426,42.651c-3.548-.713-7.098-2.155-10.809-2.295-1.576.222-.247,7.05-.441,8.281.384.385,9.26.398,10.5.748,2.629.743,4.917,2.351,9,2.993,1.49.234,4.666,1.716,4.512-.372-.08-1.077-.803-5.807-1.128-6.368-.825-1.42-3.003-1.11-4.134-1.491-3.35-1.128-4.571-.908-7.5-1.497ZM266.25,55.372c.881-2.088,3.072-4.648,2.637-6.723l-52.884,5.234,7.685,3.735c.526.39.977.942,1.311,1.495,2.96,4.901,3.131,13.14,3.008,18.707,5.848-5.11,15.097-4.971,19.368,1.995,1.823,2.974,1.679,11.386,5.531,6.018,5.002-6.97,9.794-22.052,13.343-30.461ZM401.25,58.365c.433,1.057.476,2.901,1.137,4.478,4.065,9.697,8.526,19.29,12.558,28.999,10.376,2.554,21.115,2.207,31.668,3.2,5.453.513,11.303,2.371,16.887,2.233.751-.019,1.504.033,2.251.004,1.042-22.639-.115-30.569-22.339-37.205-10.842-3.237-33.295-8.865-44.11-9.876-1.11-.104-2.055-.602-1.725.97s1.695,4.208,2.363,5.913c.31.79,1.263,1.167,1.311,1.284ZM156.75,65.1l-2.309-1.205c-3.013,3.237-9.509,4.043-8.936,9.74.858,8.533,22.013,8.089,28.18,7.958.97-.021,1.706-.774,1.815-.779,11.265-.427,19.766.144,30.245-5.368,8.613-4.531,17.919-16.308,3.92-20.861-6.446-2.096-20.745-2.061-27.698-1.366-6.075.607-23.167,5.779-25.216,11.881ZM243.75,151.151c.326,4.498,1.543,9.226,3,13.469,1.144,3.332,2.747,6.689,4.5,9.728.844,1.462,1.336,3.283,2.831,4.496.755.613,4.303,2.903,3.931.366-.24-1.636-2.989-7.279-3.84-9.495-2.458-6.398-2.868-9.747-4.422-16.319-1.548-20.746,3.152-40.568,15.869-57.124,26.825-34.92,75.902-45.81,113.676-20.119,14.66,9.971,28.743,27.168,34.167,44.48,5.804,18.528,4.644,38.517-1.713,56.707-2.909,6.151-6.463,13.221-10.5,18.707-.419.57-6.768,6.495-3.368,6,4.013-.584,5.181-3.952,7.118-6,4.039-4.27,5.383-5.927,8.25-11.224,2.171-2.134,4.176-6.18,5.25-8.979,1.959-5.109,4.119-13.308,4.5-18.707,2.448-11.015,2.169-23.428-.367-34.428-14.262-61.864-89.644-88.277-142.066-53.428-25.914,17.228-43.449,50.595-36.816,81.869ZM404.25,156.389c12.365-61.063-54.494-106.372-108.229-75.43-32.588,18.765-44.191,59.759-25.262,92.634,1.853-.998-.991-4.775-1.528-6.337-10.105-29.408-3.927-60.899,22.72-79.134,52.112-35.661,119.415,4.561,110.048,67.518-.375,2.521-.737,5.858-1.5,8.231-1.124,3.497-4.72,10.552-6.621,13.971-2.519,4.53-6.039,8.565-8.761,12.951,6.994-5.454,12.682-13.966,15.963-22.228.718-1.809.524-3.469.919-4.695.989-3.066,1.49-3.728,2.25-7.483ZM242.04,90.331c6.79-6.774-5.276-16.32-10.633-7.992-4.987,7.753,5.725,12.888,10.633,7.992ZM336.75,92.037c7.713-3.599,15.535-2.717,23.602-2.215.811.05,2.845.479,2.643-.769-44.969-24.635-103.521,16.078-87.736,67.331l6.6-18.47c1.865-3.438,3.939-6.739,6.142-9.96,6.243,5.515,14.618,11.456,23.43,10.28,7.326-.978,17.32-9.162,22.713-14.004,2.289-2.056,4.341-4.443,6.358-6.752.639,2.722,5.734,6.968,8.671,7.432,15.64,2.472,19.269-16.522,8.786-21.482-.849-.402-6.27-1.683-6.957-1.664l1.504-11.227-15.754,1.499ZM238.5,98.779c-4.474.581-11.699-4.179-13.003-8.359l-1.237-5.86c-1.34,2.067-5.109,17.936-4.473,18.662,1.7,1.939,14.309-1.747,16.863-2.929.743-.344,1.761-.434,1.851-1.513ZM162,88.296h-1.5c-2.743,0-5.507,0-8.25,0-.097-.014-.666-.657-1.796-.793-3.819-.459-8.515.421-12.451.048-2.176,1.856,11.012,7.158,11.996,7.479,15.291,4.975,38.185,4.018,52.252-4.363.986-.587,6.619-3.932,5.491-5.364l-25.875,2.985c-6.621.021-13.254.008-19.867.008ZM368.252,178.846c4.473,3.166,10.344,6.986,13.994.86,3.897-6.542,8.319-14.549,10.215-21.984,6.338-24.852-2.599-52.637-25.345-65.669l12.302,14.079c10.535,17.258,11.707,40.439,1.71,58.242-2.757,4.909-7.575,12.488-12.877,14.472ZM466.5,105.506c-10.092-1.358-20.249-3.485-30.39-4.485-1.327-.131-1.955-.498-1.886,1.13.06,1.395,8.123,19.923,9.064,20.536,6.058,3.949-.613-12.887-.036-13.436,5.787.11,11.526.076,17.247-.755.698,12.834,1.189,25.716,2.257,38.532.221,2.654,1.108,5.652,1.368,8.35.49,5.095.266,10.45.874,15.615.162,1.381-.229,1.201,1.502,1.108v-66.596ZM164.25,107.003c-.069,0-.404-.508-.964-.496-5.905.124-11.862,1.369-17.789,1.241l1.886,96.538c2.417-1.581,4.983-2.996,7.353-4.636,3.166-2.191,10.097-8.742,12.551-9.926,3.484-1.68,9.535-1.144,12.952-1.921.569-.129.456-1.328,1.026-1.468,2.645-.652,8.95,2.315,9.88-.495l.851-75.838c-7.204-1.108-13.709-2.454-20.995-2.998-2.879-.215-4.136-.026-6.75,0ZM431.25,130.199l-.004,8.983,3.754-.004c1.203.76,2.482,2.445,3,3.741.007,5.516.269,11.029-.75,16.462-2.42,6.552-8.658,9.446-7.879,17.206,4.293-6.975,12.546-13.194,13.129-21.696,1.171-3.468,1.029-8.898.75-12.721-.633-8.671-1.883-17.305-11.991-18.71-.016,1.667-.89,3.23-.833,4.915.04,1.207.787,1.64.825,1.822ZM342.569,134.505c3.961-3.978-2.756-9.456-5.889-5.501-3.398,4.289,2.84,8.563,5.889,5.501ZM232.5,160.13c.224,2.79.985,7.768,1.5,10.476,1.196,6.285,2.699,11,6,16.462.755,1.249,4.89,8.593,6.746,6.731.931-.934-4.602-10.511-5.287-12.319-.467-1.233-.409-2.543-.709-3.391-2.37-6.706-4.707-13.966-6-20.952-.124-.669.083-1.526,0-2.245l-2.242-13.465c.341,6.093-.491,12.679-.008,18.703ZM377.246,145.917c-1.995-.411-1.29.505-1.861,1.473-4.322,7.325-6.586,12.251-13.125,18.361-1.196,1.118-7.772,4.869-6.755,6.338.183.264,5.363,2.97,5.681,3.015,3.938.555,3.381-2.286,4.805-3.934,1.293-1.498,2.354-1.903,3.624-4.069,3.525-6.009,6.4-14.364,7.632-21.184Z"/>
  <path class="cls-2" d="M312.75,164.62c1.592.121-.951,1.818-1.07,1.908-2.754,2.089-5.859,3.926-8.593,6.038-.904.699-1.875,1.106-1.584,2.526,3.649.62,9.246-3.903,12.308-1.577.973.739-.265,2.528,1.18,2.325l1.508-4.485c-.515,4.07-1.012,11.567-2.443,15.147-1.009,2.524-7.391,7.524-7.908,10.096l2.133,19.153c-.322,1.276-6.125,2.364-7.531,3.051-10.266,5.012-17.252,23.174-23.128,33.074-.434.732-.551,1.237-1.615,1.052-.203,1.237.879.742,1.554.431,2.246-1.034,5.963-5.233,8.189-7.177.643,1.992,4.364-2.547,4.5-3.741.261-.234.491-.509.75-.748,1.36-.295,3.592-1.739,4.483-2.67.719-.751.68-1.732.767-1.819.487-.489,1.035-1.011,1.5-1.497,2.348-.27,3.563-2.704,5.237-4.119l-.737-.371c2.155-2.106,3.964-4.522,6.742-5.986l1.129,11.22c2.456-2.294,4.688-4.834,7.112-7.157.823-.789,2.116-.924,2.267-1.07.083-.08-.093-.851.274-1.208,1.39-1.35,2.702-2.835,4.226-4.03-.828.975-2.137,3.601-2.994,4.712-.536.695-1.463.459-1.506.526-.902,1.397.666,1.394,1.507,1.855l-15.73,23.956c3.754,7.658,9.528,14.087,14.208,20.963-5.968-1.423-9.689-6.563-15.764-7.538-1.091,2.522-9.98,19.663-8.968,20.622,8.609.257,17.297-.334,25.906.004,1.441.057,3.009-.77,2.591,1.497-68.285-2.106-135.717,3.937-202.525,18.307-10.828,2.329-24.479,7.295-34.847,8.635-.735.095-3.534.544-3.373-.744l29.99-12.738c.179-1.301-1.706-.705-2.612-.739-26.186-.998-72.889,12.566-99.382,19.455-1.081-.9-2.741-.45-2.25-2.245,46.672-31.004,94.405-61.099,140.093-92.78,9.101-6.311,18.233-12.599,27.185-19.129,1.65-.84,3.413,1.73,4.472,2.661-2.19.879-2.068-1.669-3.351-1.581-.603.041-3.994,1.421-4.143,1.595-1.62,1.901,2.507,1.319,2.891,1.58.206.14,1.748,3.787,2.353,4.392-.199,2.635-1.374,5.05-2.25,7.483l-16.134,14.208c-2.65,3.615-5.03,8.377-7.116,11.233-.965,1.321-2.132,1.666-2.895,2.727-7.954,11.061-14.804,23.01-23.352,33.568.117.661,1.68.435,2.246.37.911-.105,1.621-.35,2.437-.757,3.876-1.934,8.625-6.401,12.39-8.931,5.632-3.785,9.785-6.334,15.172-10.515.967-.751,9.096-7.428,9.746-6.731l-4.879,14.198c3.444-1.369,12.012-11.106,14.422-11.82,3.013-.891,6.838,1.488,9.629,1.397,2.474-.08,10.19-7.695,12.703-9.769,1.679-1.385,2.753-2.123,4.554-3.719,1.2-1.063,4.502-1.045,2.977-4.48-.178-.402-3.358-3.636-4.152-4.519,1.154-.319,2.866,1.037,3.007-1.106.231-3.494-1.124-3.712,3.365-3.38l.378-1.5c-8.922-6.989-18.548-13.528-27-20.952.914.985,2.553,1.081,3.482,1.771,7.768,5.773,16.177,14.094,23.518,19.181.323.224,1.625.258,2.499.84,1.345.896,3.236,3.446,4.98,2.564,31.979-23.926,62.782-50.017,95.27-72.994ZM218.255,269.375c1.841,1.904,14.525-12.199,16.486-13.849,12.26-10.31,29.417-11.6,39.181-25.261l10.32-18.504c-5.501,4.246-9.751,10.104-14.958,14.626-5.581,4.847-13.988,10.501-21.047,13.421-3.34,1.381-12.684,3.315-14.635,4.854-1.72,1.357-10.926,15.863-12.664,18.793-.595,1.003-3.424,5.154-2.684,5.919ZM132.746,253.668c-5.887.523-7.874,5.685-11.217,8.63-1.488,1.311-3.421,2.089-4.887,3.355-2.694,2.326-6.102,7.121-9.826,7.499-1.588.161-.527-1.927-2.177-1.522-6.397,3.818-11.15,9.848-18.039,12.688l-8.595,6.004c11.499-3.897,23.376-8.835,33.537-15.541,3.586-2.367,6.502-5.612,10.37-7.612l10.835-13.501Z"/>
  <path class="cls-6" d="M326.25,220.74l37.135,32.169,1.104-1.102c-9.816-15.771-21.137-30.76-27.732-48.278l32.625,35.902c-.334-4.99-2.66-9.503-4.129-14.198.627-.669,3.925,2.383,4.496,2.989,1.409,1.495,5.572,5.073,5.838,5.398.395.481.074,2.065.87,3.238,7.774,11.455,21.267,25.136,30.792,35.512-1.31.515-1.951.57-3.234-.075-3.289-1.653-7.462-5.491-11.265-7.534-5.797-3.113-12.808-5.969-19.247-7.353-1.206,1.125,7.283,10.636,8.632,11.214,2.892,1.238-1.203-3.934-.768-4.468,5.919,4.959,9.838,11.646,14.654,17.548,1.647,2.018,9.201,9.34,9.722,10.507.937,2.099-6.24-.326-6.897-.606-8.45-3.599-21.416-20.552-28.702-27.484-6.864-6.531-15.522-14.157-25.141-15.69l27.746,43.396c-6.103-.447-13.252-1.497-19.125-1.497h-15c-4.385,0-10.505-.598-15.375-.748.418-2.267-1.15-1.44-2.591-1.497-8.609-.338-17.297.253-25.906-.004-1.012-.958,7.876-18.1,8.968-20.622,6.075.975,9.796,6.115,15.764,7.538-4.68-6.876-10.454-13.305-14.208-20.963l15.73-23.956c-.84-.461-2.409-.458-1.507-1.855.043-.067.971.169,1.506-.526.857-1.111,2.166-3.736,2.994-4.712.229-.269.542-.487.75-.748,1.594.18,1.68.094,1.5-1.497Z"/>
  <path class="cls-1" d="M372.75,291.826l-27.746-43.396c9.619,1.533,18.277,9.159,25.141,15.69,7.286,6.933,20.252,23.885,28.702,27.484.656.279,7.834,2.705,6.897.606-.521-1.167-8.076-8.489-9.722-10.507-4.816-5.903-8.735-12.59-14.654-17.548-.435.534,3.66,5.707.768,4.468-1.348-.577-9.837-10.089-8.632-11.214,6.44,1.383,13.451,4.24,19.247,7.353,3.804,2.043,7.977,5.881,11.265,7.534,1.283.645,1.924.59,3.234.075,2.178,2.373,15.265,17.574,17.25,17.959l.75.748c.168.317.528.492.75.748l.75.748c.151.122.617-.124.75,0l2.25,2.245c.25.233.523.495.75.748.613.684,1.899.742,1.5,2.245-19.574-2.573-39.416-4.532-59.25-5.986Z"/>
  <path class="cls-6" d="M458.25,301.554c2.66.113,1.164-.384.368-1.489-8.098-11.244-17.23-21.88-25.114-33.309.048-.694,1.27-.422,1.822-.324,2.231.395,10.67,5.585,13.111,7.125,11.184,7.059,20.71,16.209,30.824,24.619l8.24,8.616c-9.646-1.819-19.573-3.708-29.25-5.238Z"/>
  <path class="cls-6" d="M321.75,163.872c1.366,1.482,2.528,3.254,3.798,4.83l7.452,4.898c8.275,7.497,17.258,15.174,25.155,23.166,2.092,2.117,8.857,8.95,10.129,10.846.462.688,1.374,2.102.345,2.649-13.965-11.017-28.121-21.798-42-32.924-.817-.655-1.13-1.936-1.927-2.567-.792-.628-7.803-5.248-8.201-4.912.168-.168-.115-.766-.375-.748-.819.055.022,1.101.375.748-.036.489.062,1.011,0,1.497l-1.508,4.485c-1.445.203-.207-1.586-1.18-2.325-3.062-2.325-8.659,2.197-12.308,1.577-.291-1.419.68-1.827,1.584-2.526,2.733-2.112,5.838-3.949,8.593-6.038.119-.09,2.661-1.787,1.07-1.908,4.651-3.29,3.907-6.274,9-.748Z"/>
  <path class="cls-6" d="M537.75,305.295c.011-.113.666-.389.761-.733l-3.01-.022c-.223-.177.718-1.218.662-1.878-.232-2.756-12.922-15.353-15.647-18.708-.633-.78-1.971-2.331-1.9-3.335,8.869,2.554,15.523,7.065,22.806,12.408,2.592,1.901,16,12.128,16.967,13.752,1.513,2.539-2.26.884-2.639,2.258-5.834-1.15-11.617-2.761-17.622-3-.373-.101-.411-.408-.378-.741Z"/>
  <path class="cls-6" d="M513,302.302c-6.384-4.701-12.92-9.844-18.76-15.329-.492-.462-5.073-4.83-1.914-4.085,4.305,1.015,10.9,4.012,15.181,5.814,9.299,3.915,17.584,8.448,25.737,14.358l-2.994,1.487-17.25-2.245Z"/>
  <path class="cls-6" d="M177.75,216.251c-.605-.604-2.146-4.252-2.353-4.392-.385-.261-4.511.321-2.891-1.58.148-.174,3.539-1.554,4.143-1.595,1.283-.088,1.161,2.46,3.351,1.581.272.239.494.503.75.748.515.493.94.986,1.5,1.497.26.237.485.516.75.748,8.452,7.423,18.078,13.962,27,20.952l-.378,1.5c-4.489-.332-3.135-.114-3.365,3.38-.141,2.142-1.853.787-3.007,1.106-.234-.26-.509-.491-.75-.748-.504-1.286-.595-2.575-2.25-2.245-.494-.491-1.009-1.018-1.5-1.497-.233-2.01-3.607-3.632-5.25-5.238-.253-.247-.499-.5-.75-.748-2.057-2.036-4.189-4.273-6-5.986-2.56-2.422-7.011-5.495-9-7.483Z"/>
  <path class="cls-6" d="M453.75,206.523c12,8.544,23.037,19.824,33.75,29.931l-.46.584-2.54-.584c-12.773-9.047-23.824-18.002-36-27.686-.852-.678-1.216-1.737-2.453-2.408-2.333-1.263-5.014-.337-5.047-2.83.555-.241,1.398-.186,2.065-.509,1.083-.523.64-1.903,1.991-1.761,2.112.221,6.656,3.812,8.694,5.263Z"/>
  <path class="cls-2" d="M487.5,236.454c1.823,1.72,3.945,3.318,5.791,5.023.452.418,2.201.485.577,1.719-3.643-1.337-6.419-4.653-9.367-6.742l2.54.584.46-.584Z"/>
  <path class="cls-3" d="M8.25,319.512c-.491,1.795,1.169,1.345,2.25,2.245-2.971.773-5.819,2.294-9,2.237,1.559-2.108,4.612-3.062,6.75-4.482Z"/>
  <path class="cls-3" d="M430.5,295.567l9.75,3.741c-2.73-.382-5.56-1.143-8.25-1.497.399-1.502-.887-1.561-1.5-2.245Z"/>
  <path class="cls-3" d="M296.25,237.202c-.087.087-.048,1.068-.767,1.819-.891.931-3.123,2.376-4.483,2.67,1.714-1.582,3.112-4.141,5.25-4.49Z"/>
  <path class="cls-3" d="M290.25,242.44c-.136,1.194-3.857,5.734-4.5,3.741,1.507-1.316,3.012-2.409,4.5-3.741Z"/>
  <path class="cls-2" d="M321.75,163.872c3.831,3.13,7.586,6.407,11.25,9.728l-7.452-4.898c-1.27-1.576-2.432-3.348-3.798-4.83Z"/>
  <path class="cls-2" d="M326.25,220.74c.18,1.59.094,1.676-1.5,1.497.434-.547.564-1.353,1.5-1.497Z"/>
  <path class="cls-3" d="M297.75,235.706c1.414-1.477,3.03-3.054,4.5-4.49l.737.371c-1.673,1.415-2.889,3.849-5.237,4.119Z"/>
  <path class="cls-2" d="M182.25,212.509c-.56-.511-.985-1.004-1.5-1.497l1.5,1.497Z"/>
  <path class="cls-4" d="M164.25,107.003c.455,22.556,1.157,45.135,2.319,67.652l1.056,2.693,3.375-70.345c7.286.545,13.791,1.89,20.995,2.998l-.851,75.838c-.93,2.81-7.235-.157-9.88.495-.57.14-.457,1.339-1.026,1.468-3.417.777-9.468.241-12.952,1.921-2.454,1.184-9.385,7.735-12.551,9.926-2.37,1.64-4.936,3.055-7.353,4.636l-1.886-96.538c5.927.128,11.884-1.117,17.789-1.241.561-.012.895.497.964.496Z"/>
  <path class="cls-5" d="M243.75,151.151c-6.632-31.275,10.902-64.642,36.816-81.869,52.422-34.85,127.804-8.436,142.066,53.428,2.536,11,2.815,23.413.367,34.428.252-3.569-.156-7.254-.008-10.842l-1.483-7.859c-.486,1.132-.433,2.057-.536,3.176-.949,10.319-4.335,25.393-9.224,35.729,6.357-18.19,7.517-38.179,1.713-56.707-5.424-17.312-19.506-34.51-34.167-44.48-37.775-25.691-86.852-14.801-113.676,20.119-12.717,16.555-17.418,36.377-15.869,57.124-1.345-5.685-3.598-11.277-3.753-17.213-2.005-.191-1.207-.013-1.482,1.123-.974,4.02-1.065,9.699-.765,13.845Z"/>
  <path class="cls-4" d="M336.75,92.037l15.754-1.499-1.504,11.227c-.791.022-7.363,3.186-7.848,3.768-2.017,2.422-3.369,8.892-2.652,11.945-2.017,2.309-4.068,4.696-6.358,6.752-5.392,4.842-15.387,13.026-22.713,14.004-8.811,1.176-17.187-4.765-23.43-10.28,1.628-2.381,4.1-5.17,6-7.483,1.866.364,2.49-2.213,3-3.741,2.303-2.598,4.044-4.489,6.75-6.734l1.498-.008-.748-.741c5.18-4.095,15.08-10.674,21-12.721,3.103-1.073,7.114-2.933,9.75-3.741.559-.171,1.107-.259,1.5-.748Z"/>
  <path class="cls-4" d="M401.25,58.365c2.988-1.336,4.736,1.414,5.015,1.48,1.683.397,3.986-.242,5.856.023,11.316,1.606,24.205,4.115,34.879,8.224l-.749.74c2.302.248,5.527,1.76,7.499,3.001,2.94,1.85,5.487,5.958,6.779,9.324,1.844,4.802,1.865,11.034,2.971,16.117-5.584.138-11.434-1.72-16.887-2.233-10.553-.992-21.291-.645-31.668-3.2-4.033-9.709-8.493-19.302-12.558-28.999-.661-1.577-.704-3.421-1.137-4.478Z"/>
  <path class="cls-5" d="M288,127.954c-2.203,3.221-4.277,6.523-6.142,9.96l-6.6,18.47c-15.785-51.252,42.767-91.966,87.736-67.331.202,1.247-1.831.819-2.643.769-8.067-.502-15.889-1.385-23.602,2.215-.393.49-.941.577-1.5.748-3.211.139-7.662,1.444-9.75,3.741-5.92,2.047-15.82,8.626-21,12.721-.275.217-.482.526-.75.748-2.706,2.246-4.447,4.137-6.75,6.734-1.151,1.298-2.13,2.683-3,3.741-1.9,2.313-4.372,5.102-6,7.483Z"/>
  <path class="cls-5" d="M288,41.155c-1.84,3.662-6.089,10.203-8.656,13.439-.779.982-1.347,1.311-1.103-.348,1.077-7.307,7.082-23.805,9.948-31.234,2.971-7.699,2.723-11.181,11.642-13.078,14.079-2.994,52.697-3.101,66.461.625,6.05,1.638,6.927,3.196,9.28,8.7,1.611,3.769,11.01,31.632,9.921,33.12-.478.071-.861-.389-1.113-.752-1.633-2.348-4.942-7.876-6.379-10.472-1.907-3.444-5.512-14.24-8.291-16.047-2.597-1.689-14.129-2.638-17.61-2.665-3.099-.024-3.071-.584-6.35-.743-5.947-.288-12.771-.187-18.75,0-5.827.182-27.41,1.034-31.463,3.404-1.504.879-2.829,4.385-3.681,6.055-1.503,2.95-2.55,7.396-3.856,9.996Z"/>
  <path class="cls-4" d="M327,21.7c4.365,1.327,9.984.81,14.636.761,1.268-.013,3.335.478,4.114-.761,3.278.159,3.251.719,6.35.743,3.48.027,15.013.976,17.61,2.665,2.779,1.807,6.384,12.604,8.291,16.047-20.584-1.894-41.204-2.607-61.911-2.28l-28.089,2.28c1.306-2.599,2.353-7.046,3.856-9.996.851-1.67,2.177-5.176,3.681-6.055,4.053-2.37,25.636-3.222,31.463-3.404Z"/>
  <path class="cls-5" d="M404.25,156.389l-2.25-.748c9.366-62.957-57.936-103.178-110.048-67.518-26.647,18.235-32.825,49.726-22.72,79.134.537,1.562,3.38,5.338,1.528,6.337-18.929-32.875-7.326-73.869,25.262-92.634,53.735-30.943,120.594,14.367,108.229,75.43Z"/>
  <path class="cls-5" d="M175.5,80.813c-5.424-2.322-15.308-2.524-18.046-8.555-.984-2.167-1.463-4.9-.704-7.159,2.05-6.103,19.142-11.274,25.216-11.881,6.953-.695,21.253-.73,27.698,1.366,14,4.553,4.693,16.33-3.92,20.861-10.478,5.512-18.98,4.941-30.245,5.368ZM183.595,56.342c-5.333.516-19.61,4.451-17.546,11.766,3,10.63,33.181,9.213,37.379-.954,4.035-9.773-13.569-11.419-19.833-10.813Z"/>
  <path class="cls-4" d="M266.25,55.372c-3.549,8.409-8.341,23.491-13.343,30.461-3.852,5.368-3.708-3.044-5.531-6.018-4.271-6.966-13.52-7.105-19.368-1.995.123-5.566-.048-13.806-3.008-18.707,2,.907,2.322-1.457,2.753-1.522,1.88-.284,5.289,1.217,8.174.831,1.469-.197.768-1.595,2.169-1.638,2.139-.066,4.305,1.182,6.798.891,1.706-.199,2.61-1.394,3.79-1.559,2.073-.291,5.306,1.212,8.242.809,1.39-.191.986-1.398,1.589-1.537,2.149-.497,5.393.301,7.735-.017Z"/>
  <path class="cls-4" d="M368.252,178.846c5.301-1.985,10.12-9.563,12.877-14.472,9.997-17.803,8.825-40.984-1.71-58.242l-12.302-14.079c22.746,13.032,31.683,40.817,25.345,65.669-1.896,7.435-6.318,15.442-10.215,21.984-3.65,6.126-9.521,2.306-13.994-.86Z"/>
  <path class="cls-5" d="M401.25,58.365c-.048-.117-1.001-.494-1.311-1.284-.668-1.704-2.034-4.347-2.363-5.913s.615-1.074,1.725-.97c10.815,1.011,33.268,6.638,44.11,9.876,22.225,6.637,23.381,14.566,22.339,37.205-.747.029-1.501-.023-2.251-.004-1.105-5.083-1.127-11.315-2.971-16.117-1.293-3.366-3.839-7.474-6.779-9.324-1.774-2.092-4.333-2.811-6.75-3.741-10.675-4.109-23.564-6.618-34.879-8.224-1.87-.265-4.173.374-5.856-.023-.279-.066-2.027-2.816-5.015-1.48Z"/>
  <path class="cls-4" d="M466.5,105.506v66.596c-1.731.093-1.34.272-1.502-1.108-.608-5.165-.383-10.52-.874-15.615-.26-2.698-1.146-5.697-1.368-8.35-1.069-12.817-1.559-25.698-2.257-38.532-5.721.831-11.459.865-17.247.755-.577.548,6.094,17.385.036,13.436-.941-.614-9.004-19.141-9.064-20.536-.07-1.628.558-1.261,1.886-1.13,10.141,1,20.297,3.127,30.39,4.485Z"/>
  <path class="cls-5" d="M340.5,117.479c-.717-3.053.635-9.523,2.652-11.945.485-.583,7.057-3.746,7.848-3.768.687-.019,6.108,1.262,6.957,1.664,10.483,4.96,6.854,23.954-8.786,21.482-2.937-.464-8.032-4.71-8.671-7.432Z"/>
  <path class="cls-5" d="M150,95.031c1.698-1.71,10.026,1.598,11.155.699.799-.636,2.015-6.101.845-7.433,6.613,0,13.246.013,19.867-.008l25.875-2.985c1.128,1.432-4.505,4.777-5.491,5.364-14.067,8.381-36.961,9.338-52.252,4.363ZM164.625,89.793v.748c.487-.249.487-.499,0-.748Z"/>
  <path class="cls-5" d="M171,107.003l-3.375,70.345-1.056-2.693c-1.162-22.518-1.864-45.096-2.319-67.652,2.614-.026,3.871-.215,6.75,0Z"/>
  <path class="cls-4" d="M443.25,142.172c-1.589,3.659-.469,8.614-.75,12.721-.583,8.502-8.836,14.721-13.129,21.696-.779-7.76,5.458-10.654,7.879-17.206,1.702-4.607,2.567-11.913.75-16.462-.518-1.297-1.797-2.981-3-3.741-1.281-.81-2.838-.688-2.949-.791-.384-.355.154-5.095-.006-6.398-.14-1.143-.759-1.624-.794-1.79-.038-.182-.784-.615-.825-1.822-.056-1.685.817-3.248.833-4.915,10.108,1.405,11.358,10.038,11.991,18.71Z"/>
  <path class="cls-5" d="M266.25,55.372c-2.342.317-5.586-.481-7.735.017-.602.139-.199,1.346-1.589,1.537-2.936.403-6.169-1.101-8.242-.809-1.18.166-2.084,1.361-3.79,1.559-2.493.29-4.66-.957-6.798-.891-1.402.043-.7,1.441-2.169,1.638-2.885.386-6.293-1.114-8.174-.831-.431.065-.753,2.428-2.753,1.522-.334-.553-.785-1.105-1.311-1.495l-7.685-3.735,52.884-5.234c.435,2.075-1.756,4.635-2.637,6.723Z"/>
  <path class="cls-4" d="M423,157.137c-.381,5.399-2.541,13.598-4.5,18.707-2.047-.455-1.383,1.101-1.887,2.195-1.049,2.28-2.173,4.585-3.363,6.784-2.867,5.297-4.211,6.954-8.25,11.224-2.16.814-2.614,2.536-3.75,0,4.037-5.486,7.591-12.556,10.5-18.707,4.889-10.336,8.275-25.41,9.224-35.729.103-1.119.049-2.044.536-3.176l1.483,7.859c-.148,3.588.26,7.273.008,10.842Z"/>
  <path class="cls-4" d="M175.5,80.813c-.11.004-.846.758-1.815.779-6.167.132-27.322.575-28.18-7.958-.573-5.697,5.923-6.502,8.936-9.74l2.309,1.205c-.759,2.259-.28,4.991.704,7.159,2.737,6.031,12.622,6.233,18.046,8.555Z"/>
  <path class="cls-4" d="M243.75,151.151c-.3-4.146-.21-9.825.765-13.845.275-1.136-.523-1.314,1.482-1.123.156,5.936,2.409,11.527,3.753,17.213,1.554,6.572,1.964,9.92,4.422,16.319.851,2.216,3.6,7.859,3.84,9.495.371,2.537-3.176.247-3.931-.366-1.494-1.213-1.987-3.034-2.831-4.496l-.632-2.737-3.868-6.99c-1.457-4.243-2.674-8.97-3-13.469Z"/>
  <path class="cls-4" d="M377.246,145.917c-1.231,6.82-4.106,15.175-7.632,21.184-1.27,2.165-2.331,2.571-3.624,4.069-1.424,1.648-.867,4.489-4.805,3.934-.319-.045-5.498-2.751-5.681-3.015-1.017-1.469,5.558-5.22,6.755-6.338,6.539-6.11,8.804-11.036,13.125-18.361.571-.968-.133-1.885,1.861-1.473Z"/>
  <path class="cls-4" d="M238.5,98.779c-.09,1.08-1.108,1.17-1.851,1.513-2.554,1.183-15.163,4.869-16.863,2.929-.636-.725,3.132-16.595,4.473-18.662l1.237,5.86c1.304,4.18,8.529,8.941,13.003,8.359Z"/>
  <path class="cls-5" d="M242.04,90.331c-4.908,4.896-15.62-.239-10.633-7.992,5.357-8.329,17.424,1.218,10.633,7.992Z"/>
  <path class="cls-4" d="M152.25,88.296c.26.036,1.093.664,2.542.795,1.597.144,4.689.366,5.708-.795h1.5c1.17,1.332-.046,6.797-.845,7.433-1.129.899-9.457-2.409-11.155-.699-.985-.32-14.172-5.623-11.996-7.479,3.936.372,8.632-.507,12.451-.048,1.13.136,1.698.779,1.796.793Z"/>
  <path class="cls-5" d="M248.249,35.177c-1.039,1.838-5.077,1.958-7.131,2.23-9.711,1.285-20.555,1.132-30.364,1.5-2.654-2.218,9.343-3.636,10.127-3.732,8.772-1.071,18.664-1.219,27.369.003Z"/>
  <path class="cls-4" d="M232.5,160.13c2.688-.25,1.871-.194,2.364,1.724,1.277,4.968,2.638,9.033,4.157,13.88.352,1.125-.282,2.624,1.729,2.354.3.848.242,2.158.709,3.391.685,1.808,6.218,11.385,5.287,12.319-1.856,1.862-5.991-5.481-6.746-6.731l-4.289-14.092-1.711-2.37c-.515-2.708-1.276-7.686-1.5-10.476Z"/>
  <path class="cls-4" d="M426,42.651c-.286,2.111.807,5.203-.75,6.734-1.24-.351-10.116-.363-10.5-.748.194-1.232-1.135-8.059.441-8.281,3.711.14,7.261,1.583,10.809,2.295Z"/>
  <path class="cls-5" d="M433.5,44.148l.75,8.231c-4.083-.642-6.371-2.25-9-2.993,1.557-1.531.464-4.623.75-6.734,2.929.588,4.15.368,7.5,1.497Z"/>
  <path class="cls-5" d="M402,163.872c-.396,1.226-.201,2.886-.919,4.695-3.282,8.262-8.969,16.774-15.963,22.228,2.722-4.386,6.242-8.421,8.761-12.951,1.901-3.419,5.498-10.474,6.621-13.971h1.5Z"/>
  <path class="cls-5" d="M342.569,134.505c-3.049,3.062-9.287-1.212-5.889-5.501,3.133-3.955,9.85,1.523,5.889,5.501Z"/>
  <path class="cls-5" d="M234.75,154.892c-2.291-.464-1.408,1.21-1.493,2.993l1.493-.748c1.293,6.986,3.63,14.246,6,20.952-2.012.27-1.377-1.229-1.729-2.354-1.519-4.847-2.88-8.913-4.157-13.88-.493-1.918.325-1.974-2.364-1.724-.483-6.024.349-12.611.008-18.703l2.242,13.465Z"/>
  <path class="cls-4" d="M433.5,44.148c1.13.381,3.309.071,4.134,1.491.326.561,1.049,5.291,1.128,6.368.154,2.088-3.022.606-4.512.372l-.75-8.231Z"/>
  <path class="cls-5" d="M401.25,196.047c1.136,2.536,1.59.814,3.75,0-1.937,2.047-3.105,5.415-7.118,6-3.4.495,2.949-5.43,3.368-6Z"/>
  <path class="cls-4" d="M404.25,156.389c-.76,3.755-1.261,4.417-2.25,7.483h-1.5c.763-2.373,1.125-5.71,1.5-8.231l2.25.748Z"/>
  <path class="cls-5" d="M234,170.606l1.711,2.37,4.289,14.092c-3.301-5.462-4.804-10.177-6-16.462Z"/>
  <path class="cls-5" d="M437.25,159.382c1.019-5.433.757-10.946.75-16.462,1.817,4.549.952,11.855-.75,16.462Z"/>
  <path class="cls-5" d="M442.5,154.892c.281-4.106-.839-9.061.75-12.721.279,3.822.421,9.252-.75,12.721Z"/>
  <path class="cls-5" d="M431.25,130.199c.035.167.654.647.794,1.79.16,1.303-.377,6.043.006,6.398.112.104,1.668-.019,2.949.791l-3.754.004.004-8.983Z"/>
  <path class="cls-5" d="M160.5,88.296c-1.019,1.161-4.111.939-5.708.795-1.449-.131-2.282-.759-2.542-.795,2.743,0,5.507,0,8.25,0Z"/>
  <path class="cls-4" d="M234.75,154.892c.083.718-.124,1.576,0,2.245l-1.493.748c.084-1.783-.798-3.457,1.493-2.993Z"/>
  <path class="cls-5" d="M246.75,164.62l3.868,6.99.632,2.737c-1.753-3.038-3.356-6.396-4.5-9.728Z"/>
  <path class="cls-5" d="M418.5,175.844c-1.074,2.8-3.079,6.846-5.25,8.979,1.19-2.199,2.314-4.504,3.363-6.784.503-1.094-.16-2.65,1.887-2.195Z"/>
  <path class="cls-1" d="M218.255,269.375c-.74-.765,2.089-4.916,2.684-5.919,1.738-2.93,10.944-17.436,12.664-18.793,1.951-1.54,11.295-3.473,14.635-4.854,7.06-2.92,15.466-8.574,21.047-13.421,5.207-4.522,9.457-10.38,14.958-14.626l-10.32,18.504c-9.764,13.661-26.921,14.951-39.181,25.261-1.961,1.649-14.645,15.753-16.486,13.849Z"/>
  <path class="cls-1" d="M132.746,253.668l-10.835,13.501c-3.868,2.001-6.784,5.246-10.37,7.612-10.161,6.706-22.038,11.643-33.537,15.541l8.595-6.004c6.889-2.84,11.642-8.87,18.039-12.688,1.65-.404.589,1.683,2.177,1.522,3.725-.378,7.132-5.173,9.826-7.499,1.467-1.266,3.399-2.044,4.887-3.355,3.343-2.945,5.33-8.107,11.217-8.63Z"/>
  <path class="cls-1" d="M175.5,223.733c-1.189,3.301-6.762,19.005-8.272,20.556-1.759,1.806-12.018,4.899-14.978,4.886,2.086-2.856,4.466-7.618,7.116-11.233l16.134-14.208Z"/>
  <path class="cls-3" d="M158.25,265.637c-5.387,4.181-9.54,6.73-15.172,10.515-3.765,2.53-8.514,6.997-12.39,8.931-.817.408-1.526.652-2.437.757l30-20.203Z"/>
  <path class="cls-5" d="M186.75,223.733l6,5.986c.251.249.497.501.75.748,1.196,2.245,3.544,3.575,5.25,5.238.491.479,1.006,1.005,1.5,1.497.707.703,1.6,1.551,2.25,2.245.241.257.516.489.75.748.794.882,3.974,4.117,4.152,4.519,1.525,3.435-1.777,3.417-2.977,4.48-1.801,1.596-2.875,2.334-4.554,3.719-2.513,2.073-10.229,9.688-12.703,9.769-2.792.091-6.616-2.288-9.629-1.397-2.41.713-10.978,10.451-14.422,11.82l4.879-14.198c-.651-.697-8.779,5.98-9.746,6.731l-30,20.203c-.566.065-2.129.291-2.246-.37,8.548-10.558,15.398-22.507,23.352-33.568.763-1.061,1.93-1.406,2.895-2.727,2.96.014,13.219-3.08,14.978-4.886,1.51-1.551,7.083-17.254,8.272-20.556.876-2.432,2.051-4.848,2.25-7.483,1.989,1.988,6.44,5.061,9,7.483Z"/>
  <path class="cls-3" d="M425.25,291.078l-.75-.748c.052.01.31-.75.736-.761.129.457-.131,1.235.014,1.509Z"/>
  <path class="cls-3" d="M426.75,292.574l-.75-.748c.212.245.501.546.75.748Z"/>
  <path class="cls-3" d="M429.75,294.819l-2.25-2.245c.841.785,1.545,1.588,2.25,2.245Z"/>
  <path class="cls-2" d="M316.5,169.858c-.353.352-1.194-.693-.375-.748.26-.018.543.58.375.748Z"/>
  <path class="cls-2" d="M193.5,230.468c1.643,1.606,5.017,3.228,5.25,5.238-1.706-1.663-4.054-2.993-5.25-5.238Z"/>
  <path class="cls-2" d="M186.75,223.733c1.811,1.713,3.943,3.95,6,5.986l-6-5.986Z"/>
  <path class="cls-2" d="M200.25,237.202c1.655-.33,1.746.959,2.25,2.245-.65-.694-1.543-1.542-2.25-2.245Z"/>
  <path class="cls-3" d="M335.25,92.786c-2.636.808-6.647,2.669-9.75,3.741,2.088-2.298,6.539-3.602,9.75-3.741Z"/>
  <path class="cls-3" d="M297,116.73c-.51,1.528-1.134,4.106-3,3.741.87-1.059,1.849-2.443,3-3.741Z"/>
  <path class="cls-3" d="M304.5,109.248l.748.741-1.498.008c.268-.222.475-.531.75-.748Z"/>
  <path class="cls-3" d="M453.75,71.834c-1.972-1.241-5.197-2.753-7.499-3.001l.749-.74c2.417.931,4.976,1.649,6.75,3.741Z"/>
  <path class="cls-3" d="M345.75,21.7c-.779,1.239-2.846.748-4.114.761-4.651.049-10.27.566-14.636-.761,5.979-.187,12.803-.288,18.75,0Z"/>
  <path class="cls-3" d="M183.595,56.342c6.264-.606,23.868,1.04,19.833,10.813-4.198,10.167-34.379,11.584-37.379.954-2.065-7.315,12.213-11.25,17.546-11.766ZM181.306,59.294c-2.029.322-8.865,2.574-6.606,5.467,2.664,3.412,18.076,3.809,19.443-.929,1.554-5.386-9.66-5.041-12.837-4.537Z"/>
  <path class="cls-4" d="M164.625,89.793c.487.249.487.499,0,.748v-.748Z"/>
  <path class="cls-5" d="M181.306,59.294c3.177-.504,14.391-.849,12.837,4.537-1.367,4.738-16.779,4.342-19.443.929-2.259-2.893,4.578-5.145,6.606-5.467Z"/>
</svg>