<?xml version="1.0" encoding="UTF-8"?>
<svg id="Layer_1" data-name="Layer 1" xmlns="http://www.w3.org/2000/svg" viewBox="0 0 624 324.75">
  <defs>
    <style>
      .cls-1 {
        fill: #06080c;
      }

      .cls-2 {
        fill: #b7bbc0;
      }

      .cls-3 {
        fill: #363842;
      }

      .cls-4 {
        fill: #686c75;
      }

      .cls-5 {
        fill: #05070c;
      }

      .cls-6 {
        fill: #aaaeb3;
      }

      .cls-7 {
        fill: #015c95;
      }

      .cls-8 {
        fill: #84888f;
      }

      .cls-9 {
        fill: #020304;
      }

      .cls-10 {
        fill: #474952;
      }

      .cls-11 {
        fill: #7f8389;
      }

      .cls-12 {
        fill: #b4b9bd;
      }

      .cls-13 {
        fill: #06070b;
      }

      .cls-14 {
        fill: #ccced3;
      }

      .cls-15 {
        fill: #01639b;
      }

      .cls-16 {
        fill: #fcfcfc;
      }

      .cls-17 {
        fill: #358bc3;
      }

      .cls-18 {
        fill: #5c626b;
      }

      .cls-19 {
        fill: #05070b;
      }

      .cls-20 {
        fill: #05080e;
      }

      .cls-21 {
        fill: #cbcdd0;
      }

      .cls-22 {
        fill: #81858a;
      }

      .cls-23 {
        fill: #bfc2c6;
      }

      .cls-24 {
        fill: #42454e;
      }

      .cls-25 {
        fill: #6c7078;
      }

      .cls-26 {
        fill: #32353f;
      }

      .cls-27 {
        fill: #050a18;
      }

      .cls-28 {
        fill: #024482;
      }

      .cls-29 {
        fill: #00356c;
      }

      .cls-30 {
        fill: #05070a;
      }

      .cls-31 {
        fill: #a2a6ac;
      }

      .cls-32 {
        fill: #545a65;
      }

      .cls-33 {
        fill: #03050d;
      }

      .cls-34 {
        fill: #494b55;
      }

      .cls-35 {
        fill: #368fc7;
      }

      .cls-36 {
        fill: #192331;
      }

      .cls-37 {
        fill: #348bc3;
      }

      .cls-38 {
        fill: #6a6e77;
      }

      .cls-39 {
        fill: #18222f;
      }

      .cls-40 {
        fill: #c5c8cc;
      }

      .cls-41 {
        fill: #06080d;
      }

      .cls-42 {
        fill: #41434d;
      }

      .cls-43 {
        fill: #013a74;
      }

      .cls-44 {
        fill: #6b6f77;
      }

      .cls-45 {
        fill: #fafafb;
      }

      .cls-46 {
        fill: #07090c;
      }

      .cls-47 {
        fill: #b7bac0;
      }

      .cls-48 {
        fill: #050608;
      }

      .cls-49 {
        fill: #07080b;
      }

      .cls-50 {
        fill: #040916;
      }

      .cls-51 {
        fill: #7b7e85;
      }

      .cls-52 {
        fill: #fbfbfb;
      }

      .cls-53 {
        fill: #898c91;
      }

      .cls-54 {
        fill: #050a17;
      }

      .cls-55 {
        fill: #003166;
      }

      .cls-56 {
        fill: #080b14;
      }

      .cls-57 {
        fill: #e8eaeb;
      }

      .cls-58 {
        fill: #cfd1d4;
      }

      .cls-59 {
        fill: #016198;
      }

      .cls-60 {
        fill: #07090d;
      }

      .cls-61 {
        fill: #05060b;
      }

      .cls-62 {
        fill: #cbced3;
      }

      .cls-63 {
        fill: #06080a;
      }

      .cls-64 {
        fill: #06070a;
      }

      .cls-65 {
        fill: #43464f;
      }

      .cls-66 {
        fill: #40424c;
      }

      .cls-67 {
        fill: #474a54;
      }

      .cls-68 {
        fill: #090c14;
      }

      .cls-69 {
        fill: #c3c6ca;
      }

      .cls-70 {
        fill: #84868c;
      }

      .cls-71 {
        fill: #01619a;
      }

      .cls-72 {
        fill: #292d38;
      }

      .cls-73 {
        fill: #070b14;
      }

      .cls-74 {
        fill: #050609;
      }

      .cls-75 {
        fill: #fbfcfc;
      }

      .cls-76 {
        fill: #898d95;
      }

      .cls-77 {
        fill: #070a0e;
      }

      .cls-78 {
        fill: #e0e2e4;
      }

      .cls-79 {
        fill: #393d47;
      }

      .cls-80 {
        fill: #5e656d;
      }

      .cls-81 {
        fill: #080b11;
      }

      .cls-82 {
        fill: #060a16;
      }

      .cls-83 {
        fill: #d4d6d8;
      }

      .cls-84 {
        fill: #626770;
      }

      .cls-85 {
        fill: #343640;
      }

      .cls-86 {
        fill: #090b0f;
      }

      .cls-87 {
        fill: #61666f;
      }

      .cls-88 {
        fill: #054784;
      }

      .cls-89 {
        fill: #07080d;
      }

      .cls-90 {
        fill: #9a9ea5;
      }

      .cls-91 {
        fill: #0a0c12;
      }

      .cls-92 {
        fill: #040609;
      }

      .cls-93 {
        fill: #878c91;
      }

      .cls-94 {
        fill: #070812;
      }

      .cls-95 {
        fill: #929599;
      }

      .cls-96 {
        fill: #2b81bb;
      }

      .cls-97 {
        fill: #b1b4ba;
      }

      .cls-98 {
        fill: #050913;
      }

      .cls-99 {
        fill: #6e7178;
      }

      .cls-100 {
        fill: #c5cacc;
      }

      .cls-101 {
        fill: #41444d;
      }

      .cls-102 {
        fill: #444750;
      }

      .cls-103 {
        fill: #06080b;
      }

      .cls-104 {
        fill: #05060a;
      }

      .cls-105 {
        fill: #060910;
      }

      .cls-106 {
        fill: #b8bbbf;
      }

      .cls-107 {
        fill: #7c8188;
      }

      .cls-108 {
        fill: #747980;
      }

      .cls-109 {
        fill: #fbfbfc;
      }

      .cls-110 {
        fill: #f7f8f8;
      }

      .cls-111 {
        fill: #fefefe;
      }

      .cls-112 {
        fill: #07090f;
      }

      .cls-113 {
        fill: #fafafa;
      }

      .cls-114 {
        fill: #3f414b;
      }

      .cls-115 {
        fill: #01040f;
      }

      .cls-116 {
        fill: #969a9f;
      }

      .cls-117 {
        fill: #696d74;
      }

      .cls-118 {
        fill: #70737b;
      }

      .cls-119 {
        fill: #7e838a;
      }

      .cls-120 {
        fill: #d6d8db;
      }

      .cls-121 {
        fill: #96989e;
      }

      .cls-122 {
        fill: #fcfdfd;
      }

      .cls-123 {
        fill: #454851;
      }

      .cls-124 {
        fill: #d1d3d7;
      }

      .cls-125 {
        fill: #08204a;
      }

      .cls-126 {
        fill: #fdfdfd;
      }

      .cls-127 {
        fill: #cdd0d3;
      }

      .cls-128 {
        fill: #8d8f94;
      }

      .cls-129 {
        fill: #04508d;
      }
    </style>
  </defs>
  <path class="cls-111" d="M16.5,324.75H0V0h624v324.75h-12.75c-2.215.032-2.723-2.893-.75-3.741,1.461-1.089,3.352-1.101,5.674-.035l-95.87-61.747,19.073,22.359c-.003,1.385-.954,1.816-2.217,2.218l-39.592-22.269c-.941-.447,10.384,16.01,11.375,17.427.902,5.559-2.572,4.614-10.42-2.835-11.371-11.396-23.576-21.341-36.616-29.835l8.971,15.004c-.301,5.867-9.05-2.023-11.389-4.186-7.965-7.365-12.517-17.958-16.134-27.78,1.393-2.845,3.622-5.395,6.687-7.65l-2.712-10.106,1.17-1.31c-.487-2.213-.466-3.43,1.865-2.088,10.147,8.636,20.821,17.47,31.491,24.664-9.679-9.545-19.819-18.331-30.422-26.357l-.683-2.204c-4.053-5.115-8.665-3.571-11.383,1.315l-26.653,17.904,59.711,56.424c.023,1.263-.842,1.879-1.948,2.368l-80.573-54.743c9.219,12.755,18.869,25.182,28.948,37.281,2.077,2.122,1.527,4.072-1.139,4.335-16.425-13.095-32.904-26.322-47.963-40.938l-1.834.399,2.601,7.202c.935,2.708.672,5.201-2.716,4.111l-25.803-28.407c6.774,13.124,14.371,25.777,22.792,37.959,1.697,2.321.822,4.914-2.093,4.504-2.402-.338-32.284-27.413-36.756-31.536l.308-1.715c-2.104,2.917-4.643,5.51-7.359,7.869.792,1.131-6.965,8.637-7.569,8.682-1.322.1-2.038-.065-2.78-1.293l-1.103-7.675-28.663,25.846c-4.972,1.675-4.668-1.421.913-9.286l8.251-15.334c1.128-.229,2.149-.921,3.06-2.074l-.445-1.979c4.613-4.66,9.936-8.545,15.969-11.655l-1.848-16.67c1.62-3.932,4.233-7.527,7.839-10.785,1.104-4.587,1.925-9.257,2.462-14.01.081-.181,1.853-2.329,2.272-2.518l1.334-.857,43.69,34.261c-13.616-13.78-28.861-27.785-43.866-40.076-1.396.827-2.532.806-3.408-.062-2.625,1.582-4.536,3.415-5.732,5.5-28.073,20.543-56.331,41.877-83.348,64.029l-2.419.809c-2.118,2.259-4.368,3.755-6.75,4.49-.182.683-.433.666-.75,0-1.591-.618-3.091-1.616-4.5-2.993-.186.635-.437.618-.75,0l-1.617-.239c-8.408-7.017-16.957-13.878-25.645-20.583l-.488-1.627-.647.226c-4.421-5.254-7.715-5.574-9.882-.96-2.947,2.911-6.187,4.652-9.721,5.223-9.758,8.2-20.095,15.389-30.591,22.595-39.093,26.841-79.022,52.917-118.947,78.513-2.415,1.549-4.936,2.934-7.486,4.274,4.392-1.804,8.909-3.305,13.549-4.502l2.475.884c2.449,2.545.699,4.54-5.25,5.986Z"/>
  <path class="cls-111" d="M320.25,288.833c2.445-.642,4.946-1.298,7.492-1.25,14.85.278,30.718.792,45.008,4.243,10.435-1.182,20.938-.517,31.51,1.995,9.268-.126,19.101.462,27.74,3.991,8.597-1.234,18.345.151,26.25,3.741,9.535-.924,20.54,1.193,29.25,5.238,1.361-.138,2.723-.244,4.083-.238s2.696.024,3.987.276c11.421,2.23,22.828,4.74,34.04,7.834l-16.452-9.769-.158-1.845-1.234-1.624c-.053-2.505,16.292.599,18.484,3.12,1.721-.595,3.345-.943,4.87-1.042.151.941,1.028,1.538,2.63,1.79,5.526-1.444,13.318.429,18,3.741,18.501,1.111,37.479,5.263,54.75,11.972l.75,3.741H16.5c1.24-2.886,5.788-1.954,5.25-5.986.52-.529,1.057-1.033,1.654-1.453.588-.414,1.164-.803,1.795-.974,24.25-6.592,48.951-12.103,73.956-14.839,1.852-.203,13.575-1.404,14.165-1.004,1.126.764,1.243,2.33.249,3.206-6.975,3.976-14.288,7.348-21.939,10.116,19.509-5.314,39.694-10.717,60.266-13.427l3.355.416c35.93-7.038,72.847-11.076,109.5-11.224,9.299-2.515,19.838-2.637,29.565-2.38,1.252.033,2.491.582,3.726,1.279,7.427-.222,14.83-.104,22.209.354Z"/>
  <path class="cls-39" d="M369.75,4.49c6.086.475,8.771,7.425,12.228,10.243,1.264,1.031,3.029,1.131,4.584,2.542,6.476,5.875,10.951,20.525,16.566,27.618-.183-2.65-.155-8.765,2.617-10.096,2.567-1.232,19.379,2.037,23.393,2.853,4.196.853,14.517,2.62,17.503,4.985,4.826,3.824,2.885,10.47,4.796,13.174.911,1.289,10.579,4.728,13.063,6.422,15.993,10.905,12.716,39.401,13.218,56.402.208,7.038.637,14.167.781,21.295-.508,8.918-.758,18.146-.75,27.686,1.47,15.032,1.371,30.548,1.236,45.455l-1.236.19c-11.264-6.823-21.466-15.393-32.626-22.478l-41.113,26.098-85.616-65.716-100.706,72.442-41.108-24.572-50.961,33.676c-.704-3.655-.335-7.51-.37-11.219.732-1.154.982-3.025.75-5.612-.585-26.687-.882-55.653,0-82.684-.421,14.736-.671,29.701-.75,44.896-1.244-.778-.747-2.839-.763-4.105-.302-24.356-.54-49.07.794-73.31.681-12.377-.199-22.206,8.953-32.222,3.919-4.289,20.507-14.806,26.103-16.608,12.218-3.934,26.479-4.109,39.166-5.82,2.391-1.153,1.191-5.632,1.667-8.064.912-4.662,5.322-5.551,9.397-6.338,9.983-1.927,30.159-2.576,40.333-1.716,10.397.879,8.008,6.241,10.47,14.239,6.649-7.279,10.51-18.594,16.894-25.796,1.678-1.893,3.656-2.798,5.27-4.47,3.075-3.186,4.469-6.601,8.965-8.64,25.148-3.202,50.898-3.451,77.25-.748Z"/>
  <path class="cls-55" d="M207.75,246.181c.457-1.255,1.509-1.335,3.154-.241,1.725-4.279,3.497-5.213,8.082-5.432,2.635-3.218,5.825-5.335,9.571-6.348,1.287-3.678,1.738-4.911,6.035-4.531,4.397-3.749,8.79-1.119,12.39,2.373,1.482-2.373,4.066-3.428,7.751-3.165,3.554-2.266,6.36-3.197,10.457-2.512l-.405-2.394c-7.114-2.44-.023-6.548,4.618-5.744,1.38-2.704,4.246-4.449,6.689-2.049,1.204.11,1.493-3.643,1.46-4.459.11-1.254,6.971-6.24,7.764-6.009,4.255,1.243.708,5.035-1.817,6.09-7.683,11.118-7.433,11.367.75.748,2.995-8.965,6.958,1.343,3.907,4.737-4.136-.385-.637,10.264-.045,10.184,1.318-1.365,2.286-2.215,2.888.044-5.269,7.961-9.026,18.109-14.996,25.819l1.107.36,31.518-28.42,1.486,11.214,16.135-15.708c1.172,1.236.831,2.708-1.022,4.415-2.447,1.887-3.492,3.976-3.135,6.267-5.089,7.586-10.206,15.137-15.351,22.652,3.918,6.266,8.197,12.309,12.838,18.129,1.769,2.113,1.703,4.155-1.367,4.164l-13.793-7.18c-3.049,5.627-5.624,11.486-7.997,17.422,8.079-.027,16.078.112,23.998.416l-.172,1.808c-18.46-.505-37.086-.031-55.5.748-35.6-.117-75.148,4.244-109.5,11.224-13.731,2.391-27.64,5.557-41.26,8.595-8.589,1.916-20.02,5.986-28.199,7.037-.8.103-3.42.707-3.286-.658,9.222-3.781,20.491-7.601,29.017-12.583.358-.209,2.394-1.126,1.345-1.652-1.293.272-2.309.756-3.693.806-27.84.999-60.276,9.473-87.423,16.413-5.811,1.486-12.14,3.827-17.803,5.066-.754.165-2.633.756-2.441-.567,1.079-.087,2.063-.589,2.951-1.175,52.843-34.893,106.106-69.217,158.294-105.089,1.967-1.323,2.431.928.764,2.529-4.315,2.7-8.486,5.588-12.511,8.665,3.692-.804,6.792-.986,10.57.094,5.049-2.319,7.441-1.841,7.176,1.432l.011,1.988c-5.979,4.759-10.803,10.715-14.261,17.467-8.714,9.849-16.558,20.667-23.533,32.455l35.453-24.099c3.6-.33,3.585,2.514,2.163,5.147l-3.556,7.498c3.75-3.755,7.772-7.194,12.065-10.315,3.758.381,7.495.744,11.211,1.091l17.642-15.195,1.805.426Z"/>
  <path class="cls-55" d="M450.75,204.278l-1.587.79c-4.654-4.208-11.777,1.145-1.525.762,1.671.498,1.958,1.976.862,4.434.53,1.674,3.096,10.707,3.011,11.575-.299,3.043-7.166,4.575-6.657,8.07.141.97,6.733,14.434,7.758,16.285,4.03,7.273,9.768,11.804,16.518,16.444l.364-1.108-11.239-17.973c-.16-.509.621-.516,1.106-.359,2.062.667,12.249,7.658,14.574,9.408,11.402,8.581,21.826,20.144,33.45,28.738l1.112-.365c-4.461-6.748-9.415-13.284-13.338-20.364-.365-.658-1.657-1.868-.538-2.457l43.88,24.681-23.996-28.056,1.107-.36,106.883,68.84c.179,1.386-1.513.559-2.282.408-3.143-.617-6.499-1.872-9.712-2.663-18.171-4.47-36.367-8.451-54.75-11.972-.253-.546-.371-1.172.012-1.566,1.496-1.537-28.539-23.843-34.061-24.438,5.582,5.663,10.739,11.678,15.471,18.044,2.222,3.429,2.414,4.835.578,4.218-2.193-.371-4.978-.343-7.5-.748l-.385-1.819c-10.422-8.019-22.484-13.021-34.69-17.389l18.156,16.007c-.541.565-.719,1.133-.332,1.705l24.746,14.958c-16.621-4.197-33.382-8.06-50.246-11.217l-4.083-2.101c-13.945-13.608-29.171-27.556-46.561-36.065,7.365,10.909,15.262,21.208,23.693,30.897,1.219,2.097-.301,2.369-2.299,2.032-8.645-1.347-17.582-2.614-26.25-3.741-6.951-3.783-13.22-10.404-18.754-16.277-3.276-2.547-5.524-5.602-6.746-9.164-2.075-.774-3.896-2.089-5.465-3.946-10.163-13.398-20.998-26.091-32.505-38.078-.981-1.651-.67-2.747,1.22-2.124,16.642,12.452,32.134,26.682,48.385,39.653l1.112-.365c-12.54-13.851-22.894-29.529-34.492-44.155l1.111-.364,85.885,58.352-61.483-58.007,34.525-23.191c2.267-.808,4.879,2.523,5.958,4.134Z"/>
  <path class="cls-7" d="M326.25,220.74l37.135,32.169,1.104-1.102c-9.95-15.715-20.894-30.827-27.732-48.277l32.621,35.913c1.018-2.376-4.633-13.668-4.125-14.21,1.856.037,3.11,1.952,4.496,2.989-1.496.308.787,1.919,1.128,2.243,12.38,11.798,23.666,28.825,35.622,41.905.638,1.679-.36,2.218-2.032,1.774-1.86-1.706-27.836-16.893-28.528-14.495-.111.385,4.782,6.707,5.45,3.575l1.596.375c7.815,9.42,15.759,18.598,23.832,27.532,1.979,4.264-7.474,2.37-9.618,1.346-9.719-7.34-18.526-15.88-26.422-25.619-6.566-6.373-13.576-13.097-22.454-16.02l25.206,39.422-.779,1.564c-17.336-1.32-35.234-2.521-52.5-2.993-.782-1.241-2.847-.746-4.114-.761-6.06-.075-14.66.805-20.277.015-.98-.138-1.351.399-1.116-1.121.231-1.495,8.281-19.727,9.376-19.815l15.381,8.206c.952-.859-14.316-18.307-14.223-21.323.091-2.963,14.351-19.352,15.73-23.956-3.663-1.374-.812-1.485-.02-2.403,1.845-2.138,4.17-4.257,5.263-6.934Z"/>
  <path class="cls-29" d="M315,163.123c1.384,1.347.574,2.798-2.431,4.353l1.969,1.112c2.007-.935,3.199-1.082,2.712,1.269-1.783,4.501-1.641,13.31-3.394,17.192-1.025,2.27-7.276,6.853-7.743,9.551l2.049,18.397c-6.804,4.707-12.234,5.031-17.162,12.478-1.471-1.181-.797,1.761-2.622,1.527-1.412-.181-1.433-.733-2.035-1.744-.704-1.182-2.469-9.883-2.096-10.25.139-.137,2.611.099,3.426-1.507.557-1.098-.997-4.375-.429-5.985-.863.679-2.382,2.173-2.993,2.993-1.054.992-1.44.574-.75-.748.77-1.036,2.039-2.149,2.263-3.358.704-3.807-3.568,1.198-3.833,1.418-.643.535-2.145.502-2.589,1.158-.936,1.381.517,4.951-2.609,6.449-1.605.77-2.138-1.646-3.718-.86-2.539,1.263-3.163,3.579-.029,4.546l-3.364,3.364c.324-7.086-.549-5.063-6.369-3.727-.614,2.511,2.258.826,2.907,2.699,2.214,6.396-3.05,3.817-5.337,4.152-1.697.249-3.982,2.119-5.652,2.662-1.946.633-5.848-.386-6.778,2.217-.545,1.524-.049,6.145-2.02,6.964-4.001,1.661,1.259-3.96-1.068-7.166-.421-.58-4.536-2.817-5.308-3.002-2.644-.633-2.876,1.164-5.027,1.793-1.137.332-3.446-.136-3.89.228-.269.22-.147,2.794-1.592,4.024-1.27,1.081-3.324.912-4.885,1.857-1.598.967-3.072,3.911-5.038,4.701-1.729.694-3.926.247-5.074.924-1.029.606-1.643,4.17-3.374,4.868l-3.364-1.49c-1.511-.172-1.451-.921,0-1.497-.707-1.036-1.207-2.034-1.5-2.993-3.053-3.406,1.209-9.83,4.5-6.734.221-.038.522-.018.75,0,1.409,1.353,2.909,2.351,4.5,2.993.223.035.522.02.75,0,2.443-.775,4.693-2.272,6.75-4.49,23.873-21.266,55.019-43.975,81.078-63.151,3.382-2.489,6.625-5.331,10.422-7.186Z"/>
  <path class="cls-129" d="M315,163.123c1.993-.974,3.071-2.211,5.626-.77,11.798,11.285,24.523,21.718,36.111,33.208,2.014,1.997,14.807,14.833,15.256,15.836.146.326.191,1.227-.365,1.109l-54.379-42.648-1.496-.745-.376,2.986c-1.543-2.526-2.38-3.518-5.625-2.993.093-2.926,4.219-3.272,5.246-5.982Z"/>
  <path class="cls-43" d="M183,212.509c.322,3.045-1.729,2.511-6.153-1.603l-1.303-.317c1.877,1.132,3.685,3.724,2.206,5.661,1.962,2.079.58,7.28-2.25,7.483-1.457,2.302-3.115,4.431-4.976,6.387l-1.774-.401c-2.295-3.121-4.537-.054-7.133.056-1.786.076-3.451-.899-5.243-.867-2.518.044-5.158,1.361-7.871.807-.267-1.314.678-1.845,1.486-2.625,2.599-2.511,8.261-5.71,11.508-7.972.364-.254,2.832-1.694,1.252-2.12,4.47-3.072,8.803-6.493,13.236-9.642,1.266-.222,5.645,4.103,7.014,5.153Z"/>
  <path class="cls-28" d="M183,212.509c8.28,6.349,18.454,13.105,26.04,19.958.883.797,1.453,1.179,1.71,2.49-3.595.622-4.702,3.273-4.5,6.734-6.602-5.782-13.102-11.768-19.5-17.959-2.857.732-8.899-4.37-9-7.483-1.529-1.501-.829-5.114-5.249-4.498,3.018-4.594,4.637-2.564,7.878.002.622.492,1.922,2.587,2.621.754Z"/>
  <path class="cls-88" d="M450.75,204.278c5.747,3.472,12.02,9.258,17.26,13.833,9.07,7.917,17.886,16.436,26.239,25.07l-20.172-13.913c-8.193-6.274-16.201-12.711-24.079-19.376-1.126-.952-1.636-2.159-1.498.373-.262-.826-.696-2.82-.804-2.927-.353-.35-7.167.107-8.181-1.937,5.216-4.958,5.707-4.462,11.235-1.122Z"/>
  <path class="cls-91" d="M369.75,4.49c-.101-.008-.21.962-1.856.811-19.179-1.765-37.751-1.841-57.05-1.59l-18.344,1.527c6.078-2.758,12.693-1.886,19.117-2.253,15.861-.904,32.125-1.253,47.998.017,3.264.261,6.804,1.383,10.135,1.487Z"/>
  <path class="cls-115" d="M125.25,178.089c.011-13.907-.575-28.461,0-42.285.038-.919-.571-2.778.75-2.611v82.684c0,1.448,2.596,6.2-.75,5.612-.138-14.45-.011-28.948,0-43.4Z"/>
  <path class="cls-94" d="M479.25,179.585c.26,11.758-.05,23.461.746,35.165-1.613.538-1.738-1.185-2.246-1.493.85-1.246.738-2.654.781-4.078.418-13.883-.617-27.704-.781-41.566.213-.653.463-.644.75,0,.512,3.904.762,7.894.75,11.972Z"/>
  <path class="cls-33" d="M478.5,156.389c.581,3.793.581,7.535,0,11.224h-.75c-.093-7.835-.111-15.737-.013-23.581.016-1.266-.481-3.328.763-4.105.111,5.474-.096,10.987,0,16.462Z"/>
  <path class="cls-39" d="M479.25,179.585c-.081-3.651-.685-7.997-.75-11.972-.061-3.732.065-7.493,0-11.224,1.72,7.376.285,15.612.75,23.196Z"/>
  <path class="cls-55" d="M223.5,233.461c-1.582,1.409-3.324,3.953-5.323,4.909-1.051.503-1.334-.428-1.427-.419l6.75-4.49Z"/>
  <path class="cls-55" d="M216,237.95c-.084-.013-.33.754-1.708-.05-1.166-.68-2.145-1.767-2.792-2.943,1.856.142,3.159,1.919,4.5,2.993Z"/>
  <path class="cls-35" d="M372.75,291.826l-27.746-43.396c9.619,1.533,18.277,9.159,25.141,15.69,7.286,6.933,20.252,23.885,28.702,27.484.656.279,7.834,2.705,6.897.606-.521-1.167-8.076-8.489-9.722-10.507-4.819-5.906-8.742-12.586-14.65-17.559-1.267.46,4.088,5.901.764,4.48-1.404-.6-9.972-10.768-9.385-11.21,11.715,1.527,21.205,8.487,30.826,14.546.993.626,1.739,1.386,2.924.412,8.095,8.856,17.083,16.905,25.5,25.441-19.296-2.51-39.835-4.508-59.25-5.986Z"/>
  <path class="cls-71" d="M458.25,301.553c2.579.477.901-1.458.314-2.184-1.233-1.525-2.823-2.687-4.041-4.199-7.383-9.162-13.69-19.205-21.019-28.415.048-.694,1.27-.422,1.822-.324,2.37.42,13.776,7.294,16.417,9.064,9.86,6.608,18.238,15.338,27.517,22.681l8.24,8.616c-9.645-1.806-19.576-3.73-29.25-5.238Z"/>
  <path class="cls-59" d="M537.75,305.295c2.204-1.256-1.973-.525-2.25-.755-.223-.185.719-1.213.662-1.878-.23-2.704-12.925-15.417-15.644-18.711-.792-.959-1.312-2.139-2.264-2.979-.117-.565.726-.481,1.106-.359,15.225,4.842,28.023,17.437,40.136,27.305l-3.746,1.119c-5.963-1.142-12.029-2.732-18-3.741Z"/>
  <path class="cls-15" d="M513,303.05l-22.496-19.833c-.109-.577.682-.446,1.126-.379,5.306.803,21.985,8.19,27.278,10.951,5.07,2.645,9.417,6.419,14.337,9.271l-2.994,1.487c-5.032-.809-10.075-1.779-15.129-2.497-1.397-.198-2.42-1.463-2.121,1Z"/>
  <path class="cls-125" d="M264.75,289.581c-36.073,1.527-73.962,5.034-109.5,11.224l-1.868-.747,12.868-2.121c27.025-4.452,57.233-7.825,84.594-9.135,4.251-.204,9.904-.414,13.906.779Z"/>
  <path class="cls-126" d="M408.75,92.037c2.622,3.685,5.531,7.917,7.5,11.972,7.397,13.632,10.488,31.088,8.25,46.393-.882-.611-1.382-2.108-1.5-4.49-1.02-2.737-1.542-1.805-1.567,2.795l-2.709,13.625-1.724.79c-.501.716-.751.466-.75-.748.676-10.906,1.178-21.108-1.128-32.131-2.273-10.864-6.761-20.263-11.622-29.975-3.607-5.38-8.04-10.572-12.75-14.965-9.051-6.862-17.667-13.184-28.535-17.302-24.336-9.22-49.162-5.209-71.965,6.078-4.384,2.624-8.165,5.655-12,8.979-2.589,2.92-5.27,5.704-8.25,8.231-1.532,1.74-3.105,3.369-4.5,5.238-10.489,16.468-17.008,34.694-15.144,54.535l-.606,1.585c.773,1.006-.416,2.101-1.32,1.405-1.988-1.532-3.728-16.019-2.43-19.364-3.349-.011-3.578-.201-3-3.741-.48-10.179,3.414-22.069,9-30.679,1.508-2.764,4.108-6.356,6-8.979,7.037-11.887,19.413-22.449,32.25-27.686.893-.457,1.742-1.261,2.25-1.497,39.083-19.41,92.089-6.824,116.25,29.931Z"/>
  <path class="cls-38" d="M352.5,89.044c.432,4.047-.984,7.981-1.184,11.956-.078,1.552,1.12.413,1.934,1.513l-1.211,1.48c-4.871-.217-8.002,2.649-9.696,7.009l-1.842.49c-.214-.185-.381-.323-.381-.299,0,2.081.043,4.211.381,6.285.323,1.045.435,1.76-.742,1.967l-5.258,4.767c-12.64,9.349-20.957,19.763-37.725,10.326-1.464-.824-6.578-4.331-7.353-5.441-.698-1-.184-1.653.078-2.641-2.589-1.795,2.772-8.575,5.25-7.483,3.632-2.994,6.882-6.237,9.75-9.728-1.364-1.688-.455-2.31,1.5-1.497,2.02-1.174,4.02-2.421,6-3.741-1.143-1.949,2.073-4.566,3.75-2.993,7.171-3.856,14.671-6.849,22.5-8.979,4.092-1.889,8.999-1.958,13.496-1.504.162.016-2.943-.026-2.996-.741-1.186-2.699,3.127-3.385,3.75-.748Z"/>
  <path class="cls-32" d="M165,132.444c1.883,5.972,2.582,12.35,2.097,19.134-.106-4.683.695-9.065,2.403-13.148,2.924-1.06,3.855,1.988,3.646,4.529-5.505,10.328,7.343,14.643,15.539,13.659l1.064,1.268c1.492,1.073,1.182,5.257.75,7.109.722,6.434.537,14.014,0,20.577-2.565.353-3.065.603-1.5.748-5.842,1.623-15.7.778-21.178,3.19-4.535,1.996-13.052,10.921-18.572,14.021l-.761-.217-.735-47.808c3.974-.315,8.022.58,12.145,2.686,2.707-5.867,3.294-13.38,2.07-20.084.012-2.212.07-6.636,3.031-5.662Z"/>
  <path class="cls-126" d="M372,12.721c.391.891.772,1.031,1.5,1.497,5.661,11.371,9.795,25.457,12.75,38.162-.942,1.22-1.138-.228-1.638-.985-1.747-2.644-3.338-5.349-5.112-7.994-1.581-.571-2.081-1.319-1.5-2.245-.637-.102-.887-.351-.75-.748l-1.167-1.819c-1.959-9.392-6.57-14.273-13.833-14.643-.988,1.827-6.268.311-6.75-1.497-10.511-.283-21.011-.533-31.5-.748-2.684.766-6.219,1.126-9,.748-6.345.642-12.741,1.674-19.188,3.094-2.411,3.862-4.515,7.819-6.312,11.871,1.595,1.604.949,3.528-1.5,3.741.759,1.176-1.67,4.277-3,5.238-1.103,1.846-5.262,7.926-6.75,8.979,1.982-10.53,4.894-20.883,8.737-31.061,4.885-15.194,9.829-15.795,25.317-16.626,12.527-.673,49.4-2.457,59.203,4.196.243.165.383.481.494.841Z"/>
  <path class="cls-126" d="M363,89.044c-4.401.424-6.263.023-10.5,0-1.199-.006-3.129-.425-3.75.748-3.316.714-7.095,1.242-10.5,1.497-7.707,2.937-15.207,6.179-22.5,9.728-1.529,1.045-2.437,1.941-3.75,2.993-2.045,1.391-4.045,2.638-6,3.741-.702.567-1.046,1.101-1.5,1.497-2.918,3.496-6.168,6.738-9.75,9.728-1.934,2.299-4.457,4.5-5.25,7.483-2.385,1.572-3.853,4.943-5.25,7.483-3.221,7.188-5.975,14.805-8.25,22.448-.107.107-.496-.08-.75,0-8.407-20.223-.156-46.4,17.25-59.113.603-.515,1.157-1.227,1.5-1.497,18.107-16.277,48.149-19.781,69-6.734Z"/>
  <path class="cls-25" d="M405.75,59.113c3.515.689,7.515,1.437,12,2.245,6.376,1.07,12.626,2.067,18.75,2.993,1.014-2.417,9.691.26,8.25,2.993,3.046,1.147,6.046,2.644,9,4.49,1.704-2.297,5.191,1.118,3,2.993,3.768,6.243,5.742,13.742,5.25,20.952-15.444-.382-30.847-1.738-46.208-4.068-.217-.754-.564-1.144-1.042-1.17-.196.106-.571-.109-.75,0-5.209-10.47-9.709-21.195-13.5-32.176-.041-2.872,5.468-1.85,5.25.748Z"/>
  <path class="cls-87" d="M192,110.744c-.29,4.782-.54,9.521-.75,14.217-.103,10.341-.326,20.711-.669,31.109l-.831,1.815c-6.087,1.869-18.4-2.011-19.499-8.66-.54-3.271,4.02-7.544-.751-10.795-2.166-1.009-1.543-5.21.75-5.612-2.492-.719-2.298-10.063,0-11.224-.551-.253-.935-.647-1.109-1.224-.162-.536.152-9.732.319-11.127l1.54-2.239c8.27.424,13.745,2.746,21,3.741Z"/>
  <path class="cls-18" d="M146.25,129.451c.391-6.886.32-13.846-.214-20.88,5.95-.73,11.831-1.396,17.84-1.098-.139,2.103-.014,4.191.373,6.264,2.904,4.556,2.958,13.745.75,18.707-3.181,3.978-.389,9.423-.845,14.503-.165,1.836-2.21,12.624-2.943,13.148-4.373-.986-8.121-3.446-12.706-3.704l.745,47.139c-.447.251-1.035.703-1.5.748-.565-12.527-.815-25.248-.75-38.162-1.147-12.084-1.954-24.61-.75-36.665Z"/>
  <path class="cls-52" d="M364.5,77.82c2.989,1.372,6.95,4.085,9.75,5.986,24.192,13.495,36.801,44.256,30.75,71.086l-1.652.273c.066-5.795-.133-11.622-.598-17.483-1.463-12.656-6.255-23.676-12.75-34.42-5.174-7.089-11.916-13.434-19.5-17.959-21.777-11.272-44.694-13.264-67.5-3.741-9.014,4.287-17.752,10.956-24,18.707-8.759,12.428-14.075,26.188-14.199,41.685l-.801.966.164,7.474-1.664.009c-3.799-15.386.282-34.378,9.75-47.141,4.124-6.31,11.851-14.325,18-18.707,20.347-16.184,51.219-18.435,74.25-6.734Z"/>
  <path class="cls-16" d="M182.25,80.813c-2.088.023-4.786.248-6.75,0-6.207-.025-13.976-3.338-18-8.231-2.928.328-3.897-7.467-.75-7.483.717-2.245,1.802-3.16,3.75-4.49,6.233-9.172,50.098-10.898,55.22-4.618.166.203,1.497,4.151,1.603,4.815,2.032,12.763-25.222,22.775-35.072,20.007Z"/>
  <path class="cls-44" d="M266.25,55.372c-1.733,4.306-12.328,31.129-14.686,32.117-.637.267-1.37.34-1.864-.377-.837-1.217-.801-4.811-2.325-7.297-4.533-7.395-14.411-7.01-20.118-1.247,1.456-4.671.432-9.595-.757-14.217-1.139-2.062-1.889-4.057-2.25-5.986,1.096-2.479,4.322-2.875,6-.748,1.534.504,9.456.636,6.75,0-1.357-2.821,4.117-3.399,4.5-.748,1.47.508,7.917.695,5.25,0,.003-.585.071-1.466.48-1.565,3.16-.767,14.845-2.075,18.009-1.427l1.011,1.495Z"/>
  <path class="cls-75" d="M465.75,97.275c-.743-.055-1.506.047-2.25,0-1.396-.419-1.646-.917-.75-1.497-.472-7.451-2.472-14.434-6-20.952-1.313-1.729.28-1.428-3-2.993-2.916-1.826-5.916-3.323-9-4.49-.17-1.104-6.745-2.591-8.25-2.993-6.25-.53-12.645-2.146-18.75-3.741-3.969-.035-8.181-.25-12-1.497-1.266-.177-3.274-1.445-5.25-.748-1.982-2.231-3.491-5.988-3.75-8.979,14.449,2.782,28.874,5.829,43.275,9.142,22.855,5.592,29.755,15.442,25.725,38.747Z"/>
  <path class="cls-84" d="M382.5,105.506c1.102,1.281,2.832,3.214,3.75,4.49,1.112,1.827,1.862,3.573,2.25,5.238,3.18,8.761,5.606,20.273,5.468,27.867l.532,1.316c.284,8.026-2.062,17.727-6,24.693-1.03,2.182-8.131,13.189-9.774,13.87-1.224.507-9.878-2.549-10.473-3.771,22.719-17.88,26.202-51.038,9.747-74.449-1.133-3.225.367-2.975,4.5.748Z"/>
  <path class="cls-122" d="M353.25,102.513c7.701.291,11.892,6.926,10.326,14.421-.449,2.15-2.325,4.056-3.576,5.782-4.792,5.629-15.275,3.607-18.546-3.066-1.715.079-2.032-.645-.954-2.172-.497-2.157-.497-4.152,0-5.986,2.668-6.461,5.512-9.252,12.75-8.979Z"/>
  <path class="cls-25" d="M466.5,105.506c.641,3.021.561,7.281,0,10.476-.528,14.771-.647,29.759-.356,44.963-.317-.011-.629-.038-.924-.124-1.196-.346-2.085-17.73-2.018-20.541l-.452.395c-1.3-.443-1.015-3.643-.75-5.238.628-2.441.628-4.187,0-5.238-.919-6.481-1.524-13.184-1.816-20.109-1.439-.324-1.393-.439-.105-.851l-9.694.636c-2.623-.329-4.764-.081-6.423.743l2.197,7.539c.803,2.645.414,6.041-2.909,4.559-3.738-6.343-6.392-15.026-9.75-21.692l33,4.482Z"/>
  <path class="cls-126" d="M171,107.003c-.157,4.103.209,8.268.028,12.374-.043.98-.778,1.944-.778,2.217v11.224c0,.928-.652,3.79-.75,5.612-.472,8.803-1.205,17.794-1.531,26.533-.158,4.237.207,8.519.031,12.759-.038.911.566,2.783-.742,2.608-1.739-15.893-1.553-31.92-2.257-47.886-.267-6.044-.138-12.712-.75-18.707l-.406-5.733c-.907-.477-.713-.803.406-1.002,2.231-.005,4.526-.114,6.75,0Z"/>
  <path class="cls-16" d="M204,89.793c-6.888,5.901-18.106,7.839-27.208,8.608-5.404.457-12.294.873-17.042-1.125-1.357-2.821,4.119-3.4,4.5-.748,1.437-1.515,3.23-1.648,5.209-1.535l.113-3.308c-2.992-.129-6.095-2.499-2.322-3.388l1.836-.75c12.944-.023,25.832-.77,38.664-2.243l.737.37c-.095.451-3.713,3.597-4.487,4.119Z"/>
  <path class="cls-52" d="M269.25,48.638c-.43,2.486-2.087,4.467-3,6.734l-7.121.008-12.379,1.489c-1.636.763-3.515.402-5.25,0-1.416.022-3.683-.51-4.5.748-2.111.715-4.55.448-6.75,0-2.066.096-3.988.334-6,.748-2.59-.782-6.077-2.353-8.25-3.741v-.748c-.048-.548.305-.812,1.06-.793l52.19-4.445Z"/>
  <path class="cls-31" d="M423,145.913c1.209,7.725.209,15.457-3,23.196-2.035,5.41-4.035,10.648-6,15.714-1.208,3.532-4.321,8.224-7.5,10.476-.543.492-1.574,1.108-2.25,1.497-1.877,1.835-5.033,3.653-3,0,.081-.179-.054-.487,0-.748,1.734-4.038,3.792-7.911,6.175-11.62l1.325-.352c3.166-6.85,5.916-13.834,8.25-20.952.975-4.117,2.293-10.556,2.95-14.641.672-4.173.827-8.808.807-13.041,1.067-.16,1.169,2.063,1.283,2.821.382,2.548.558,5.082.959,7.651Z"/>
  <path class="cls-76" d="M442.5,142.92c.655,3.502.942,7.772,0,11.224.339,2.323-.76,5.644-2.25,7.483-1.932,4.37-5.049,5.65-7.5,8.979-1.346,1.2-1.846.451-1.5-2.245.882-1.736,2.072-1.979,3-2.993,5.267-6.52,5.092-16.87,3-23.945-.777.516-3.579-1.257-3-2.245-2.59-.279-3.462-2.611-2.615-6.996l-.385,1.01c-1.581.368-1.724-2.868-.75-3.741l.296-1.368c-.64-3.296-.238-4.586,1.204-3.87,9.209.83,10.344,11.39,10.5,18.707Z"/>
  <path class="cls-90" d="M246,134.689c.609,6.567,2.262,12.284,3.015,18.717.352-.089.622-.747.735-.759.102-1.028.787-1.259.936-.488,2.134,11.051,4.259,20.08,8.814,30.419-5.063-2.642-9.568-9.318-12-14.965-2.294-3.407-3.78-8.773-3.75-12.721-.792-6.633-.691-13.196.303-19.691l1.947-.513Z"/>
  <path class="cls-117" d="M150.75,79.317c-9.455-3.781-4.657-11.271,2.23-14.608,1.79-.867,2.655-2.084,3.77.391-.78,2.44-.169,5.119.75,7.483,3.267,3.061,6.767,5.555,10.5,7.483l-.385.782c-5.657-.119-11.278-.629-16.865-1.531Z"/>
  <path class="cls-74" d="M408.75,92.037c-25.584-35.946-76.16-48.518-116.25-29.931-1.785-.642,3.061-2.298,3.247-2.373,39.667-16.044,86.633-4.825,112.292,29.645.478.643,2.483,2.048.711,2.659Z"/>
  <path class="cls-92" d="M372,12.721c-4.024-2.149-8.715-3.04-13.217-3.649-15.413-2.086-38.435-2.127-53.815,0-10.812,1.496-12.103,1.73-16.028,11.695-4.385,11.133-7.483,23.083-10.689,34.606-.255.181-.08,1.166-1.496.744,3.201-11.24,6.189-23.116,10.483-34.056,3.632-9.253,3.588-11.724,14.109-13.61,15.739-2.82,49.429-3.102,64.823.734,1.282.32,6.409,2.119,6.568,3.164.068.451-.753.333-.736.371Z"/>
  <path class="cls-80" d="M375,154.892c-1.484,4.431-7.734,17.21-11.585,19.497-3.319,1.971-6-1.862-8.662-3.412,4.218-2.349,8.08-5.305,11.266-8.956,2.073-2.375,5.935-7.498,7.48-10.121,1.857-2.805,2.357-1.807,1.5,2.993Z"/>
  <path class="cls-13" d="M216,54.624c2.099.459,6.859,2.28,8.25,3.741,1.311,1.377,1.79,4.198,2.25,5.986l-3.357-5.256c-1.171-.78-6.176-3.694-7.143-2.968,6.42,9.924-5.116,18.679-13.513,22.053-8.023,3.224-16.869,4.152-25.483,4.121l5.246-1.489c9.415-.104,20.507-2.367,27.996-8.359,7.199-5.76,10.692-14.46-.509-17.943-12.905-4.013-37.874-1.658-49.238,6.099-1.362-.887,2.938-2.99,3.241-3.127,17.462-7.821,34.56-6.732,52.259-2.86Z"/>
  <path class="cls-4" d="M238.5,98.779c-1.45,2.938-17.741,5.491-18.752,4.479,1.096-6.34,1.828-12.822,4.511-18.698l1.237,5.86c1.304,4.18,8.529,8.941,13.003,8.359Z"/>
  <path class="cls-75" d="M243,89.044c-.77.526-3.679,2.477-3.75,2.993-5.979,3.16-12.617-4.434-8.158-10.288,5.646-7.412,17.469-.108,11.908,7.295Z"/>
  <path class="cls-30" d="M390.75,85.303c-.642,1.773-2.029-.184-2.639-.736-27.565-24.936-62.284-26.509-94.852-10.854-.763.367-2.561,1.867-3.009.366,32.678-19.561,72.901-14.52,100.5,11.224Z"/>
  <path class="cls-46" d="M394.5,181.082l-.525-1.005c4.277-7.564,7.916-15.677,9.406-24.287l1.619-.897c5.2-28.136-7.422-55.249-30.75-71.086.476-1.638,2.118.174,2.778.597,31.521,20.169,37.966,62.846,20.033,94.369-.163.287-1.922,3.875-2.561,2.309Z"/>
  <path class="cls-74" d="M416.25,162.375c-1.287,7.496-3.787,14.729-7.5,21.7-2.382,4.005-5.352,7.807-7.5,11.972,1.332-6.425,8.058-15.585,10.704-23.367,8.273-24.338,4.417-47.554-8.012-69.483-.411-.725-2.03-2.439-.442-2.928,11.571,17.258,16.656,41.67,12.75,62.107Z"/>
  <path class="cls-23" d="M402.75,137.682c1.71,3.484.301,8.19.758,11.969l1.485-9.72c.631,4.483-.501,8.934-.781,13.152-.068,1.022.798,1.712.789,1.81-.688,7.35-6.277,20.073-10.5,26.189-.911,1.319-7.765,9.333-8.635,9.721-.328.146-1.23.19-1.111-.364,1.99-1.893,3.732-4.094,5.246-6.364,8.273-14.457,13.393-29.457,12.75-46.393Z"/>
  <path class="cls-92" d="M396.75,49.386c.531-.535.479-.985,1.62-.597,15.176,4.143,31.539,5.985,46.542,10.537,21.524,6.53,24.358,16.917,21.574,38.702-.539.124-.663-.747-.736-.753,1.004-22.737-.055-30.518-22.338-37.201-15.248-4.573-31.393-6.154-46.662-10.688Z"/>
  <path class="cls-98" d="M443.25,122.716c6.697.813-1.239-12.284.003-13.465,5.773-.032,11.556.316,17.244-.753l1.503,21.701c.742,1.669.399,3.49,0,5.238.017,1.64-.555,4.218.75,5.238,1.297,10.537,2.297,21.013,3,31.427.211,1.871.461,3.867.75,5.986-.087,1.735.676,4.458-1.492,5.238l-5.254-73.334c-5.153-.75-10.152,1.557-14.999.006-1.1,1.255,4.759,12.152,1.059,13.406-.98.332-1.943.366-2.564-.688Z"/>
  <path class="cls-104" d="M406.5,195.299c1.985-1.797,6.028-7.947,7.5-10.476,2.113-5.096,4.113-10.334,6-15.714,1.93-6.284,3.43-12.519,4.5-18.707.94-15.87-1.275-32.029-8.25-46.393,1.245-1.134,1.397.922,1.722,1.651,12.768,28.665,10.568,63.562-9.245,88.491-.267.335-1.894,2.662-2.227,1.147Z"/>
  <path class="cls-110" d="M248.25,35.169c-.181.445-.755,1.152-.75,1.497-4.363,1.316-35.805,4.593-37.272,2.108-.399-.677-.364-.812-.089-1.517,1.241-3.182,35.506-5.19,38.11-2.087Z"/>
  <path class="cls-19" d="M265.5,96.527c1.637.47-.17,2.117-.597,2.773-12.425,19.117-16.897,38.119-12.554,60.856,1.64,8.588,6.073,15.864,8.644,23.915-1.065.261-.717-1.088-1.492-1.493-3.957-9.435-9.003-19.082-9.006-29.555-.091-.369-.415-.41-.744-.376-1.455-20.74,3.322-39.472,15.75-56.12Z"/>
  <path class="cls-50" d="M156.75,107.003c-3.685.503-7.284,1.283-10.797,2.338.621,6.714.72,13.418.297,20.11.062,12.185.669,24.426.75,36.665.312,12.729.312,25.449,0,38.162l-3.038-95.39c.559-3.065,10.144-3.41,12.788-1.886Z"/>
  <path class="cls-82" d="M326.25,38.91c2.972-.663,6.027-.651,9,0,1.829-1.387,4.595-.732,6.75,0,2.677-.364,7.183-.744,9.375.748.111-.447.226-.795.349-.799,3.813-.106,8.003.109,11.651.799,3.849.398,7.916.525,12.201.381l2.424,1.116c.481.759.999,1.498,1.5,2.245l-5.71-1.411c-16.922-1.156-33.929-2.833-50.946-2.361-9.094.253-23.38.722-32.046,2.48-3.272.664-2.234.86-3.814,2.874-.5.637-.906,2.398-1.985,1.411.944-1.58,2.19-3.65,3-5.238,1.133-1.352,3.133-1.601,6-.748,10.489-1.605,21.747-2.58,32.25-1.497Z"/>
  <path class="cls-118" d="M419.25,41.155c2.178-.458,6.482-.248,7.5,1.497.951,1.919,1.617,6.649-.75,7.483-2.694,1.447-8.009-.362-11.25-1.497-.574-1.828.41-6.03.003-8.232,1.588-.28,3.033.552,4.497.749Z"/>
  <path class="cls-89" d="M248.25,35.169c-6.081-.986-12.914-1.06-19.117-.741-3.991.205-11.05.796-14.817,1.68-2.272.533-6.103,2.492-1.702,2.803,2.737.193,5.546-.144,8.292.031l26.594-2.276c0,.061.874.211.756.736-1.46-.138-2.818.489-4.224.67-8.456,1.087-19.974,2.273-28.39,2.389-1.835.025-7.394-.176-6.375-3.39.437-1.381,6.315-2.296,7.948-2.558,4.859-.779,13.003-1.543,17.875-1.615,3.65-.054,9.144.205,12.668.891,2.074.404.794.634.491,1.381Z"/>
  <path class="cls-92" d="M402.75,137.682c.948,17.885-2.88,31.595-12.75,46.393-1.556-.458,0-2.231.431-2.939,14.965-24.624,16.214-50.573.166-75.101-.429-.655-2.233-2.305-.597-2.773,7.545,10.337,12.068,21.549,12.75,34.42Z"/>
  <path class="cls-74" d="M364.5,77.82c-23.902-10.973-52.832-8.527-74.25,6.734-1.58-.422.892-1.873,1.254-2.117,21.452-14.434,47.58-16.082,71.353-6.346.392.161,3.345.987,1.643,1.729Z"/>
  <path class="cls-5" d="M272.25,103.261c-9.048,13.844-12.125,30.88-9.75,47.141l1.178,1.053c1.997,7.841,4.604,15.472,7.822,22.891-1.148.638-.501.885-1.384-.49-13.13-20.439-12.517-46.391-.992-67.352.422-.768,1.861-4.136,3.126-3.244Z"/>
  <path class="cls-64" d="M272.25,173.599c-5.913-8.479-8.842-20.003-8.25-30.679,1.965-17.868,3.338-28.184,15-42.651,1.791.63-.256,2.011-.716,2.655-14.115,19.759-16.076,39.911-8.302,62.836,1.024,3.019,3.514,4.987,2.267,7.84Z"/>
  <path class="cls-27" d="M466.5,105.506l.739-.751c-.332,25.983,1.332,51.814.753,77.819l-1.492-6.731c-.635-2.637-.627-5.58,0-8.231l-.957-5.737c.515-15.279.834-30.577.957-45.894v-10.476Z"/>
  <path class="cls-48" d="M294,95.779c-1.5-.637,1.636-2.6,2.005-2.865,20.247-14.533,46.673-16.583,68.48-4.228,1.836,2.413-1.139.325-1.485.358-22.446-12.251-49.201-8.814-69,6.734Z"/>
  <path class="cls-1" d="M370.5,85.303c-.45,1.503-2.245-.001-3.009-.366-21.074-10.06-38.967-12.425-61.222-3.481-.961.386-2.537,1.674-3.268.106,22.056-10.489,46.686-8.677,67.5,3.741Z"/>
  <path class="cls-112" d="M207.75,85.303c-13.322,2.549-26.953,2.787-40.5,2.993l-1.818,1.014-10.932-1.014-4.192-.434c-1.861,1.078-5.916,2.288-7.058-.314l-5.996-1.489c8.387.588,16.736.61,25.152.71,10.864.129,21.912.119,32.963-.724,2.833-.216,10.419-2.445,12.381-.742Z"/>
  <path class="cls-54" d="M192.75,110.744c.12-.014.161-.942.741-.748-.16,18.593-1.876,37.151-1.527,55.782.121,6.463,1.505,13.461.789,20.165-1.063,1.213-.735-.835-.754-1.482-.078-2.71.693-6.273-.75-8.617-.886-16.935-.951-33.998.75-50.882-1.03-4.969-.78-9.708.75-14.217Z"/>
  <path class="cls-8" d="M143.25,87.548c3.517-.058,8.192-.586,11.25.748-3.344.182-2.844.431,1.5.748,2.373.325-.421,6.23-1.683,6.64-2.692-1.109-5.381-1.826-8.067-2.15-1.538-.237-3.038-.985-4.5-2.245-1.277-1.221-2.998-2.092-3.75-3.734,1.744-.036,3.505.021,5.25-.007Z"/>
  <path class="cls-19" d="M252,100.268c-5.33,9.769-7.881,19.727-9,30.679-.353,1.222-.137,2.264.647,3.125-.524,6.965-.489,13.905.103,20.819.293,2.793,2.588,10.021,3.75,12.721-.659,1.93-2.021-2.629-2.075-2.794-7.042-21.484-5.418-42.826,4.677-63.075.183-.367,1.333-3.13,1.898-1.475Z"/>
  <path class="cls-49" d="M292.5,97.275c-17.615,15.042-23.875,36.806-17.25,59.113-.444.14-.127,1.678-.914-.196-8.251-19.655.532-44.263,15.526-58.18.605-.562,2.001-2.505,2.638-.737Z"/>
  <path class="cls-61" d="M141.75,91.289c1.528.672,2.965,1.593,4.5,2.245,4.051.965,8.042,1.623,11.972,1.974l1.528,1.767c13.453,1.96,32.701.318,44.25-7.483,1.573.408-.899,1.929-1.247,2.125-15.239,8.586-48.514,11.312-61.003-.628Z"/>
  <path class="cls-73" d="M434.25,164.62c-.851-1.946,1.801-5.03,2.186-7.921.34-2.546.588-14.147-.987-15.35-1.587-1.212-4.747-.004-5.549-2.695.76-2.696-2.381-15.962.283-16.611,1.195.114,2.288.688,3.453.922.475.095,3.263.513,1.364,1.248-.75.424-1.75.424-3,0-1.261.675-1.761,2.421-1.5,5.238.116,1.18-.518,3.095.75,3.741-.294,3.636.706,5.631,3,5.986-.006.187,2.617,2.011,3,2.245,1.915,6.986,2.541,17.705-3,23.196Z"/>
  <path class="cls-108" d="M192,124.961c-.704,16.974-.484,33.854-.75,50.882-.052,3.343.01,6.711.041,10.062-.244.907-1.628.23-2.291.414-1.153-.09-2.516.484-2.246-.741.59-.149,3.746.179,3.746-.008v-20.577c0-1.52-.72-4.651-.75-7.109-.135-10.894,1.075-22.278,1.5-32.924.213-.653.463-.644.75,0Z"/>
  <path class="cls-82" d="M386.25,109.996c11.719,16.284,11.025,37.443,4.517,55.762-.068.191-1.479,5.173-2.267,3.351,3.099-6.563,5.961-17.457,6-24.693l-.791-1.372c.475-9.569-2.24-18.816-5.209-27.811-.781-1.727-1.981-3.291-2.25-5.238Z"/>
  <path class="cls-103" d="M216,53.876c-1.401-.306-.139-1.351,1.125-1.497l52.125-3.741-53.25,5.238Z"/>
  <path class="cls-105" d="M232.5,141.423c.769,5.285,1.079,10.605.931,15.962l-.931,1.249,1.032.504c.029,4.142.185,8.214.468,12.216,2.163,6.08,4.523,12.139,7.5,17.959-.089-.036-.212,1.166-1.494-.323-7.307-8.485-9.695-32.484-8.997-43.442l1.492-4.125Z"/>
  <path class="cls-41" d="M245.25,189.313c-3.27-5.593-5.77-11.579-7.5-17.959-1.556-3.991-2.306-7.981-2.25-11.972-1.932-.105-2.247-1.004-.75-2.245-2.202-1.983-1.857-7.774-.75-10.476l.742-5.234c-.205,15.578,4.662,30.397,10.4,44.626.386.958,1.682,2.527.107,3.259Z"/>
  <path class="cls-78" d="M272.25,173.599c-.121.276-.478.597-.75.748-4.46-7.433-7.736-15.293-9-23.945,1.453-2.095,1.237-5.093,1.5-7.483l3.213,18.12,5.037,12.559Z"/>
  <path class="cls-53" d="M414.75,90.541c.046-.025-.107-.874.736-.74l.518,1.483c15.331,1.539,30.64,3.209,45.996,4.495.358-.465.608-.465.75,0,.025.222.814.937.75,1.497-14.414-.902-30.937-2.703-45.3-4.576-1.237-.161-3.72-.222-3.45-2.158Z"/>
  <path class="cls-81" d="M441,161.627c.533-2.426,1.33-5.19,2.25-7.483-.305-3.775-.61-8.143,0-11.972-.67-6.243-2.67-11.73-6-16.462.553-1.7,2.123.102,2.651.723,4.844,5.703,6.964,29.367,2.194,35.186-.665.811-.745,1.066-1.095.008Z"/>
  <path class="cls-113" d="M336,133.192c.236-3.319.626-2.849,1.5-5.238,12.371-3.036,4.886,14.94-1.5,5.238Z"/>
  <path class="cls-63" d="M290.25,63.603c-13.378,6.84-23.499,15.556-32.25,27.686-1.606-.764.995-3.438,1.52-4.095,7.23-9.053,17.34-17.978,27.717-23.228.746-.378,2.582-1.848,3.013-.363Z"/>
  <path class="cls-49" d="M386.25,52.379l-12.75-38.162c.045.029.411-.855,1.07-.066,2.67,3.194,10.837,29.995,11.945,35.38.293,1.424.8,1.466-.266,2.848Z"/>
  <path class="cls-19" d="M243,89.044c1.973-4.264.165-9.332-4.868-9.787-10.504-.95-10.738,15.278,1.118,12.78-.008.059.661.409.761.731-8.254,3.016-15.306-6.82-7.904-12.722,7.307-5.826,16.127,2.689,11.968,9.063-.581.891-1.031-.096-1.075-.065Z"/>
  <path class="cls-107" d="M156.75,107.003c2.477-.114,5.017.006,7.5,0v6.734c-.141-1.385-1.492-3.827-.746-5.99-2.373.008-16.553.628-17.164,1.59.72,5.836.712,11.693.716,17.583,0,1.377-.806,2.397-.805,2.53l-.754-21.704c3.806.281,7.477-.57,11.254-.745Z"/>
  <path class="cls-51" d="M438.75,52.379c-.036.177-.524.56-.75.748-1.89.54-5.199.266-6-1.497.011-2.215.012-4.448.005-6.698l1.495-.785c4.066-1.804,6.77,4.143,5.25,8.231Z"/>
  <path class="cls-11" d="M382.5,105.506l-.371.735-3.007-2.977-1.121,1.494c-3.525-5.015-7.636-8.805-11.996-13.098-.119-.555.786-.512,1.112-.365.571.258,5.502,4.097,6.394,4.849,3.04,2.564,6.374,6.32,8.991,9.362Z"/>
  <path class="cls-86" d="M360,122.716c-.044.061.947.48-.287,1.485-5.457,4.443-16.168,2.463-18.477-4.473l-1.089.012c-1.487,2.26-3.93,3.204-5.647,4.473.846-2.125,5.581-4.918,6-6.734,3.679,7.818,12.36,10.248,19.5,5.238Z"/>
  <path class="cls-2" d="M245.25,189.313c.527,1.235,2.231,3.141,1.118,4.497-2.521-.477-3.171-2.88-4.118-4.497.618-1.323,1.086-.611,1.532.578.639,1.703-9.588-17.388-6.032-18.536,2.212,5.98,4.991,12.075,7.5,17.959Z"/>
  <path class="cls-32" d="M147.75,204.278c-.247.024-.501-.018-.75,0-.062-12.708.084-25.454,0-38.162l.75,38.162Z"/>
  <path class="cls-60" d="M276,156.389c.858-7.944,4.459-15.556,8.25-22.448,1.506.449-.001,2.24-.367,3.002-1.043,2.175-2.348,4.27-3.205,6.528-1.353,3.565-2.053,8.712-3.351,11.655-.454,1.03-.96.897-1.326,1.262Z"/>
  <path class="cls-68" d="M438.75,52.379c.261-1.283-.456-5.674-1.153-6.705-1.064-1.573-2.84-1.1-4.097-1.526-1.16,1.916-6.61.68-6.75-1.497-2.799-.614-4.477-1.089-7.5-1.497.76-1.264,2.808-.81,4.026-.667,6.491.764,20.061,2.411,15.474,11.891Z"/>
  <path class="cls-77" d="M336,133.192c7.261,7.458,12.19-6.687,1.5-5.238.018-.048-.668-.367-.75-.703,14.909-3.191,5.686,15.694-.834,7.823-1.166-1.407.068-1.66.084-1.882Z"/>
  <path class="cls-58" d="M234,146.661c.048,3.318.249,7.222.75,10.476.472,1.44-1.16,2.718-2.25,1.497-.32-5.693.233-11.507,0-17.21l1.5,5.238Z"/>
  <path class="cls-95" d="M168,80.065c.981-.764,4.745.531,6,1.497-5.516.421-18.214-.231-23.25-2.245l17.25.748Z"/>
  <path class="cls-20" d="M426,50.134c.909-2.162,6.034-.765,6,1.497,1.812.427,3.872,1.621,6,1.497-1.065.887-1.088.806-2.481.711-3.41-.235-15.43-2.781-18.701-3.909-.764-.264-1.773-.354-2.067-1.291,3.473.828,7.948.82,11.25,1.497Z"/>
  <path class="cls-56" d="M400.5,58.365c4.426,10.74,9.621,21.202,13.5,32.176-.2.122-.286.712-.731.76l-16.952-39.67c-.419-1.296-.536-1.269.433-2.245,1.459,2.894,2.517,5.988,3.75,8.979Z"/>
  <path class="cls-97" d="M435,124.213c.128.045,1.797,1.195,2.25,1.497,1.956,1.302,2.652,2.084,3.594,4.272,1.253,2.91,2.159,8.999,2.406,12.19-.068.527-.136.847-.75.748-1.962-8.21-.68-15.893-10.5-18.707.884.138,2.351-.227,3,0Z"/>
  <path class="cls-47" d="M434.25,165.368v-.748c4.788-6.595,4.292-15.521,3-23.196.043.026.38-.631.683-.726,1.177,6.362,1.925,16.371-1.279,22.209-.866,1.577-1.628,1.613-2.404,2.461Z"/>
  <path class="cls-106" d="M242.25,189.313c-.237-.074-.545.083-.75,0-3.612-5.399-6.191-11.594-7.5-17.959,0-.642.05-.935.75-.748l1.573.816c1.452,5.878,3.628,11.587,6.458,16.94l-.532.951Z"/>
  <path class="cls-67" d="M175.5,80.813c-.202.728-.865.7-1.5.748l-6-1.497c-4.133-2.527-8.562-2.497-10.5-7.483,4.448,3.995,12.049,7.479,18,8.231Z"/>
  <path class="cls-119" d="M375,154.892c-1.448-.881.335-3.218-.006-3.74l-1.494.747c1.13-1.918,1.686-5.975,3.742-7.479.018,3.6-1.121,7.126-2.242,10.472Z"/>
  <path class="cls-12" d="M432.75,170.606c-.543.737-1.384,5.35-3.743,5.986.75-2.538,1.079-5.939,2.243-8.231l1.5,2.245Z"/>
  <path class="cls-9" d="M270,91.289c2.743-3.115,5.107-5.507,8.25-8.231l-3.75,4.864-4.5,3.367Z"/>
  <path class="cls-100" d="M401.25,196.795c-.705,2.323,1.368.937,3,0-1.561,2.358-4.651,3.925-7.118,5.245.013-1.699,3.64-4.19,4.118-5.245Z"/>
  <path class="cls-93" d="M192.75,110.744c-1.478,4.407-.557,9.559-.75,14.217h-.75c.183-4.588-.768-9.929.75-14.217.223.031.526.027.75,0Z"/>
  <path class="cls-83" d="M466.5,175.844c-.019.746.037,1.5,0,2.245-1.307-1.222-.773-4.136-.75-5.986-.866-3.281-.616-4.777.75-4.49-.026,2.735.07,5.498,0,8.231Z"/>
  <path class="cls-2" d="M441,161.627h-.75c.775-1.753,2.043-5.683,2.25-7.483.213-.653.463-.644.75,0-.23,2.374-1.063,5.368-2.25,7.483Z"/>
  <path class="cls-111" d="M186.75,223.733c7.546,6.529,14.546,13.513,21,20.952-.033.495.022,1,0,1.497l-18.765,16.076c-3.333,1.589-8.286-1.887-11.441-.991-1.602.455-11.354,10.196-13.68,11.846-1.103.163-1.345.078-1.073-1.067.958-4.028,4.085-8.344,5.197-12.037.315-1.046-.078-1.33-1.104-1.101l-40.515,27.675c-1.255-.782.33-1.635.755-2.24,3.92-5.583,21.527-33.154,25.19-34.76.873-.383,1.731-.232,2.184-.409l.561-1.774c4.003-1.038,7.794-2.526,11.373-4.465,2.445-6.864,5.467-13.264,9.066-19.202.873-2.433,2.065-4.846,2.25-7.483,2.036,1.999,6.406,5.121,9,7.483Z"/>
  <path class="cls-17" d="M284.25,212.509c-4.369,5.869-7.422,13.79-12.129,19.701-8.684,10.907-21.281,12.385-32.218,19.487-8.554,5.554-14.762,14.96-23.896,19.925-.258-1.265.615-1.983,1.196-2.915,2.226-3.566,14.473-22.525,16.399-24.045,1.984-1.566,11.267-3.44,14.635-4.854,11.216-4.71,28.016-18.304,35.263-28.048l.75.748Z"/>
  <path class="cls-37" d="M78.004,290.322l26.184-18.398c1.974-1.208,1.047,1.373,2.623,1.225,5.745-.54,18.445-17.942,25.932-19.485.329,1.405-.785,1.78-1.491,2.621-14.431,17.174-31.853,27.404-53.248,34.037Z"/>
  <path class="cls-96" d="M175.5,223.733c-1.363,3.8-6.112,17.833-7.923,20.156-1.517,1.946-10.251,4.186-13.077,5.285-1.569-1.321-1.774-.124-.731-1.844,5.829-9.612,6.653-10.257,14.981-17.611,2.372-2.095,4.354-4.825,6.75-5.986Z"/>
  <path class="cls-29" d="M255.746,234.944c-.119.162-3.563,1.69-3.742,1.506-.352-.362.517-2.366.939-2.785,1.771-1.757,3.524.298,2.802,1.279Z"/>
  <path class="cls-55" d="M206.25,241.692c1.224,1.37,1.592,1.599,1.5,2.993l-21-20.952c6.222,5.666,13.754,11.528,19.5,17.959Z"/>
  <path class="cls-57" d="M243,130.947l.742,2.989,2.254-2.994c.097,1.234-.111,2.516.003,3.746-3.436,6.114-1.926,12.028-1.437,18.351.128,1.657-.823,1.751-.813,1.852-.963-7.32-2.041-14.701-1.53-22.133.067-.981.764-1.653.78-1.812Z"/>
  <path class="cls-120" d="M424.5,150.403c.324,5.995-2.474,13.369-4.5,18.707,1.933-7.604,3.656-15.273,3-23.196.131.839,1.462,3.782,1.5,4.49Z"/>
  <path class="cls-127" d="M417,163.123c-1.831,7.73-4.298,14.307-8.25,20.952,2.347-7.143,6.081-14.277,7.5-21.7l.75.748Z"/>
  <path class="cls-10" d="M338.25,91.289c.655.212.645.462,0,.748-5.499,1.372-14.506,5.683-19.563,8.54-.726.41-2.448,2.02-2.937.439,5.609-3.833,15.894-8.134,22.5-9.728Z"/>
  <path class="cls-114" d="M294.75,118.975c3.002-3.568,6.241-6.668,9.75-9.728,1.497.317-.781,1.9-1.126,2.245-1.5,1.496-2.998,2.994-4.499,4.49l-4.125,2.993Z"/>
  <path class="cls-101" d="M348.75,89.793l2.996.741c-4.187.128-9.476.501-13.496,1.504v-.748c3.437-.829,6.897-1.759,10.5-1.497Z"/>
  <path class="cls-24" d="M312,104.01l-5.61,4.495-.39-.754c1.803-1.455,3.66-3.142,6-3.741Z"/>
  <path class="cls-72" d="M340.5,111.492c.09,1.476.278,4.778,0,5.986-1.244-2.644-.697-4.66-.742-7.479l.735.002c.038.492-.023.996.008,1.491Z"/>
  <path class="cls-99" d="M355.5,22.448c3.257-.076,4.17.782,6.75,1.497,9.099-.632,11.667,8.007,13.5,14.965l-.533,1.139c-11.085-.397-22.157-1.026-33.217-1.887-15.557-.529-32.274.593-48.332,1.723-.031.002.124.23.332.521-1.429.155-3.839,1.455-6,.748.479-.94.834-2.38,1.5-3.741,1.809-4.149,3.978-8.147,6.506-11.994,6.103-1.629,12.852-2.428,18.994-2.223,2.668-.831,6.265-1.245,9-.748,10.448-.654,20.948-.654,31.5,0Z"/>
  <path class="cls-128" d="M375.75,38.91c.518-.036,1.018.463,1.5,1.497.162.252.564.455.75.748-4.119-.192-8.288-.416-12.406-.717-.968-.071-1.964-.779-2.219-.779h-12c-2.29,0-6.35-.672-9.375-.748-.655-.212-.645-.462,0-.748,4.107.123,8.305-.254,12.406-.031,6.823.371,14.722,2.395,21.344.779Z"/>
  <path class="cls-65" d="M315,22.448c.655.212.645.462,0,.748-3.381.29-16.583,1.496-18.731,2.638-1.594.848-4.325,8.075-5.416,10.318-.278.571-.648,3.111-1.353,1.261,1.343-2.744,3.834-11.021,6.037-12.309,2.683-1.569,15.542-2.352,19.463-2.656Z"/>
  <path class="cls-3" d="M355.5,22.448c-10.275.241-21.046-.493-31.5,0-.655-.212-.645-.462,0-.748,10.481-.443,21.067.069,31.5.748Z"/>
  <path class="cls-123" d="M377.25,40.407c-.16-.249-.959-.583-1.5-1.497-1.702-2.872-3.788-10.303-5.959-12.388-1.165-1.119-5.622-2.046-7.541-2.578,9.906-2.005,12.213,9.446,15,16.462Z"/>
  <path class="cls-85" d="M324,22.448c-2.522.119-6.198.508-9,.748v-.748c2.804-.218,6.49-.642,9-.748v.748Z"/>
  <path class="cls-102" d="M462.75,95.779l-.33.542c-.24-.102-.351-.536-.42-.542-.105-7.356-2.263-14.364-5.25-20.952,5.48,7.218,5.012,12.266,6,20.952Z"/>
  <path class="cls-34" d="M436.5,64.351c-.726,1.426-2.528.488-3.622.258-4.998-1.05-10.119-2.371-15.128-3.251-.655-.212-.645-.462,0-.748,6.257,1.038,12.62,2.103,18.75,3.741Z"/>
  <path class="cls-66" d="M405.75,59.113c3.953.552,8.059.843,12,1.497v.748c-3.842-.675-8.415-.748-12.36-1.522l.36-.722Z"/>
  <path class="cls-42" d="M453.75,71.834c-3.045-1.453-6.426-2.985-9.749-3.75-.132-.85.757-.688.749-.74,3.125.447,6.966,2.165,9,4.49Z"/>
  <path class="cls-1" d="M200.25,59.862c-.903.993-2.265,1.065-4.086.216,4.689,12.443-22.497,12.889-24.329,4.196-.75-3.559,3.347-4.216,2.165-1.419l1.591.22c14.5,9.579,29.06-7.73,1.603-.836l-1.694-.881c-5.397-.04-9.902,6.21-3.229,9.318,5.959,2.776,15.049,2.268,21.3.539,6.758-1.869,7.68-3.394,6.526-9.57-.111-.595.02-1.202.153-1.783,2.397,1.602,4.306,1.176,3.734,5.547-.993,7.588-15.91,10.435-22.141,10.199-18.02-.682-22.658-14.009-2.619-18.391,7.704-1.685,14.383-1.795,21.026,2.645Z"/>
  <path class="cls-79" d="M237,57.617c.834.042,2.444-.518,2.246.741-2.786-.375-6.557.919-8.996-.741,2.169-.1,4.583-.108,6.75,0Z"/>
  <path class="cls-26" d="M246.75,56.869c.957.028,3.787-.613,3.746.741-2.786-.375-6.557.919-8.996-.741,1.741-.027,3.511-.052,5.25,0Z"/>
  <path class="cls-22" d="M394.5,144.416c-2.27.417-1.446-1.146-1.5-2.585-.102-2.72.188-5.454-.097-8.168l-4.403-18.429c4.184,9.251,6.055,18.981,6,29.183Z"/>
  <path class="cls-121" d="M466.5,167.613c-1.259.814-.732,3.078-.75,4.49-.84-2.414-1.246-6.009-1.497-8.609-.687-7.117-1.706-15.792-1.503-22.819.028-.955-.613-3.78.742-3.738l.761,14.584,1.489,9.353c.134-13.583-.149-27.196-.005-40.788.013-1.265-.479-3.328.763-4.105,0,17.194.164,34.439,0,51.631Z"/>
  <path class="cls-121" d="M462,135.437c-.019-1.74-.041-3.499,0-5.238.025-1.082-.646-4.332.742-4.486-.392,3.026.935,7.029-.742,9.724Z"/>
  <path class="cls-6" d="M156,89.044c3.156-.335,6.349-.332,9.58.009,1.021.228,1.231,7.715-1.33,7.474-1.416.02-3.684-.509-4.5.748-4.431-.645-9.385-1.994-13.5-3.741,1.255-1.935,7.204,1.789,7.489,1.5l2.261-5.99Z"/>
  <path class="cls-124" d="M154.5,88.296c4.239-.069,8.511.065,12.75,0-2.361,2.863,3.149.892,3.754,1.493.272.27-.198,5.557,0,6.742-2.244.021-4.509-.035-6.754-.004l.75-6.727c-3.01-.341-5.969-.577-9-.755-2.229-.131-4.514.102-6.746-.008.429-1.408,3.975-.72,5.246-.741Z"/>
  <path class="cls-69" d="M414,184.823c-1.506-.449.001-2.24.367-3.002,2.011-4.193,3.984-8.367,5.633-12.711-1.584,6.233-2.696,10.038-6,15.714Z"/>
  <path class="cls-62" d="M443.25,154.144h-.75c.404-3.513-.289-7.625,0-11.224l.75-.748c.258,3.327.318,8.69,0,11.972Z"/>
  <path class="cls-40" d="M431.25,133.192c.033-.88-.575-3.141.742-2.989.654,3.706-2.129,9.508,3.018,8.242-.088.346-.757.638-.76.733l-3.003.004c.052-1.988-.071-4.004.003-5.99Z"/>
  <path class="cls-14" d="M432,124.213l-.744.376c-.296,1.461.72,3.939-.756,4.862-.198-2.021-.67-3.957-.746-5.982,1.146-.498,1.941.697,2.246.744Z"/>
  <path class="cls-70" d="M342,38.162v.748c-2.241-.057-4.507.014-6.75,0-2.965-.645-6.03-.669-9,0-10.505.148-21.818.362-32.25,1.497l-2.996-.741c15.32-1.056,30.745-2.499,46.156-2.287,1.871.026,3.491.742,4.841.783Z"/>
  <path class="cls-99" d="M335.25,38.91c-2.99-.018-6.011-.042-9,0,2.001-1.246,6.847-1.274,9,0Z"/>
  <path class="cls-109" d="M433.5,44.148c.069,2.524-.464,5.145.749,7.475l-2.249.007c-1.924-.453-4.309-1.15-6-1.497.323-2.351-.848-5.707.75-7.483,2.599.571,3.842.511,6.75,1.497Z"/>
  <path class="cls-21" d="M235.5,159.382c-.213.653-.463.644-.75,0-.258,3.512.035,6.994.879,10.447l-.879.777-.75.748c-.738-3.586-1.291-9.006-1.5-12.721l2.25-1.497c.045.295.576,1.163.75,2.245Z"/>
  <path class="cls-58" d="M237.75,171.354c-3.422-1.38-3.278-8.373-3-11.972h.75c.57,3.552,1.422,8.562,2.25,11.972Z"/>
  <path class="cls-116" d="M237.75,171.354c.886,3.648,1.878,7.151,3.175,10.675,1.023,2.78,3.422,6.123,3.203,8.777-.562-.52-1.135-1.261-1.879-1.493-2.829-4.834-6.49-13.279-7.5-18.707-.521-2.798-1.169-8.772,0-11.224-.171,4.227,1.575,8.12,3,11.972Z"/>
  <path class="cls-36" d="M200.25,59.862c2.369,1.355,2.945,5.44,1.538,7.898-4.196,7.332-27.325,8.626-33.055,2.224-3.877-4.332,1.154-9.328,5.662-10.113,2.107-.367.199,1.149,1.104,1.487,1.584,1.814.473,2.842-1.5,1.497-.052.008-.223-.881-.737-.754-1.226,5.348,8.452,6.816,12.246,6.687,5.344-.183,14.289-4.403,7.532-9.589l-5.537-1.573c3.124-.02,10.145.749,12.746,2.237Z"/>
  <path class="cls-45" d="M174,62.855c1.022-.163,1.279-1.382,1.5-1.497,3.931-2.044,15.817-4.131,18.398-.014,4.234,6.757-18.876,8.665-19.898,1.51Z"/>
</svg>