<?xml version="1.0" encoding="UTF-8"?>
<svg id="Layer_1" data-name="Layer 1" xmlns="http://www.w3.org/2000/svg" viewBox="0 0 624 324.75">
  <defs>
    <style>
      .cls-1 {
        fill: #696e76;
      }

      .cls-2 {
        fill: #013166;
      }

      .cls-3 {
        fill: #182230;
      }

      .cls-4 {
        fill: #fdfdfe;
      }

      .cls-5 {
        fill: #025d96;
      }
    </style>
  </defs>
  <path class="cls-4" d="M624,0v324.75H0V0h624ZM362.078,3.158c-.615-.317-11.756-.853-13.673-.944-12.655-.603-25.737.006-38.289.771-7.788.475-15.95-.821-22.278,5.245-1.683,1.614-2.077,3.647-3.137,4.956-3.518,4.344-10.891,8.672-12.498,15.405l-6.039,9.699-4.794,5.854c-2.233-5.125.091-12.189-7.069-13.891-5.2-1.237-20.638-.616-26.708-.353-6.66.289-13.294,1.111-18.923,2.965-1.97.649-4.023,1.099-5.993,1.729l-3.149,12.201c-8.995.578-17.974,1.651-26.878,3.112-14.388,2.361-16.567,3.919-28.197,11.9-2.426,1.665-7.074,3.475-9.138,5.476-8.566,8.304-10.253,21.247-10.808,32.619-1.93,39.505,1.949,79.656.707,118.932-.112,3.532-.433,8.117.762,11.308,2.027,1.501,17.241-10.534,20.045-12.335.967-.621,1.703-.79,3.288-1.819,8.817-5.725,17.763-11.308,26.629-16.963l42.214,24.637,100.243-72.5,85.616,65.716,41.144-26.152,34.838,24.776-2.212-118.632c-.86-11.513-2.5-27.415-12.831-34.339-2.743-1.839-12.797-4.389-14.002-5.86-2.167-2.646.871-9.323-3.909-13.684-3.266-2.98-12.046-3.122-16.726-4.129-2.237-.481-6.283-2.399-10.03-2.849-4.607-.553-9.518-.109-14.153-.845-3.444.655-3.075,6.954-3.001,9.729-6.526-6.767-9.717-21.965-16.931-28-1.186-.992-3.086-1.207-3.881-1.919-6.702-6-5.028-7.686-15.379-10.297-3.009-.759-2.302-.199-4.859-1.518ZM312.75,164.62c-4.079,2.886-7.705,6.015-11.623,8.981-28.393,21.503-57.071,42.756-84.757,65.094-.901-2.813-4.901-3.424-6.37-4.486-.185-.134-1.592-1.918-3-2.993-6.537-4.992-12.981-10.443-19.11-14.946-1.638-1.203-10.047-7.602-10.927-7.872-3.685-1.129-3.862,2.182-4.463,2.614-49.761,35.854-103.552,69.367-154.663,102.704-1.502.98-12.481,5.648-10.332,8.037,5.577-.864,10.839-3.063,16.308-4.299,1.85-.418,3.786.054,5.637-.362,21.876-4.919,50.314-13.612,72.187-15.528,2.548-.223,7.292-.325,9.752-.013,1.042.132,2.172.402,1.109,1.487l-29.993,12.74c-.161,1.288,2.639.839,3.373.744,10.55-1.364,24.442-6.402,35.468-8.764,32.852-7.038,64.726-11.155,98.033-15.179,23.964-2.895,49.779-4.769,74.621-4.496,35.265.388,70.865,4.175,105.994,5.526,4.555.175,10.544,2.011,15.201,2.635,6.239.836,12.78,1.501,19.055,1.566,2.918,1.269,15.972,3.486,19.271,3.49,1.886.002,3.067-1.688,4.729-.497-.1.593-.251,1.347.494,1.514,9.605,1.213,19.26,2.651,28.756,4.472,16.334,3.133,32.763,6.68,48.743,11.224.314-1.507-.702-1.76-1.709-2.403-7.282-4.656-14.384-8.045-21.534-13.31l17.25,2.245,7.5.748c-.032.334.006.641.378.741,6.005.24,11.787,1.85,17.622,3,21.757,4.289,42.782,9.914,64.312,14.78.513.116,3.155.759,2.071-.567l-102.763-65.09,3.38,6.356c5.758,5.94,10.938,11.85,15.746,18.325l-41.629-22.433c-.86.465-.304,2.238.038,2.956,2.058,4.317,7.184,9.845,9.518,14.448.339.668,1.137,2.359.207,2.787-5.738-5.024-11.832-9.637-17.639-14.577-6.028-5.129-11.448-11.242-18.058-15.656-2.506-1.673-9.577-7.056-11.176-3.448,2.251.246,3.383,5.18,4.452,7.149,1.028,1.894,4.023,5.419,4.534,6.719.354.902-.212,1.494-1.107,1.104-1.489-.65-9.827-8.15-11.196-9.785-1.253-1.497-2.88-4.139-3.846-5.891-.989-1.796-7.608-15.41-7.738-16.302-.367-2.524,5.522-5.5,6.539-8.198l-2.895-12.944c12.329,9.773,24.214,20.151,37.249,29.06l1.748.118c.361-2.292-1.799-3.76-3.352-5.253-8.329-8.009-17.46-15.154-26.284-22.414-2.812-2.314-5.367-6.169-8.999-8.225-4.941-2.797-4.806-.009-8.611,2.223-9.14,5.362-17.898,11.33-27.173,16.449-5.669,5.088,7.694,10.051,9.425,14.729,13.536,13.539,31.579,26.477,44,41.028.713.836,1.814,1.222,1.491,2.617l-76.875-50.871c-1.603,4.641,4.228,7.97,6.671,11.303,5.388,7.352,10.663,14.78,16.069,22.129.521.709,2.333,2.411,1.273,3.22l-45.38-36.66c-.574-.605-3.867-3.66-4.496-2.989l4.129,14.198c-5.686-5.102-10.017-11.444-15.084-17.119-1.824-2.043-3.592-4.411-5.141-6.095-.757-.823-7.421-7.234-7.9-6.701-.07,1.3-.54,2.171-.191,3.516.527,2.035,4.497,9.185,5.794,11.463,5.263,9.244,12.323,18.013,17.629,27.312l-1.104,1.102-37.135-32.169-1.5,1.497c-.275.199-.522.493-.75.748-1.27,1.075-4.456,3.873-4.5,5.238-.306.21-1.184.187-1.867.725-2.787,2.194-4.821,5.569-7.876,7.506l-1.129-11.22c-3.257,2.744-6.3,5.666-9.398,8.582-6.054,5.698-13.469,13.916-20.28,18.676-.893.624-1.769,1.277-2.946,1.166-.301-1.159,1.127-.442,1.476-1.276.583-1.395.446-3.114,1.214-4.636,1.664-3.296,4.871-6.823,6.618-9.823,2.919-5.011,5.763-13.605,10.687-17.057,2.027-1.421,11.143-4.78,11.893-6.069-.071-3.964-1.365-7.873-1.843-11.76-.16-1.303.642-2.538.481-3.502-.141-.841-1.523-1.667-1.343-3.039.068-.516,1.357-.687,1.84-1.254,1.075-1.264,6.523-7.515,6.829-8.191,1.285-2.845,2.09-12.04,2.644-15.695.072-.475-.043-1.011,0-1.497.399-.335,7.408,4.283,8.201,4.912,11.281,8.94,21.99,18.24,33.785,26.937.75.553.704,3.08,2.27,1.443.183-1.529-1.272-4.762-2.25-5.987-2.862-3.584-12.215-11.751-16.131-15.334-6.068-5.552-13.269-10.526-19.177-16.019-1.857-1.727-2.768-5.767-6.155-4.819-1.283.359-3.267,2.903-4.295,3.629Z"/>
  <path class="cls-3" d="M362.078,3.158c2.556,1.319,1.85.759,4.859,1.518,10.351,2.612,8.676,4.297,15.379,10.297.795.712,2.695.926,3.881,1.919,7.214,6.035,10.405,21.234,16.931,28-.074-2.775-.443-9.074,3.001-9.729,4.636.736,9.547.292,14.153.845,3.747.45,7.793,2.368,10.03,2.849,4.68,1.007,13.46,1.148,16.726,4.129,4.78,4.362,1.742,11.039,3.909,13.684,1.205,1.471,11.259,4.021,14.002,5.86,10.331,6.925,11.971,22.827,12.831,34.339l2.212,118.632-34.838-24.776-41.144,26.152-85.616-65.716-100.243,72.5-42.214-24.637c-8.866,5.655-17.812,11.238-26.629,16.963-1.585,1.029-2.321,1.198-3.288,1.819-2.804,1.801-18.018,13.836-20.045,12.335-1.195-3.191-.874-7.775-.762-11.308,1.242-39.276-2.637-79.427-.707-118.932.556-11.372,2.243-24.315,10.808-32.619,2.064-2.001,6.712-3.81,9.138-5.476,11.63-7.981,13.808-9.539,28.197-11.9,8.905-1.461,17.884-2.534,26.878-3.112l3.149-12.201c1.971-.63,4.024-1.081,5.993-1.729,5.629-1.854,12.263-2.676,18.923-2.965,6.07-.263,21.509-.884,26.708.353,7.16,1.703,4.836,8.766,7.069,13.891l4.794-5.854,6.039-9.699c1.607-6.734,8.979-11.061,12.498-15.405,1.06-1.309,1.454-3.342,3.137-4.956,6.328-6.066,14.49-4.77,22.278-5.245,12.551-.765,25.634-1.374,38.289-.771,1.917.091,13.058.627,13.673.944ZM377.25,40.407c.947,1.669,2.63,3.02,3.768,4.846,1.471,2.359,2.626,5.42,4.474,7.127,1.089-1.488-8.31-29.351-9.921-33.12-2.352-5.504-3.23-7.063-9.28-8.7-13.764-3.726-52.382-3.619-66.461-.625-8.919,1.897-8.671,5.38-11.642,13.078-2.867,7.429-8.871,23.927-9.948,31.234-.245,1.66.324,1.33,1.103.348,2.564-3.233,7.583-10.727,9.406-14.187l31.844-2.276,15.817-.005,40.839,2.28ZM209.996,39.655c9.81-.154,19.862-.305,29.622-1.5,2.103-.258,4.872-.422,6.745-.753,2.992-.528,2.459-2.431-.737-2.983-8.104-1.399-22.356-.394-30.69.808-1.665.24-3.239,1.056-4.824,1.547l-.117,2.881ZM424.5,50.134c2.779,2.617,6.987,2.029,10.5,2.245,1.253.077,3.933,1.975,3.762-.372-.07-.965-.871-6.062-1.1-6.415-.644-.994-2.289-.476-2.662-.696-3.255-1.921-4.148-2.305-8.25-2.993-1.355-.227-3.173.087-4.773-.092-1.916-.215-6.447-2.348-7.111-.169-.49,1.608-.454,5.973.936,7.067l8.697,1.425ZM266.25,55.372c.881-2.088,3.072-4.648,2.637-6.723l-52.884,5.234,7.685,3.735c.497.368,1.013.963,1.311,1.495.295.528,2.25,5.31,2.25,5.612v11.224c2.873,2.106,6.857-1.273,10.875-1.183,8.071.182,9.811,6.138,11.723,12.675l2.788-.02c5.081-10.439,9.104-21.365,13.614-32.049ZM401.25,58.365c.433,1.057.476,2.901,1.137,4.478,4.065,9.697,8.526,19.29,12.558,28.999,11.722,2.009,23.613,3.293,35.448,4.532,2.839.297,3.121.944,3.7.991,1.78.144,3.497-.903,4.476-.853.288.015.371,2.235,4.931,1.511.496-.079,2.15-.719,2.278-1.252,1.049-22.438-.486-30.164-22.366-36.697-10.842-3.238-33.294-8.864-44.11-9.876-1.11-.104-2.055-.602-1.725.97s1.695,4.208,2.363,5.913c.31.79,1.263,1.167,1.311,1.284ZM156,65.1c-.007-.076-.417-1.089-.364-1.478-4.228,2.377-14.277,7.094-8.983,13.422,2.057,2.459,11.642,4.383,14.932,4.551,2.655.136,5.588-.821,7.166-.781,5.602.142,11.631,1.199,17.616.739,10.027-.771,28.694-6.86,30.355-18.38,1.037-7.193-7.372-9.348-13.187-9.953-15.505-1.614-36.461-.123-47.533,11.88ZM243.75,151.151c.476,6.769,5.477,21.323,9.486,26.749.751,1.017,5.167,4.193,4.776,1.309-.21-1.545-3.012-7.334-3.84-9.495-2.452-6.395-2.868-9.748-4.422-16.319-1.55-20.727,3.149-40.565,15.869-57.124,23.919-31.136,64.523-43.299,101.641-26.819,25.097,11.143,47.294,39.371,49.643,67.202.485,5.743-.788,12.021.846,17.489-2.367,9.66-3.637,19.056-8.098,28.212-.973,1.997-11.026,15.644-9.899,16.68,1.181.154,2.192-.19,3.207-.752,9.234-5.114,19.308-30.791,20.04-41.147,3.613-16.055,1.268-32.883-4.678-48.086-18.978-48.528-82.371-69.738-129.326-44.828-21.265,11.281-34.679,25.988-42.461,48.926-3.961,11.676-5.938,25.998-2.786,38.002ZM370.996,81.085c-36.65-20.47-84.005-8.997-102.628,29.154-7.014,14.369-8.082,29.814-5.111,45.402,3.422-3.152.672-9.8.673-13.843.009-39.392,35.992-69.488,74.725-67.001,30.178,1.938,59.602,28.273,63.888,58.228.77,5.379.083,9.788.166,14.733.014.816.313,3.778,1.904,3.386,1.068-.514,1.793-7.298,1.813-8.678.34-23.678-15.194-50.079-35.431-61.381ZM241.989,90.28c6.77-6.622-3.859-16.074-9.901-9.502-6.734,7.325,2.776,16.472,9.901,9.502ZM353.25,89.793c2.539.298,6.3,1.064,8.632.756,1.027-.136,2.196-.408,1.116-1.493-18.921-9.831-39.903-9.889-58.722.139-12.05,6.421-21.164,15.231-26.915,27.771-5.709,12.449-5.54,26.375-2.103,39.418l4.345-13.236c2.828-5.068,5.258-9.702,8.397-14.445,4.179,2.973,10.053,7.98,14.985,9.406,1.098.318,1.914-.446,2.559-.405.557.035.114,1.352,1.531,1.543,2.638.355,6.948-.671,9.219-2.075,8.077-4.994,14.215-9.912,21.198-16.34.924-.85,1.539-1.874,3.008-1.857.199.763,4.025,4.514,4.997,5.116,4.561,2.825,7.988,2.619,12.522.019,5.217-2.991,7.295-9.006,5.322-14.829-.163-.482-4.286-5.858-4.611-6.06-2.085-1.29-4.143-.84-6.23-.709-1.52-4.117.395-8.519.75-12.721ZM158.25,95.779l-.006,1.495c13.72,1.553,27.235,1.049,40.024-4.595,3.236-1.428,7.982-3.649,9.49-6.994l-43.408,3.475-.096,2.881-6.003-.003c.034-.704,1.069-2.701.747-2.988-3.969.464-11.308-1.671-12.786,2.973l-4.461-1.474c4.147,4.949,11.009,3.274,16.5,5.23ZM224.999,86.058c-2.045-.276-2.779,2.342-3.234,3.874-.461,1.554-2.37,11.791-1.925,12.49,5.799,2.164,12.204-.906,17.912-2.162.447-2.629-1.204-.662-2.775-1.306-1.101-.451-8.625-5.746-9.017-6.376-.585-.941-1.752-5.35-.959-6.52ZM368.256,178.85c-.498.934,10.772,6.449,12.379,2.984,6.553-10.423,12.32-20.696,13.147-33.27,1.115-16.95-2.124-34.302-14.635-46.572-4.375.997-.212,3.116.561,4.464,12.604,21.976,11.205,49.959-6.54,68.648-1.078,1.135-3.409,3.144-4.912,3.746ZM466.493,104.765l-31.495-2.996c-1.12,1.126,8.081,20.125,9.376,20.185,3.207-2.042-2.645-11.152-1.128-12.706l17.337-.313,3.674,47.449,2.247-6.35-.012-45.27ZM164.25,106.255c-2.66-.1-19.074.016-19.541,1.994l2.322,31.273-.027,64.753c.284.325,6.52-3.788,7.292-4.316,3.337-2.283,7.173-5.127,10.325-7.657,1.364-1.094,1.742-2.814,3.174-3.562,1.664-.869,16.71-1.494,19.98-1.793.736-.067,3.336-.416,3.52-1.089-1.087-25.133-.194-50.01.7-75.108-5.107.365-10.709-3.017-15.415-3.71-2.438-.359-4.68.781-5.579.712-1.15-.089-3.617-1.379-6.75-1.497ZM430.506,173.594c1.419,1.147,4.519-5.889,6.281-6.07.957-2.803,3.744-5.297,4.846-7.886,2.879-6.766,1.828-22.644-1.009-29.437-1.695-4.059-5.76-4.473-9.006-6.729-.908,2.018-1.647,5.626-1.107,7.723.15.58,1.482.482,1.505.931.072,1.397-1.503,3.51-.671,5.836l.639.862c5.037.642,3.843,1.243,5.338,4.265.35.707,1.341.605,1.325.913-.267,5.429-.372,15.324-3.307,19.835-.955,1.468-7.776,7.381-4.834,9.758ZM373.97,158.374c.215-1.155,2.898-8.819.655-8.705-4.319,5.643-7.017,11.173-12.366,16.082-1.206,1.107-7.763,4.877-6.755,6.338,3.042.621,4.799,4.358,8.252,2.643,1.72-.854,8.463-12.782,9.07-15.495l1.144-.862ZM233.25,154.892c-.184.797.079,2.053,0,2.993-.792,9.412,1.894,22.109,7.197,29.857.435.635,3.554,4.95,4.045,4.562,1.998-4.282-2.142-8.483-3.399-11.938-1.963-5.398-3.923-12.094-5.402-17.823-.487-1.886.609-3.708-1.69-4.658,1.077-.497.792-2.022.75-2.993-.029-.682.354-2.053-.375-2.252-.357-.007-1.016,1.781-1.125,2.252ZM402.75,158.634c-.112.549-.615,2.591-.75,2.993-.161.482-.668,2.159-.75,2.245-3.405,3.558-4.551,8.906-7.371,13.971-2.522,4.529-6.036,8.565-8.761,12.951,6.905-5.416,12.79-14.009,15.962-22.229.713-1.848.528-3.38.921-4.694.517-1.733,1.464-2.105,1.5-2.245.152-.597-.086-1.536,0-2.245.159-1.307.273-2.413-.008-3.738h-.735c-.138.944.17,2.121-.008,2.989Z"/>
  <path class="cls-2" d="M312.75,164.62c1.249.359-.823,1.711-1.075,1.909-2.696,2.111-5.88,3.945-8.587,6.037-.904.699-1.875,1.106-1.584,2.526,3.321.569,9.164-4.042,12.057-1.922.997.731.021,2.823,1.431,2.669l1.508-4.485c-.554,3.655-1.358,12.85-2.644,15.695-.305.676-5.754,6.927-6.829,8.191-.482.567-1.772.738-1.84,1.254-.18,1.373,1.202,2.199,1.343,3.039.162.964-.641,2.199-.481,3.502.477,3.888,1.772,7.796,1.843,11.76-.75,1.29-9.866,4.648-11.893,6.069-4.924,3.451-7.768,12.045-10.687,17.057-1.747,3-4.954,6.527-6.618,9.823-.769,1.523-.631,3.241-1.214,4.636-.349.834-1.777.117-1.476,1.276,1.177.111,2.052-.542,2.946-1.166,6.811-4.759,14.226-12.978,20.28-18.676,3.098-2.916,6.141-5.838,9.398-8.582l1.129,11.22c3.055-1.937,5.088-5.311,7.876-7.506.683-.538,1.561-.515,1.867-.725.044-1.365,3.23-4.163,4.5-5.238-1.864,2.091-1.646,3.282-4.5,5.238-.016.487-.045.987.043,1.47l1.464.385-15.73,23.956,11.966,17.951c-.887,1.165-.951,1.093-2.247.802-3.404-.764-7-4.959-10.889-5.605l-10.107,20.902c-24.842-.273-50.657,1.601-74.621,4.496-33.307,4.024-65.181,8.141-98.033,15.179-11.026,2.362-24.919,7.4-35.468,8.764-.734.095-3.534.544-3.373-.744l29.993-12.74c1.063-1.085-.066-1.354-1.109-1.487-2.46-.312-7.203-.21-9.752.013-21.872,1.916-50.311,10.609-72.187,15.528-1.852.416-3.788-.056-5.637.362-5.469,1.236-10.731,3.436-16.308,4.299-2.15-2.39,8.83-7.058,10.332-8.037,51.112-33.337,104.903-66.85,154.663-102.704,3.974.461,3.576,3.621,5.25,5.238-.403,5.095-3.202,8.647-6.75,11.972-2.508,2.35-5.126,3.404-7.494,5.618-4.729,4.421-8.026,11.106-11.256,15.334-3.737,4.891-8.29,9.731-11.87,14.687-4.935,6.834-8.946,14.367-14.374,20.866l1.835,1.082,36.186-23.802c3.917-.191-.876,7.261-1.242,9.283-.208,1.15-.465,2.082,1.097,1.839.995-.155,5.353-4.637,6.639-5.718.662-.557,1.883-.551,2.78-1.334,1.236-1.078,1.907-3.601,3.472-4.064l12.213.243c3.694-3.016,7.196-6.336,10.885-9.345,1.749-1.426,2.711-2.075,4.553-3.719.822-.733,2.144-.607,2.634-1.25,1.799-2.364.009-4.493-1.558-6.252l.747-5.99h3.749s.004-1.493.004-1.493c-1.104-.107-3.905-2.245-3-2.993,1.408,1.075,2.815,2.859,3,2.993,1.468,1.062,5.468,1.672,6.37,4.486,27.686-22.337,56.364-43.591,84.757-65.094,3.917-2.967,7.544-6.095,11.623-8.981ZM280.496,216.254c-1.896-.382-1.882.25-2.879,1.236-1.395,1.379-7.96,9.489-8.551,9.821-.765.431-2.077-.097-2.674.282-.48.305-.452,2.315-1.669,3.223-1.081.807-3.626,1.088-5.352,2.147-4.442,2.725-7.574,5.217-12.979,7.249-2.572.967-10.236,2.294-11.262,2.915-2.654,1.607-12.661,17.361-14.943,21.074-.488.794-3.11,4.775-2.683,5.172,1.595.009,3.643-.477,4.893-1.471,6.665-5.298,11.293-12.884,18.924-17.197,10.637-6.011,24.508-9.01,31.97-19.575,1.198-1.696,5.905-9.631,6.623-11.35.498-1.193.759-2.224.582-3.528ZM127.011,259.903c.444-.602,1.845-.847,1.99-1.379-2.379-5.155-7.727,3.253-10.231,5.551-.77.706-1.834.687-2.258,1.072-2.979,2.705-5.367,7.621-10.33,8.023l-.836-1.588c-.283-.032-5.129,1.581-5.385,1.75-1.523,1.006-5.566,5.704-7.542,7.274-.987.784-9.623,4.663-7.666,6.728,2.459-.157,4.992-1.184,7.257-2.106,12.769-5.193,27.012-14.504,35-25.325Z"/>
  <path class="cls-2" d="M440.25,204.278c4.162,1.125,5.215,2.084,8.25,4.49l2.895,12.944c-1.017,2.698-6.907,5.675-6.539,8.198.13.893,6.748,14.507,7.738,16.302.965,1.752,2.592,4.394,3.846,5.891,1.369,1.635,9.707,9.135,11.196,9.785.894.39,1.461-.202,1.107-1.104-.511-1.299-3.505-4.825-4.534-6.719-1.069-1.969-2.202-6.903-4.452-7.149,1.599-3.608,8.67,1.775,11.176,3.448,6.61,4.414,12.029,10.527,18.058,15.656,5.807,4.94,11.901,9.553,17.639,14.577.931-.428.132-2.119-.207-2.787-2.334-4.603-7.459-10.131-9.518-14.448-.342-.717-.898-2.49-.038-2.956l41.629,22.433c-4.808-6.476-9.988-12.385-15.746-18.325l-3.38-6.356,102.763,65.09c1.084,1.326-1.558.683-2.071.567-21.53-4.866-42.555-10.491-64.312-14.78.379-1.374,4.152.281,2.639-2.258-.967-1.624-14.375-11.851-16.967-13.752-7.284-5.342-13.937-9.854-22.806-12.408-.071,1.004,1.267,2.555,1.9,3.335,2.724,3.355,15.415,15.952,15.647,18.708.055.66-.885,1.701-.662,1.878l3.01.022c-.095.345-.75.62-.761.733l-7.5-.748,2.994-1.487c-7.548-5.349-15.032-9.79-23.485-13.612-3.55-1.605-13.435-6.062-16.694-6.548-3.995-.596-.392,2.577.791,3.708,5.893,5.635,12.646,10.91,19.144,15.695,7.15,5.265,14.252,8.654,21.534,13.31,1.007.644,2.022.896,1.709,2.403-15.979-4.543-32.409-8.091-48.743-11.224l-8.24-8.616c-10.115-8.41-19.639-17.562-30.824-24.619-2.567-1.62-10.06-6.326-12.475-7.01-.6-.17-2.254-.551-2.458.208,6.722,9.014,13.359,18.051,20.237,26.951,1.655,2.141,1.971,4.569,5.254,5.993.349,1.182-.733,1.04-.744,1.106-1.661-1.191-2.843.499-4.729.497-3.299-.004-16.353-2.221-19.271-3.49-6.888-2.995-17.791-15.652-23.217-21.359-9.887-10.399-26.858-27.585-34.575-39.595-2.66-4.139-2.837-3.723-6.491-7.375-.376-.376-.124-1.162-.217-1.261l45.38,36.66c1.06-.809-.751-2.511-1.273-3.22-5.406-7.349-10.682-14.777-16.069-22.129-2.443-3.333-8.274-6.662-6.671-11.303l76.875,50.871c.324-1.396-.777-1.782-1.491-2.617-12.421-14.551-30.465-27.489-44-41.028-1.731-4.679-15.094-9.642-9.425-14.729,9.275-5.119,18.033-11.087,27.173-16.449Z"/>
  <path class="cls-5" d="M326.25,220.74l37.135,32.169,1.104-1.102c-5.306-9.299-12.365-18.068-17.629-27.312-1.297-2.278-5.267-9.428-5.794-11.463-.348-1.345.121-2.217.191-3.516.48-.533,7.143,5.878,7.9,6.701,1.549,1.684,3.317,4.052,5.141,6.095,5.066,5.675,9.398,12.017,15.084,17.119l-4.129-14.198c.629-.671,3.922,2.384,4.496,2.989.094.098-.159.885.217,1.261,3.653,3.652,3.831,3.235,6.491,7.375,7.717,12.01,24.687,29.196,34.575,39.595,5.426,5.707,16.329,18.363,23.217,21.359-6.275-.065-12.816-.73-19.055-1.566-4.657-.624-10.647-2.46-15.201-2.635-35.129-1.351-70.729-5.139-105.994-5.526l10.107-20.902c3.889.646,7.485,4.841,10.889,5.605,1.296.291,1.36.363,2.247-.802l-11.966-17.951,15.73-23.956-1.464-.385c-.088-.483-.059-.983-.043-1.47,2.854-1.956,2.636-3.147,4.5-5.238.228-.255.475-.549.75-.748.198-.143,1.061.122,1.499-.001v-1.495Z"/>
  <path class="cls-5" d="M458.25,300.805c.011-.066,1.094.077.744-1.106-3.283-1.424-3.599-3.852-5.254-5.993-6.878-8.9-13.515-17.937-20.237-26.951.204-.759,1.859-.378,2.458-.208,2.415.684,9.908,5.39,12.475,7.01,11.185,7.058,20.709,16.21,30.824,24.619l8.24,8.616c-9.496-1.821-19.151-3.259-28.756-4.472-.745-.167-.594-.92-.494-1.514Z"/>
  <path class="cls-5" d="M312.75,164.62c1.027-.727,3.012-3.271,4.295-3.629,3.387-.948,4.298,3.093,6.155,4.819,5.908,5.493,13.109,10.467,19.177,16.019,3.916,3.583,13.269,11.75,16.131,15.334.978,1.225,2.433,4.458,2.25,5.987-1.566,1.637-1.52-.89-2.27-1.443-11.795-8.696-22.504-17.996-33.785-26.937-.793-.629-7.802-5.248-8.201-4.912.168-.168-.115-.766-.375-.748-.819.055.022,1.101.375.748-.043.485.072,1.022,0,1.497l-1.508,4.485c-1.41.153-.434-1.939-1.431-2.669-2.892-2.121-8.736,2.49-12.057,1.922-.291-1.419.68-1.827,1.584-2.526,2.707-2.092,5.891-3.926,8.587-6.037.253-.198,2.324-1.55,1.075-1.909Z"/>
  <path class="cls-5" d="M537.75,305.295c.011-.113.666-.388.761-.733l-3.01-.022c-.223-.177.718-1.218.662-1.878-.232-2.756-12.922-15.353-15.647-18.708-.633-.779-1.971-2.331-1.9-3.335,8.869,2.554,15.522,7.065,22.806,12.408,2.592,1.901,16,12.128,16.967,13.752,1.513,2.539-2.261.884-2.639,2.258-5.834-1.15-11.617-2.761-17.622-3-.373-.101-.411-.408-.378-.741Z"/>
  <path class="cls-5" d="M172.5,211.013c.6-.433.778-3.743,4.463-2.614.88.269,9.289,6.668,10.927,7.872,6.129,4.503,12.573,9.954,19.11,14.946-.905.748,1.896,2.886,3,2.993l-.004,1.493h-3.749s-.747,5.99-.747,5.99c-8.265-9.282-19.027-17.017-27.75-25.441-1.674-1.617-1.276-4.776-5.25-5.238Z"/>
  <path class="cls-5" d="M513,302.302c-6.498-4.785-13.251-10.06-19.144-15.695-1.183-1.131-4.786-4.304-.791-3.708,3.26.486,13.145,4.943,16.694,6.548,8.453,3.822,15.937,8.263,23.485,13.612l-2.994,1.487-17.25-2.245Z"/>
  <path class="cls-5" d="M440.25,204.278c3.805-2.232,3.67-5.02,8.611-2.223,3.632,2.056,6.187,5.911,8.999,8.225,8.824,7.26,17.955,14.405,26.284,22.414,1.553,1.493,3.713,2.961,3.352,5.253l-1.748-.118c-13.035-8.909-24.919-19.287-37.249-29.06-3.035-2.406-4.088-3.364-8.25-4.49Z"/>
  <path class="cls-2" d="M326.25,220.74v1.495c-.439.124-1.302-.142-1.5.001l1.5-1.497Z"/>
  <path class="cls-1" d="M164.25,106.255l2.254,71.082,1.498-1.105,2.998-68.48c.899.07,3.141-1.071,5.579-.712,4.706.693,10.308,4.075,15.415,3.71-.895,25.098-1.787,49.975-.7,75.108-.185.672-2.784,1.021-3.52,1.089-3.269.298-18.315.924-19.98,1.793-1.432.748-1.811,2.468-3.174,3.562-3.152,2.53-6.988,5.374-10.325,7.657-.772.528-7.008,4.641-7.292,4.316l.027-64.753-2.322-31.273c.466-1.979,16.881-2.094,19.541-1.994Z"/>
  <path class="cls-4" d="M243.75,151.151c-3.152-12.003-1.176-26.326,2.786-38.002,7.782-22.939,21.196-37.645,42.461-48.926,46.955-24.91,110.347-3.7,129.326,44.828,5.946,15.203,8.291,32.031,4.678,48.086.443-6.268-.532-12.474-.758-18.703-.941-.222-1.294,1.473-1.333,2.045-.35,5.189-1.84,8.28-3.16,13.665-1.634-5.468-.361-11.746-.846-17.489-2.349-27.831-24.546-56.059-49.643-67.202-37.118-16.48-77.723-4.318-101.641,26.819-12.72,16.559-17.42,36.396-15.869,57.124-1.344-5.685-3.598-11.277-3.753-17.213-1.971-.157-1.243-.089-1.471,1.135-.802,4.301-1.082,9.479-.775,13.834Z"/>
  <path class="cls-1" d="M353.25,89.793c-.355,4.202-2.27,8.604-.75,12.721-1.308.082-2.642-.195-3.949.154-6.615,1.77-9.697,9.99-8.051,16.308-1.469-.017-2.084,1.006-3.008,1.857-6.983,6.428-13.121,11.346-21.198,16.34-2.271,1.404-6.581,2.43-9.219,2.075-1.417-.191-.975-1.508-1.531-1.543-.644-.04-1.46.723-2.559.405-4.932-1.427-10.806-6.433-14.985-9.406,12.492-18.879,42.149-41.62,65.25-38.91Z"/>
  <path class="cls-1" d="M401.25,58.365c1.401.121,2.963-.388,4.298.239,6.543,3.073,21.581,3.658,30.381,5.943,4.513,1.172,17.238,5.637,20.281,8.749.783.801,3.624,6.722,4.084,8.096,1.649,4.928,2.186,11.433,3.206,16.631-4.559.724-4.643-1.496-4.931-1.511-.979-.05-2.696.997-4.476.853-.579-.047-.861-.694-3.7-.991-11.835-1.239-23.727-2.522-35.448-4.532-4.033-9.709-8.493-19.302-12.558-28.999-.661-1.577-.704-3.421-1.137-4.478Z"/>
  <path class="cls-4" d="M288,128.703c-3.139,4.743-5.569,9.377-8.397,14.445l-4.345,13.236c-3.437-13.044-3.606-26.969,2.103-39.418,5.75-12.54,14.865-21.35,26.915-27.771,18.818-10.028,39.801-9.97,58.722-.139,1.08,1.084-.089,1.357-1.116,1.493-2.332.308-6.093-.458-8.632-.756-23.101-2.71-52.758,20.031-65.25,38.91Z"/>
  <path class="cls-4" d="M288.75,40.407c-1.823,3.46-6.842,10.954-9.406,14.187-.779.982-1.347,1.311-1.103-.348,1.077-7.307,7.082-23.805,9.948-31.234,2.971-7.699,2.723-11.181,11.642-13.078,14.079-2.994,52.697-3.101,66.461.625,6.05,1.638,6.927,3.196,9.28,8.7,1.611,3.769,11.01,31.632,9.921,33.12-1.849-1.706-3.004-4.767-4.474-7.127-1.138-1.826-2.821-3.177-3.768-4.846-.205-.361-.004-1.756-.579-2.756-1.295-2.256-5.613-10.936-6.959-11.797-.946-.606-10.142-3.137-11.67-3.32-1.969-.236-3.966-.079-5.942-.09-8.935-.051-20.537-.651-30.708.028-5.095.34-21.509,1.432-25.325,3.161-3.108,1.408-5.63,11.576-7.316,14.775Z"/>
  <path class="cls-1" d="M288.75,40.407c1.686-3.199,4.208-13.368,7.316-14.775,3.817-1.729,20.231-2.82,25.325-3.161,10.171-.679,21.773-.079,30.708-.028,1.976.011,3.973-.145,5.942.09,1.528.183,10.724,2.714,11.67,3.32,1.345.861,5.663,9.542,6.959,11.797.575,1.001.374,2.395.579,2.756l-40.839-2.28-15.817.005-31.844,2.276Z"/>
  <path class="cls-4" d="M370.996,81.085c20.236,11.303,35.771,37.703,35.431,61.381-.02,1.379-.744,8.164-1.813,8.678-1.591.392-1.89-2.571-1.904-3.386-.084-4.945.604-9.354-.166-14.733-4.286-29.955-33.71-56.29-63.888-58.228-38.734-2.487-74.717,27.609-74.725,67.001,0,4.042,2.749,10.691-.673,13.843-2.972-15.588-1.904-31.033,5.111-45.402,18.623-38.151,65.978-49.624,102.628-29.154Z"/>
  <path class="cls-4" d="M168.75,80.813l-8.201-4.913c-4.574-3.419-4.11-5.816-4.549-10.801,11.072-12.003,32.028-13.494,47.533-11.88,5.815.605,14.224,2.76,13.187,9.953-1.66,11.521-20.328,17.61-30.355,18.38-5.985.46-12.014-.597-17.616-.739ZM183.595,56.342c-5.333.516-19.61,4.451-17.546,11.766,2.963,10.497,33.15,9.288,37.379-.954,4.035-9.773-13.569-11.419-19.833-10.813Z"/>
  <path class="cls-1" d="M266.25,55.372c-4.51,10.684-8.533,21.61-13.614,32.049l-2.788.02c-1.912-6.537-3.651-12.493-11.723-12.675-4.018-.091-8.003,3.288-10.875,1.183v-11.224c0-.302-1.955-5.084-2.25-5.612,2,.907,2.322-1.457,2.753-1.522,1.88-.284,5.289,1.217,8.174.831,1.469-.197.768-1.595,2.169-1.638,2.139-.066,4.305,1.182,6.798.891,1.706-.199,2.61-1.394,3.79-1.559,2.073-.291,5.306,1.212,8.242.809,1.39-.191.986-1.398,1.589-1.537,2.149-.497,5.393.301,7.735-.017Z"/>
  <path class="cls-1" d="M368.256,178.85c1.503-.603,3.834-2.611,4.912-3.746,17.746-18.689,19.145-46.672,6.54-68.648-.773-1.349-4.936-3.467-.561-4.464,12.51,12.27,15.75,29.622,14.635,46.572-.827,12.574-6.594,22.847-13.147,33.27-1.607,3.465-12.877-2.05-12.379-2.984Z"/>
  <path class="cls-4" d="M401.25,58.365c-.048-.117-1.001-.494-1.311-1.284-.668-1.704-2.034-4.347-2.363-5.913s.615-1.074,1.725-.97c10.816,1.011,33.267,6.638,44.11,9.876,21.88,6.534,23.414,14.26,22.366,36.697-.127.533-1.781,1.173-2.278,1.252-1.019-5.198-1.556-11.703-3.206-16.631-.46-1.375-3.301-7.295-4.084-8.096-3.043-3.113-15.768-7.578-20.281-8.749-8.799-2.285-23.838-2.87-30.381-5.943-1.335-.627-2.897-.118-4.298-.239Z"/>
  <path class="cls-4" d="M352.5,102.513c2.087-.13,4.145-.581,6.23.709.326.202,4.448,5.578,4.611,6.06,1.973,5.822-.105,11.838-5.322,14.829-4.534,2.599-7.961,2.806-12.522-.019-.972-.602-4.799-4.353-4.997-5.116-1.646-6.318,1.435-14.538,8.051-16.308,1.307-.35,2.641-.073,3.949-.154Z"/>
  <path class="cls-1" d="M466.493,104.765l.012,45.27-2.247,6.35-3.674-47.449-17.337.313c-1.517,1.553,4.335,10.663,1.128,12.706-1.295-.06-10.496-19.059-9.376-20.185l31.495,2.996Z"/>
  <path class="cls-4" d="M158.25,92.037l6.003.003.096-2.881,43.408-3.475c-1.507,3.345-6.253,5.566-9.49,6.994-12.789,5.645-26.303,6.148-40.024,4.595l.006-1.495,1.509-.374-1.526-.882c-.077-.826-.022-1.658.018-2.485Z"/>
  <path class="cls-4" d="M171,107.751l-2.998,68.48-1.498,1.105-2.254-71.082c3.133.118,5.6,1.407,6.75,1.497Z"/>
  <path class="cls-1" d="M430.506,173.594c-2.942-2.377,3.879-8.29,4.834-9.758,2.935-4.511,3.04-14.406,3.307-19.835.015-.308-.976-.206-1.325-.913-1.495-3.022-.3-3.623-5.338-4.265l-.639-.862c-.832-2.326.743-4.438.671-5.836-.023-.449-1.355-.35-1.505-.931-.54-2.097.199-5.704,1.107-7.723,3.246,2.257,7.311,2.671,9.006,6.729,2.837,6.794,3.888,22.672,1.009,29.437-1.102,2.589-3.889,5.083-4.846,7.886-1.762.18-4.861,7.216-6.281,6.07Z"/>
  <path class="cls-1" d="M423,157.137c-.732,10.356-10.806,36.033-20.04,41.147-1.015.562-2.025.906-3.207.752-1.127-1.036,8.926-14.683,9.899-16.68,4.461-9.155,5.731-18.552,8.098-28.212,1.319-5.385,2.81-8.476,3.16-13.665.039-.572.391-2.268,1.333-2.045.225,6.229,1.201,12.435.758,18.703Z"/>
  <path class="cls-4" d="M266.25,55.372c-2.342.317-5.586-.481-7.735.017-.602.139-.199,1.346-1.589,1.537-2.936.403-6.169-1.101-8.242-.809-1.18.166-2.084,1.361-3.79,1.559-2.493.29-4.66-.957-6.798-.891-1.402.043-.7,1.441-2.169,1.638-2.885.386-6.293-1.114-8.174-.831-.431.065-.753,2.428-2.753,1.522-.298-.533-.814-1.127-1.311-1.495l-7.685-3.735,52.884-5.234c.435,2.075-1.756,4.635-2.637,6.723Z"/>
  <path class="cls-1" d="M156,65.1c.439,4.985-.025,7.382,4.549,10.801l8.201,4.913c-1.577-.04-4.511.917-7.166.781-3.289-.168-12.874-2.092-14.932-4.551-5.293-6.328,4.755-11.045,8.983-13.422-.053.389.357,1.402.364,1.478Z"/>
  <path class="cls-1" d="M243.75,151.151c-.306-4.355-.026-9.533.775-13.834.228-1.224-.499-1.291,1.471-1.135.155,5.936,2.409,11.528,3.753,17.213,1.554,6.57,1.97,9.924,4.422,16.319.828,2.161,3.63,7.95,3.84,9.495.392,2.884-4.024-.292-4.776-1.309-4.009-5.426-9.01-19.981-9.486-26.749Z"/>
  <path class="cls-4" d="M209.996,39.655l.117-2.881c1.584-.491,3.159-1.307,4.824-1.547,8.334-1.202,22.585-2.206,30.69-.808,3.197.552,3.73,2.455.737,2.983-1.873.331-4.642.495-6.745.753-9.761,1.195-19.812,1.346-29.622,1.5Z"/>
  <path class="cls-4" d="M241.989,90.28c-7.125,6.969-16.634-2.178-9.901-9.502,6.042-6.572,16.67,2.88,9.901,9.502Z"/>
  <path class="cls-1" d="M373.97,158.374l-1.144.862c-.608,2.714-7.35,14.641-9.07,15.495-3.453,1.715-5.209-2.022-8.252-2.643-1.008-1.461,5.548-5.231,6.755-6.338,5.349-4.91,8.047-10.439,12.366-16.082,2.243-.114-.44,7.55-.655,8.705Z"/>
  <path class="cls-1" d="M224.999,86.058c-.793,1.17.374,5.579.959,6.52.392.631,7.916,5.926,9.017,6.376,1.571.643,3.222-1.323,2.775,1.306-5.707,1.257-12.112,4.326-17.912,2.162-.444-.699,1.464-10.936,1.925-12.49.455-1.532,1.19-4.15,3.234-3.874Z"/>
  <path class="cls-1" d="M234,157.885c2.299.95,1.203,2.772,1.69,4.658,1.479,5.729,3.439,12.425,5.402,17.823,1.257,3.455,5.396,7.656,3.399,11.938-.49.389-3.61-3.927-4.045-4.562-5.302-7.748-7.989-20.445-7.197-29.857h.75Z"/>
  <path class="cls-1" d="M426.75,41.903c-1.804,2.541.72,6.84-2.25,8.231l-8.697-1.425c-1.39-1.094-1.426-5.46-.936-7.067.664-2.18,5.195-.046,7.111.169,1.6.179,3.418-.135,4.773.092Z"/>
  <path class="cls-4" d="M426.75,41.903c4.102.688,4.995,1.072,8.25,2.993v7.483c-3.513-.216-7.721.372-10.5-2.245,2.97-1.391.446-5.69,2.25-8.231Z"/>
  <path class="cls-1" d="M158.25,95.779c-5.491-1.956-12.353-.282-16.5-5.23l4.461,1.474c1.477-4.644,8.817-2.509,12.786-2.973.322.287-.714,2.285-.747,2.988-.04.827-.095,1.659-.018,2.485l1.526.882-1.509.374Z"/>
  <path class="cls-4" d="M401.25,163.872h.75c-.392,1.314-.208,2.846-.921,4.694-3.172,8.22-9.057,16.812-15.962,22.229,2.726-4.386,6.239-8.422,8.761-12.951,2.821-5.066,3.967-10.414,7.371-13.971Z"/>
  <path class="cls-1" d="M435,44.896c.373.22,2.018-.299,2.662.696.229.353,1.03,5.45,1.1,6.415.171,2.347-2.509.449-3.762.372v-7.483Z"/>
  <path class="cls-4" d="M403.5,159.382c-.086.709.152,1.648,0,2.245h-1.5c.135-.403.638-2.444.75-2.993l.75.748Z"/>
  <path class="cls-4" d="M234.75,154.892c.042.971.327,2.496-.75,2.993h-.75c.079-.94-.184-2.196,0-2.993h1.5Z"/>
  <path class="cls-1" d="M403.5,161.627c-.036.14-.983.512-1.5,2.245h-.75c.082-.086.589-1.763.75-2.245h1.5Z"/>
  <path class="cls-1" d="M234.75,154.892h-1.5c.109-.472.768-2.26,1.125-2.252.729.2.346,1.57.375,2.252Z"/>
  <path class="cls-1" d="M403.5,159.382l-.75-.748c.177-.868-.131-2.045.008-2.989h.735c.281,1.324.167,2.431.008,3.737Z"/>
  <path class="cls-4" d="M205.5,241.692c1.567,1.759,3.357,3.888,1.558,6.252-.489.643-1.812.516-2.634,1.25-1.842,1.644-2.805,2.293-4.553,3.719-3.69,3.01-7.192,6.329-10.885,9.345l-12.213-.243c-1.565.463-2.236,2.986-3.472,4.064-.897.783-2.118.777-2.78,1.334-1.286,1.081-5.644,5.563-6.639,5.718-1.562.243-1.305-.689-1.097-1.839.366-2.023,5.158-9.475,1.242-9.283l-36.186,23.802-1.835-1.082c5.429-6.498,9.439-14.032,14.374-20.866,3.58-4.956,8.133-9.796,11.87-14.687,3.128-.272,13.052-2.909,14.978-4.886,2.133-2.189,5.375-12.747,3.772-16.066,3.548-3.325,6.347-6.877,6.75-11.972,8.723,8.424,19.485,16.16,27.75,25.441Z"/>
  <path class="cls-5" d="M280.496,216.254c.176,1.303-.084,2.335-.582,3.528-.718,1.719-5.426,9.654-6.623,11.35-7.462,10.565-21.332,13.564-31.97,19.575-7.632,4.313-12.259,11.898-18.924,17.197-1.25.994-3.298,1.48-4.893,1.471-.426-.397,2.195-4.379,2.683-5.172,2.282-3.713,12.289-19.467,14.943-21.074,1.026-.621,8.69-1.948,11.262-2.915,5.405-2.033,8.537-4.524,12.979-7.249,1.726-1.059,4.271-1.34,5.352-2.147,1.216-.908,1.189-2.918,1.669-3.223.597-.379,1.909.148,2.674-.282.59-.332,7.156-8.443,8.551-9.821.997-.985.983-1.618,2.879-1.236Z"/>
  <path class="cls-5" d="M127.011,259.903c-7.988,10.82-22.23,20.131-35,25.325-2.265.921-4.798,1.949-7.257,2.106-1.957-2.065,6.679-5.944,7.666-6.728,1.976-1.569,6.019-6.267,7.542-7.274.256-.169,5.102-1.782,5.385-1.75l.836,1.588c4.963-.402,7.351-5.318,10.33-8.023.424-.385,1.488-.366,2.258-1.072,2.504-2.298,7.852-10.706,10.231-5.551-.145.532-1.546.777-1.99,1.379Z"/>
  <path class="cls-5" d="M152.25,249.175c3.23-4.228,6.527-10.913,11.256-15.334,2.368-2.214,4.986-3.267,7.494-5.618,1.603,3.319-1.639,13.876-3.772,16.066-1.926,1.977-11.85,4.613-14.978,4.886Z"/>
  <path class="cls-2" d="M316.5,169.858c-.353.352-1.194-.693-.375-.748.26-.018.543.58.375.748Z"/>
  <path class="cls-3" d="M183.595,56.342c6.264-.606,23.868,1.04,19.833,10.813-4.228,10.242-34.416,11.451-37.379.954-2.065-7.315,12.213-11.25,17.546-11.766ZM181.306,59.294c-2.029.322-8.865,2.574-6.606,5.467,2.664,3.412,18.076,3.809,19.443-.929,1.554-5.386-9.66-5.041-12.837-4.537Z"/>
  <path class="cls-4" d="M181.306,59.294c3.177-.504,14.391-.849,12.837,4.537-1.367,4.738-16.779,4.342-19.443.929-2.259-2.893,4.578-5.145,6.606-5.467Z"/>
</svg>